<svg xmlns="http://www.w3.org/2000/svg" xmlns:xlink="http://www.w3.org/1999/xlink" version="1.1" width="155.906pt" height="155.906pt" viewBox="0 0 155.906 155.906">
<defs>
<clipPath id="clip_152">
<path transform="matrix(1,0,0,-1,0,155.906)" d="M0 155.906H155.906V0H0Z"/>
</clipPath>
</defs>
<g>
<g id="layer_1" data-name="bg orange">
</g>
<g id="layer_1" data-name="BOXES">
</g>
<g id="layer_1" data-name="LOGOS">
<g clip-path="url(#clip_152)">
<path transform="matrix(1,0,0,-1,121.2054,76.0146)" d="M0 0C0 5.837-1.144 11.502-3.401 16.837-5.579 21.988-8.697 26.613-12.668 30.584-16.64 34.555-21.265 37.673-26.416 39.852-31.751 42.108-37.415 43.253-43.253 43.253-49.09 43.253-54.755 42.108-60.09 39.852-65.241 37.673-69.866 34.555-73.837 30.584-77.808 26.613-80.926 21.988-83.105 16.837-85.361 11.502-86.505 5.837-86.505 0-86.505-5.837-85.361-11.502-83.105-16.837-81.359-20.965-78.999-24.769-76.083-28.162-77.067-31.548-77.795-34.054-77.795-34.054L-78.713-37.213-75.489-36.556C-75.449-36.548-72.724-35.993-70.565-35.565V-44.729-47.13L-68.206-46.682C-68.091-46.66-56.531-44.5-43.214-44.5-29.878-44.5-18.338-46.659-18.223-46.681L-15.864-47.129V-44.728-35.565C-13.705-35.993-10.98-36.548-10.94-36.557L-7.716-37.213-8.633-34.054C-8.633-34.054-9.371-31.514-10.366-28.095-7.475-24.718-5.134-20.936-3.401-16.837-1.144-11.502 0-5.837 0 0" fill="#ffffff"/>
<path transform="matrix(1,0,0,-1,119.2171,76.0146)" d="M0 0C0 5.57-1.091 10.974-3.244 16.063-5.322 20.976-8.297 25.389-12.086 29.178-15.875 32.967-20.288 35.942-25.202 38.021-30.29 40.173-35.695 41.264-41.264 41.264-46.834 41.264-52.238 40.173-57.327 38.021-62.241 35.942-66.654 32.967-70.443 29.178-74.232 25.389-77.207 20.976-79.285 16.063-81.437 10.974-82.529 5.57-82.529 0-82.529-5.57-81.437-10.974-79.285-16.063-77.477-20.337-74.99-24.232-71.88-27.667-73.016-31.571-73.898-34.608-73.898-34.608-73.898-34.608-67.95-33.397-66.589-33.155V-44.729C-66.589-44.729-54.904-42.511-41.226-42.511-27.548-42.511-15.864-44.728-15.864-44.728V-33.155C-14.503-33.397-8.555-34.608-8.555-34.608-8.555-34.608-9.447-31.537-10.592-27.602-7.508-24.183-5.04-20.31-3.244-16.063-1.091-10.974 0-5.57 0 0" fill="#00305d"/>
<path transform="matrix(1,0,0,-1,92.1281,58.68641)" d="M0 0C-2.305 1.082-4.779 2.071-7.414 2.955-8.391 3.283-9.362 3.586-10.326 3.868-10.312 3.146-10.316 2.469-10.336 1.874-9.57 1.643-8.8 1.4-8.023 1.139-7.024 .804-6.051 .453-5.1 .088-4.326 .069-3.532 .058-2.674 .047-1.789 .037-.903 .022 0 0" fill="#149bd7"/>
<path transform="matrix(1,0,0,-1,63.4416,63.155809)" d="M0 0C-2.951-1.316-5.818-3.369-8.449-6.113-12.574-10.413-15.43-15.476-16.709-20.753-17.353-23.412-17.471-25.961-17.196-28.365-17.484-27.776-17.759-27.18-18.015-26.574-19.855-22.223-20.788-17.6-20.788-12.834-20.788-10.725-20.604-8.645-20.24-6.603-21.28-8.478-22.157-10.558-22.777-12.834-22.777-21.603-19.748-29.663-14.682-36.031-14.452-35.242-14.222-34.452-13.991-33.663-14.167-33.423-14.341-33.181-14.51-32.936-16.769-26.467-15.331-16.161-7.014-7.49-4.225-4.582-1.169-2.514 1.944-1.356 1.308-.892 .661-.441 0 0" fill="#149bd7"/>
<path transform="matrix(1,0,0,-1,51.3689,52.768106)" d="M0 0C.52 .595 1.06 1.176 1.623 1.739 4.866 4.981 8.641 7.527 12.844 9.305 13.591 9.621 14.347 9.908 15.109 10.17 17.823 9.614 19.974 8.499 22.226 7.33 24.142 6.335 26.118 5.312 28.539 4.566 28.616 4.73 28.68 4.88 28.746 5.035 28.851 5.283 28.96 5.54 29.123 5.841 29.228 6.033 29.373 6.204 29.542 6.344 27.098 7.046 25.091 8.092 23.143 9.095 21.576 9.902 20.127 10.603 18.393 11.123 21.057 11.756 23.796 12.078 26.584 12.078 29.097 12.078 31.57 11.816 33.984 11.301 32.619 10.162 31.314 8.627 30.035 6.631 30.205 6.697 30.382 6.736 30.557 6.736 30.68 6.736 30.847 6.704 30.96 6.667 31.418 6.52 31.72 6.212 31.869 5.792 33.299 8.047 34.737 9.683 36.208 10.752 37.603 10.357 38.976 9.874 40.323 9.305 43.438 7.987 46.316 6.248 48.918 4.116 46.229 4.646 43.734 4.778 40.922 4.907 37.972 5.042 34.939 5.182 31.871 5.787 31.979 5.477 32.006 5.107 31.948 4.694 31.735 4.541 31.476 4.256 31.233 3.887 34.526 3.21 37.724 3.062 40.831 2.919 44.533 2.75 48.054 2.588 51.678 1.602 54.856-1.61 57.357-5.338 59.11-9.482 60.95-13.833 61.883-18.455 61.883-23.222 61.883-24.073 61.852-24.919 61.792-25.76 62.023-28.669 62.163-32.495 61.606-36.041 63.071-32.043 63.872-27.726 63.872-23.222 63.872-2.628 47.177 14.066 26.584 14.066 22.213 14.066 18.019 13.312 14.122 11.93 14.096 11.932 14.071 11.935 14.045 11.937L14.021 11.894C2.759 7.865-5.999-1.426-9.29-13.018-7.173-7.543-3.981-3.202 0 0" fill="#149bd7"/>
<path transform="matrix(1,0,0,-1,68.0126,52.783006)" d="M0 0C.742-.5 1.558-1.044 2.452-1.618 3.681-1.761 4.938-1.951 6.219-2.186 6.652-1.574 7.06-1.047 7.532-.5 4.661 .064 1.879 .408-.784 .528-.522 .352-.261 .175 0 0" fill="#149bd7"/>
<path transform="matrix(1,0,0,-1,69.8627,81.7581)" d="M0 0C-.226 .033-.444 .12-.652 .245-.964-1.353-1.239-2.884-1.479-4.346-.801-4.302-.122-4.262 .553-4.227 .783-2.858 1.043-1.428 1.338 .064 .885-.034 .433-.064 0 0" fill="#149bd7"/>
<path transform="matrix(1,0,0,-1,109.7941,91.240009)" d="M0 0C-.942-1.964-2.056-3.829-3.339-5.58-3.108-6.369-2.878-7.158-2.648-7.946-1.594-6.622-.63-5.223 .239-3.761 .264-2.626 .18-1.353 0 0" fill="#149bd7"/>
<path transform="matrix(1,0,0,-1,86.9209,70.1255)" d="M0 0C-.649 .026-1.301 .04-1.964 .04-2.177 .04-2.388 .039-2.599 .037-1.061-1.759 .517-4.087 2.032-7.116 4.275-11.602 5.907-16.709 6.734-21.75 7.111-20.535 7.487-19.318 7.865-18.102L7.963-17.785C7.029-13.836 5.635-9.873 3.811-6.226 2.631-3.866 1.363-1.792 0 0" fill="#149bd7"/>
<path transform="matrix(1,0,0,-1,79.9008,53.792505)" d="M0 0C.141 .628 .273 1.137 .335 1.557 .506 1.459 .559 1.237 .602 1.111 .647 .986 .433-.561 .433-.561 .433-.561-.015-.305 0 0M32.806-35.732C34.122-21.756 29.193-11.624 23.262-6.535 23-6.31 22.628-6.25 22.398-6.221 14.5-5.206 6.793-6.177-.588-5.12L-.346-5.116C-.22-5.108 1.042-4.918 1.089-4.651 1.222-3.867 1.262-2.361 1.228-.848 1.204 .235 1.239 1.57 .999 2.109 1.077 2.812 1.308 3.504 1.611 4.264 1.884 4.948 2.396 5.962 2.756 6.14 2.764 6.486 2.665 6.918 2.183 7.068 1.855 7.17 1.382 6.919 1.18 6.546 .836 5.911 .758 5.493 .278 4.671 .024 4.235-.394 3.72-.976 3.109-.976 3.109-.236 3.028-.097 2.813-.433 2.869-.743 2.959-1.442 2.818-2.37 2.63-3.233 1.321-3.631 .321-4.631-.805-5.291-1.755-6.444-3.539-12.141-.277-14.831 2.484-19.535 4.671-19.838 4.811-20.152 4.904-20.496 4.806-26.728 3.037-34.061-3.663-37.832-12.029-33.406 3.622-19.017 15.09-1.948 15.09 18.645 15.09 35.34-1.604 35.34-22.197 35.34-26.972 34.441-31.536 32.806-35.732M34.241-6.909C32.262-2.231 29.431 1.969 25.824 5.575 22.218 9.181 18.018 12.013 13.341 13.991 8.497 16.04 3.353 17.079-1.948 17.079-7.249 17.079-12.393 16.04-17.237 13.991-21.914 12.013-26.114 9.181-29.72 5.575-33.327 1.969-36.159-2.231-38.137-6.909-40.185-11.752-41.224-16.896-41.224-22.197-41.224-27.499-40.185-32.642-38.137-37.486-36.559-41.216-34.437-44.642-31.813-47.706L-31.14-45.395C-36.207-39.028-39.236-30.967-39.236-22.197-39.236-22.193-39.236-22.188-39.236-22.183-39.226-22.122-39.215-22.059-39.203-21.993-37.341-11.962-29.987-4.921-24.867-3.635-18.729-6.666-14.432-9.292-9.939-13.296-10.215-15.759-10.264-17.315-10.283-19.567-11.135-20.833-11.795-22.052-12.285-23.359-12.184-24.508-11.341-25.85-10.271-26.498-9.8-25.053-9.127-23.485-9.127-23.485-9.105-23.493-9.497-26.729-9.497-26.729-8.615-26.728-7.145-26.369-6.142-25.401-6.073-23.669-6.066-22.68-5.883-21.079-4.796-19.115-3.795-17.493-2.271-15.697 5.63-15.15 13.088-15.36 21.404-16.678 26.876-20.84 31.305-29.853 30.197-41.1 29.312-42.601 28.325-44.034 27.246-45.39L27.922-47.7C30.543-44.637 32.664-41.214 34.241-37.486 36.289-32.642 37.328-27.499 37.328-22.197 37.328-16.896 36.289-11.752 34.241-6.909" fill="#ffffff"/>
<path transform="matrix(1,0,0,-1,98.1096,99.572109)" d="M0 0C.467 1.761 .934 3.52 1.4 5.276 1.89 3.379 2.379 1.478 2.868-.425 1.913-.273 .957-.132 0 0M-.961-3.625C.653-3.837 2.265-4.076 3.873-4.342 4.138-5.378 4.404-6.416 4.67-7.455 6.359-7.743 8.045-8.062 9.726-8.41 7.961-2.316 6.192 3.745 4.419 9.773 2.424 10.11 .424 10.406-1.58 10.66-3.289 5.149-5.001-.392-6.716-5.964-5.05-6.116-3.385-6.297-1.724-6.506-1.469-5.545-1.215-4.585-.961-3.625M-43.105-.425C-42.616 1.478-42.127 3.379-41.637 5.276-41.171 3.52-40.704 1.761-40.237 0-41.194-.132-42.15-.273-43.105-.425M-38.514-6.506C-36.852-6.297-35.188-6.116-33.522-5.964-35.236-.392-36.948 5.149-38.658 10.66-40.661 10.406-42.661 10.11-44.656 9.773-46.429 3.745-48.199-2.316-49.963-8.41-48.282-8.062-46.596-7.743-44.907-7.455-44.641-6.416-44.376-5.378-44.11-4.342-42.502-4.076-40.891-3.837-39.277-3.625-39.022-4.585-38.768-5.545-38.514-6.506M-13.271-1.615C-14.173-1.572-15.075-1.539-15.978-1.513V1.51C-15.104 1.485-14.23 1.453-13.357 1.413-12.066 1.352-11.473 .738-11.473-.163-11.473-1.184-12.06-1.672-13.271-1.615M-15.978 8.077C-15.189 8.055-14.399 8.026-13.61 7.991-12.337 7.934-11.709 7.346-11.709 6.462-11.709 5.47-12.346 5.056-13.611 5.113-14.4 5.148-15.189 5.177-15.978 5.199ZM-9.569 3.187C-7.939 3.476-6.882 4.986-6.882 6.802-6.883 9.608-8.77 11.438-12.533 11.641-15.296 11.783-18.063 11.848-20.829 11.835V-5.357C-17.851-5.343-14.872-5.419-11.897-5.586-8.281-5.795-6.451-3.671-6.451-1.162-6.451 .7-7.468 2.502-9.569 3.187M-22.004-1.04C-23.817-1.063-25.63-1.12-27.443-1.21V11.654C-29.254 11.564-31.063 11.44-32.871 11.283V-5.91C-29.255-5.595-25.63-5.414-22.004-5.368ZM-39.218-15.966C-39.729-16.033-40.24-16.102-40.751-16.175V-14.452C-40.256-14.382-39.762-14.314-39.267-14.249-38.535-14.154-38.198-14.441-38.198-14.955-38.198-15.536-38.532-15.877-39.218-15.966M-40.751-10.709C-40.304-10.646-39.857-10.584-39.41-10.525-38.689-10.43-38.332-10.7-38.332-11.203-38.332-11.769-38.694-12.071-39.411-12.166-39.858-12.225-40.305-12.286-40.751-12.349ZM-37.113-12.824C-36.187-12.485-35.589-11.526-35.589-10.491-35.589-8.889-36.666-8.066-38.799-8.336-40.367-8.537-41.931-8.763-43.493-9.014V-18.813C-41.812-18.542-40.127-18.301-38.439-18.089-36.388-17.834-35.343-16.409-35.344-14.982-35.344-13.92-35.92-12.99-37.113-12.824M-21.941-11.22C-22.351-11.225-22.761-11.232-23.171-11.24V-9.284C-22.728-9.274-22.285-9.267-21.842-9.262-21.007-9.252-20.616-9.612-20.616-10.219-20.616-11.071-21.28-11.211-21.941-11.22M-19.209-12.736C-18.046-12.21-17.471-11.443-17.471-10.142-17.471-8.078-19.083-7.131-21.219-7.147-22.889-7.159-24.559-7.2-26.228-7.269V-17.067C-25.209-17.025-24.19-16.994-23.171-16.972V-13.3C-22.855-13.293-22.539-13.287-22.224-13.283-21.745-14.501-21.266-15.72-20.788-16.942-19.668-16.937-18.548-16.945-17.428-16.965-18.022-15.552-18.615-14.142-19.209-12.736M-34.421-7.839C-32.054-7.608-29.683-7.434-27.31-7.319V-9.575C-28.698-9.643-30.086-9.731-31.472-9.838V-11.267C-30.278-11.174-29.084-11.096-27.888-11.033V-13.218C-29.084-13.282-30.278-13.359-31.472-13.452V-15.037C-30.086-14.93-28.698-14.842-27.31-14.774V-17.117C-29.683-17.232-32.054-17.406-34.421-17.637ZM-9.417-7.535C-8.404-7.609-7.393-7.693-6.381-7.788V-17.586C-7.393-17.492-8.404-17.407-9.417-17.333ZM.492-8.596C1.414-8.727 2.335-8.866 3.255-9.014V-18.812C2.353-18.667 1.45-18.53 .545-18.402-.431-16.592-1.407-14.791-2.385-13.001V-18.016C-3.295-17.906-4.206-17.804-5.117-17.71V-7.912C-4.211-8.005-3.304-8.107-2.399-8.216-1.434-9.991-.471-11.775 .492-13.568ZM-13.412-14.404C-12.4-14.45-11.389-14.507-10.378-14.574V-17.266C-12.402-17.132-14.428-17.04-16.455-16.989V-7.191C-15.441-7.217-14.426-7.252-13.412-7.298Z" fill="#ffd100"/>
</g>
</g>
</g>
</svg>
