<svg xmlns="http://www.w3.org/2000/svg" xmlns:xlink="http://www.w3.org/1999/xlink" version="1.1" width="155.906pt" height="155.906pt" viewBox="0 0 155.906 155.906">
<defs>
<clipPath id="clip_153">
<path transform="matrix(1,0,0,-1,0,155.906)" d="M0 155.906H155.906V0H0Z"/>
</clipPath>
</defs>
<g>
<g id="layer_1" data-name="bg orange">
</g>
<g id="layer_1" data-name="BOXES">
</g>
<g id="layer_1" data-name="LOGOS">
<g clip-path="url(#clip_153)">
<path transform="matrix(1,0,0,-1,113.2161,90.29551)" d="M0 0V52.767C-10.828 57.387-22.746 59.948-35.263 59.948-47.78 59.948-59.698 57.387-70.527 52.767V0C-70.527-19.475-54.739-35.264-35.263-35.264-15.788-35.264 0-19.475 0 0" fill="#15a8e2"/>
<path transform="matrix(1,0,0,-1,109.6897,90.29551)" d="M0 0V50.405C-9.825 54.288-20.532 56.421-31.737 56.421-42.942 56.421-53.649 54.288-63.474 50.405V0C-63.474-17.528-49.265-31.737-31.737-31.737-14.209-31.737 0-17.528 0 0" fill="#062d74"/>
<path transform="matrix(1,0,0,-1,102.6371,92.3907)" d="M0 0V9.795C-.844 10.074-1.54 9.562-1.541 8.673-1.546 5.866-1.537 3.06-1.541 .254-2.316 .377-3.082 .493-3.86 .604-3.848 4.048-3.872 7.493-3.86 10.938-4.375 11.077-4.896 11.211-5.413 11.34-5.428 7.832-5.398 4.324-5.413 .816-5.417-.117-4.744-.948-3.884-1.05-3.105-1.144-2.328-1.244-1.551-1.349-.693-1.462 0-.861 0 0M-6.988 3.152C-7.899 3.28-8.79 3.399-9.704 3.508-9.692 5.848-9.716 8.188-9.704 10.528-9.699 11.495-10.4 12.416-11.267 12.566-11.282 9.606-11.252 6.645-11.267 3.685-11.272 2.701-10.596 1.841-9.731 1.753-8.817 1.658-7.899 1.553-6.988 1.44-6.986 2.011-6.991 2.581-6.988 3.152M-7.395-.66C-9.153-.484-10.916-.334-12.682-.212-13.549-.15-14.263-.919-14.267-1.92-14.271-2.825-14.263-3.73-14.267-4.635-14.271-5.637-13.578-6.464-12.713-6.488-11.34-6.527-9.976-6.574-8.605-6.627-8.609-7.496-8.601-8.364-8.605-9.233-10.498-9.204-12.399-9.18-14.293-9.16-14.296-9.764-14.299-10.367-14.301-10.971H-8.62C-7.755-10.968-7.043-10.201-7.039-9.259-7.035-8.403-7.043-7.547-7.039-6.691-7.034-5.749-7.725-4.94-8.59-4.89-9.96-4.815-11.325-4.75-12.697-4.694-12.693-3.798-12.702-2.901-12.697-2.005-11.455-2.077-10.207-2.16-8.968-2.254-8.103-2.317-7.399-1.607-7.395-.66M-13.634 3.913C-13.623 6.318-13.645 8.724-13.634 11.129-13.629 12.123-14.309 13.032-15.18 13.138-15.838 13.217-16.496 13.287-17.155 13.349-18.029 13.433-18.751 12.658-18.754 11.638-18.76 9.177-18.747 6.716-18.754 4.256-18.756 3.235-18.064 2.381-17.194 2.337-16.538 2.303-15.881 2.264-15.226 2.221-14.357 2.166-13.639 2.918-13.634 3.913M-15.198 11.318C-15.208 8.892-15.188 6.466-15.198 4.041-15.854 4.089-16.518 4.134-17.174 4.172-17.166 6.62-17.183 9.067-17.174 11.514-16.516 11.456-15.855 11.391-15.198 11.318M-21.127 4.344C-21.122 6.819-21.131 9.294-21.127 11.769-21.125 12.793-21.825 13.658-22.701 13.68-23.891 13.71-25.081 13.713-26.271 13.689-26.268 9.967-26.265 6.245-26.262 2.523-25.079 2.536-23.895 2.534-22.712 2.518-21.841 2.507-21.129 3.319-21.127 4.344M-22.705 11.82C-22.708 9.339-22.703 6.859-22.705 4.378-23.363 4.389-24.026 4.394-24.684 4.394V11.843C-24.024 11.843-23.366 11.835-22.705 11.82M-30.217 2.426C-29.692 2.446-29.163 2.463-28.638 2.477-28.644 5.569-28.632 8.66-28.638 11.752-28.64 12.777-29.36 13.574-30.235 13.512-30.895 13.466-31.555 13.412-32.214 13.349-33.087 13.266-33.772 12.366-33.768 11.361-33.756 8.323-33.78 5.285-33.768 2.246-32.899 2.3-32.191 3.157-32.194 4.172-32.198 5.09-32.191 6.008-32.194 6.925-31.537 6.971-30.876 7.011-30.217 7.045-30.213 5.505-30.222 3.966-30.217 2.426M-30.217 8.893C-30.876 8.855-31.536 8.812-32.194 8.761-32.198 9.679-32.191 10.596-32.194 11.514-31.536 11.572-30.877 11.622-30.217 11.664-30.215 10.74-30.22 9.817-30.217 8.893M-39.965-10.971H-34.284C-34.286-10.364-34.289-9.759-34.291-9.153-36.186-9.171-38.098-9.193-39.992-9.221-39.996-8.347-39.987-7.472-39.992-6.597-38.36-6.537-36.722-6.486-35.088-6.445-35.09-5.842-35.093-5.239-35.096-4.635-36.731-4.692-38.36-4.764-39.992-4.848-39.996-3.974-39.987-3.099-39.992-2.224-38.621-2.123-37.267-2.035-35.893-1.961-35.026-1.916-34.326-1.07-34.33-.064-36.23-.17-38.126-.307-40.019-.475-40.883-.555-41.579-1.396-41.575-2.346-41.563-4.646-41.552-6.946-41.541-9.245-41.536-10.196-40.83-10.968-39.965-10.971M-36.134 2.078C-36.15 5.678-36.117 9.277-36.134 12.877-37.003 12.749-37.716 11.832-37.71 10.851-37.702 9.194-37.719 7.538-37.71 5.882-38.506 8.039-39.29 10.151-40.083 12.207-40.947 12.035-41.62 11.108-41.615 10.159-41.601 7.284-41.629 4.409-41.615 1.535-40.752 1.635-40.046 2.492-40.051 3.461-40.059 5.087-40.042 6.714-40.051 8.34-39.257 6.259-38.474 4.123-37.679 1.944-37.221 1.986-36.199 2.073-36.134 2.078M-45.503-1.05C-44.984-.987-44.469-.926-43.949-.868-43.964 2.64-43.934 6.148-43.949 9.656-43.953 10.589-44.673 11.172-45.526 10.938-46.299 10.729-47.069 10.509-47.837 10.276-48.684 10.016-49.368 9.09-49.369 8.228V-1.567C-48.513-1.446-47.826-.635-47.828 .254-47.831 1.724-47.826 3.194-47.828 4.664-47.056 4.835-46.279 4.997-45.503 5.151-45.496 3.084-45.511 1.017-45.503-1.05M-45.503 6.804C-46.278 6.635-47.057 6.456-47.828 6.267-47.829 7.069-47.827 7.871-47.828 8.673-47.059 8.888-46.277 9.092-45.503 9.285-45.501 8.458-45.506 7.631-45.503 6.804M-32.165-1.793C-32.154-4.852-32.176-7.911-32.165-10.971H-30.576C-30.58-9.432-30.572-7.894-30.576-6.357-29.071-6.335-27.564-6.322-26.059-6.317-26.06-5.697-26.06-5.076-26.06-4.455-27.567-4.463-29.07-4.481-30.576-4.511-30.579-3.588-30.573-2.665-30.576-1.743-29.33-1.707-28.096-1.683-26.849-1.67-25.98-1.661-25.275-.826-25.275 .202-27.049 .197-28.822 .163-30.593 .103-31.463 .072-32.169-.781-32.165-1.793M-23.701-1.661C-23.703-4.144-23.7-6.626-23.701-9.109-23.702-10.137-23.003-10.971-22.137-10.971-20.244-10.971-18.35-10.971-16.456-10.971-16.454-10.361-16.452-9.751-16.45-9.141-18.344-9.126-20.24-9.116-22.135-9.111-22.134-8.182-22.133-7.252-22.132-6.322-20.495-6.333-18.856-6.352-17.221-6.382-17.219-5.77-17.223-5.158-17.221-4.546-18.857-4.505-20.492-4.478-22.129-4.463-22.128-3.534-22.127-2.604-22.126-1.675-20.748-1.692-19.371-1.722-17.994-1.766-17.126-1.793-16.419-1.002-16.415 .007-18.316 .097-20.219 .156-22.123 .184-22.994 .197-23.701-.633-23.701-1.661" fill="#ffffff"/>
<path transform="matrix(1,0,0,-1,70.1856,52.662904)" d="M0 0C.003 .02-.013 .039-.034 .039H-12.589C-12.622 .039-12.636-.004-12.609-.023L-.103-9.144C-.091-9.152-.086-9.168-.09-9.182L-4.847-23.915C-4.857-23.947-4.821-23.973-4.794-23.953L6.079-16.021C6.097-16.008 6.098-15.981 6.08-15.967 5.526-15.53-1.322-9.877 0 0" fill="#15a8e2"/>
<path transform="matrix(1,0,0,-1,88.316,70.500308)" d="M0 0C-1.523 1.179-6.772 5.247-8.915 6.967-11.989 9.436-15.257 13.095-15.791 20.102-15.795 20.14-15.847 20.147-15.857 20.11-16.181 19.013-17.747 12.812-13.895 6.924-12.775 5.213-11.027 3.2-8.81 1.616-3.742-2.007 1.482-5.609 2.195-6.099 2.221-6.118 2.257-6.092 2.247-6.06L.583-.834C.477-.503 .275-.213 0 0" fill="#ffffff"/>
<path transform="matrix(1,0,0,-1,98.3093,52.62401)" d="M0 0H-13.304C-13.327 0-13.343-.022-13.337-.044L-10.965-7.954C-10.958-7.977-10.931-7.986-10.912-7.972L.02-.062C.047-.042 .033 0 0 0" fill="#15a8e2"/>
<path transform="matrix(1,0,0,-1,79.7731,60.848207)" d="M0 0C-.186 .7-1.248 4.909-1.012 9.159-1.01 9.197-.955 9.201-.945 9.165 .591 3.727 1.996-.374 2.458-1.616 2.572-1.923 2.772-2.188 3.035-2.382L7.354-5.566C7.38-5.585 7.416-5.559 7.406-5.528L3.084 8.224C.464 17.22 .977 22.181 1.086 22.977 1.09 23.01 1.047 23.028 1.025 23.003-1.464 20.159-2.306 15.167-2.433 14.329-2.438 14.295-2.487 14.291-2.498 14.323-2.883 15.517-3.032 16.622-3.149 17.842-3.152 17.875-3.198 17.879-3.212 17.849-3.987 16.239-5.125 12.589-5.082 9.906-4.984 3.728-.667 .483-.053-.035-.028-.057 .008-.032 0 0" fill="#e12219"/>
<path transform="matrix(1,0,0,-1,71.0861,108.5968)" d="M0 0C.02-.09 .06-.2 .06-.35 .06-.49-.659-5.084-.659-5.084-.769-5.763-.879-5.913-.989-6.052H-.16C.03-6.052 .05-5.983 .08-5.793L1.029 .19ZM2.059-6.023C2.088-6.272 2.188-6.412 2.947-6.412 5.724-6.412 6.173-2.387 6.173-1.698 6.173-.929 5.924 .19 4.565 .19 3.177 .19 2.578-1.158 2.578-2.167 2.578-3.266 3.187-3.975 4.076-3.975 4.535-3.975 4.785-3.735 4.955-3.586 4.645-4.784 4.006-5.723 2.887-5.723 2.698-5.723 2.368-5.703 1.989-5.533ZM4.595-.499C5.115-.499 5.374-.999 5.374-1.638 5.374-2.357 5.045-3.346 4.236-3.346 3.906-3.346 3.407-3.126 3.407-2.247 3.407-1.768 3.637-.499 4.595-.499M7.44-.719C7.69-.589 7.779-.579 8.309-.579H9.937C9.367-1.368 8.648-2.467 8.368-2.966 7.54-4.445 7.45-5.573 7.45-5.773 7.45-6.102 7.579-6.142 7.829-6.222L8.428-6.422C8.409-6.172 8.399-6.042 8.399-5.873 8.399-4.315 9.158-2.996 11.165 .11H7.979C7.779 .11 7.709 .09 7.649-.09ZM14.758 .16C14.598 .19 14.548 .19 14.518 .19 14.258 .19 13.599-.15 13.219-.43 11.891-1.418 11.212-2.986 11.212-4.145 11.212-4.954 11.522-6.142 12.87-6.142 14.288-6.142 14.918-4.814 14.918-3.735 14.918-2.467 14.168-2.008 13.469-2.008 13.12-2.008 12.88-2.127 12.66-2.227 13.549-.909 14.168-.469 15.347 .04ZM13.2-2.627C13.899-2.627 14.059-3.216 14.059-3.765 14.059-4.505 13.649-5.453 12.9-5.453 12.461-5.453 12.041-5.114 12.041-4.275 12.041-3.396 12.44-2.627 13.2-2.627" fill="#ffffff"/>
</g>
</g>
</g>
</svg>
