<svg xmlns="http://www.w3.org/2000/svg" xmlns:xlink="http://www.w3.org/1999/xlink" version="1.1" width="155.906pt" height="155.906pt" viewBox="0 0 155.906 155.906">
<defs>
<clipPath id="clip_174">
<path transform="matrix(1,0,0,-1,0,155.906)" d="M0 155.906H155.906V0H0Z"/>
</clipPath>
</defs>
<g>
<g id="layer_1" data-name="bg orange">
</g>
<g id="layer_1" data-name="BOXES">
</g>
<g id="layer_1" data-name="LOGOS">
<path transform="matrix(1,0,0,-1,59.5658,116.782909)" d="M0 0H3.969V-1.458H-1.855V10.108H0Z" fill="#4d4d4d"/>
<g clip-path="url(#clip_174)">
<path transform="matrix(1,0,0,-1,73.0925,115.4725)" d="M0 0C.737 .721 1.106 1.731 1.106 3.031 1.106 4.331 .737 5.341 0 6.062-.738 6.783-1.795 7.143-3.172 7.143H-5.011V-1.081H-3.172C-1.795-1.081-.738-.721 0 0M2.285-.025C1.814-.893 1.125-1.567 .219-2.048-.686-2.529-1.768-2.769-3.026-2.769H-6.865V8.798H-3.026C-1.768 8.798-.686 8.56 .219 8.085 1.125 7.61 1.814 6.941 2.285 6.078 2.757 5.215 2.993 4.2 2.993 3.031 2.993 1.862 2.757 .844 2.285-.025" fill="#4d4d4d"/>
<path transform="matrix(1,0,0,-1,81.0559,116.782909)" d="M0 0H3.969V-1.458H-.749-1.855V-.374 10.108H0Z" fill="#4d4d4d"/>
<path transform="matrix(1,0,0,-1,96.3557,107.6414)" d="M0 0C.933-.721 1.562-1.698 1.887-2.932H-.081C-.352-2.234-.784-1.679-1.375-1.27-1.966-.86-2.69-.655-3.546-.655-4.23-.655-4.84-.825-5.377-1.163-5.914-1.502-6.337-1.985-6.645-2.613-6.955-3.241-7.109-3.976-7.109-4.817-7.109-5.647-6.955-6.376-6.645-7.004-6.337-7.632-5.914-8.115-5.377-8.454-4.84-8.792-4.23-8.961-3.546-8.961-2.69-8.961-1.966-8.757-1.375-8.347-.784-7.938-.352-7.389-.081-6.701H1.887C1.562-7.935 .933-8.91 0-9.625-.933-10.34-2.104-10.698-3.514-10.698-4.599-10.698-5.559-10.45-6.394-9.953-7.229-9.456-7.874-8.762-8.329-7.872-8.785-6.982-9.013-5.963-9.013-4.817-9.013-3.67-8.785-2.651-8.329-1.761-7.874-.871-7.229-.174-6.394 .328-5.559 .83-4.599 1.082-3.514 1.082-2.104 1.082-.933 .721 0 0" fill="#4d4d4d"/>
<path transform="matrix(1,0,0,-1,62.7124,127.972309)" d="M0 0-.722 2.237-1.443 0ZM.609-1.896H-2.052L-2.447-3.112H-5.075L-2.154 4.928H.733L3.642-3.112H1.004Z" fill="#222222"/>
<path transform="matrix(1,0,0,-1,73.8593,129.95981)" d="M0 0C-.237-.371-.581-.664-1.032-.88-1.483-1.096-2.021-1.204-2.645-1.204-3.599-1.204-4.387-.979-5.007-.528-5.627-.078-5.964 .583-6.016 1.454H-3.355C-3.318 .992-3.114 .761-2.746 .761-2.618 .761-2.515 .795-2.436 .863-2.357 .931-2.318 1.03-2.318 1.158-2.318 1.348-2.413 1.497-2.605 1.607-2.797 1.717-3.107 1.844-3.535 1.988-4.039 2.154-4.458 2.324-4.793 2.499-5.127 2.673-5.419 2.93-5.667 3.271-5.915 3.611-6.039 4.054-6.039 4.599-6.039 5.122-5.905 5.567-5.638 5.934-5.372 6.301-5.007 6.579-4.545 6.768-4.082 6.958-3.562 7.052-2.983 7.052-2.028 7.052-1.269 6.829-.705 6.382-.141 5.936 .167 5.292 .22 4.452H-2.475C-2.513 4.876-2.686 5.088-2.994 5.088-3.099 5.088-3.186 5.055-3.253 4.991-3.321 4.927-3.355 4.83-3.355 4.702-3.355 4.528-3.259 4.385-3.067 4.276-2.876 4.166-2.577 4.039-2.171 3.895-1.66 3.714-1.237 3.534-.902 3.356-.568 3.178-.275 2.917-.023 2.572 .229 2.228 .355 1.787 .355 1.249 .355 .787 .237 .371 0 0" fill="#222222"/>
<path transform="matrix(1,0,0,-1,78.3193,123.04381)" d="M0 0 1.646-5.53 3.281 0H5.943L3.259-8.04H.022L-2.661 0Z" fill="#222222"/>
<path transform="matrix(1,0,0,-1,88.4567,125.042407)" d="M0 0V-.999H2.481V-2.896H0V-4.031H2.819V-6.042H-2.503V1.999H2.819V0Z" fill="#222222"/>
<path transform="matrix(1,0,0,-1,95.8543,129.1761)" d="M0 0H2.413V-1.908H-2.503V6.132H0Z" fill="#222222"/>
<path transform="matrix(1,0,0,-1,74.8266,66.72551)" d="M0 0H-16.043L-19.729 7.46 6.33 41.983 13.702 36.344-6.652 9.281H0Z" fill="#222222"/>
<path transform="matrix(1,0,0,-1,73.8605,100.436908)" d="M0 0-8.329 2.815V27.459H.952V16.545L13.88 33.711H7.218V42.992H23.259L26.948 35.537Z" fill="#222222"/>
</g>
</g>
</g>
</svg>
