<svg xmlns="http://www.w3.org/2000/svg" xmlns:xlink="http://www.w3.org/1999/xlink" version="1.1" width="155.906pt" height="155.906pt" viewBox="0 0 155.906 155.906">
<defs>
<clipPath id="clip_165">
<path transform="matrix(1,0,0,-1,0,155.906)" d="M0 155.906H155.906V0H0Z"/>
</clipPath>
</defs>
<g>
<g id="layer_1" data-name="bg orange">
</g>
<g id="layer_1" data-name="BOXES">
</g>
<g id="layer_1" data-name="LOGOS">
<g clip-path="url(#clip_165)">
<path transform="matrix(1,0,0,-1,87.4335,28.559105)" d="M0 0 .312-.207C3.729-2.469 6.48-2.883 10.667-2.883 12.142-2.883 13.725-2.605 15.243-2.082L15.64-1.944 17.625-4.726 17.421-4.999C10.046-14.797 15.797-25.376 19.867-29.599L20.244-29.99 19.86-30.374C19.326-30.906 18.402-31.868 17.715-32.588L17.483-32.833 17.498-33.169 17.502-33.286C17.505-33.372 17.508-33.461 17.525-33.615L17.532-33.676C17.876-40.212 16.183-45.58 12.498-49.631 8.582-53.935 2.406-56.526-4.892-56.927L-5.173-56.943-5.382-57.134C-7.24-58.825-9.126-60.23-9.147-60.246L-9.476-60.491-9.804-60.247C-9.883-60.188-11.745-58.802-13.58-57.134L-13.788-56.943-14.07-56.927C-21.368-56.526-27.544-53.935-31.46-49.631-35.145-45.579-36.839-40.21-36.493-33.675L-36.488-33.613C-36.471-33.468-36.468-33.388-36.464-33.298L-36.463-33.273V-33.27L-36.46-33.169-36.445-32.832-36.677-32.588C-37.325-31.908-38.275-30.919-38.822-30.374L-39.205-29.99-38.829-29.599C-34.758-25.376-29.009-14.797-36.383-4.999L-36.588-4.726-34.601-1.944-34.205-2.082C-32.687-2.606-31.105-2.883-29.628-2.883-25.442-2.883-22.691-2.469-19.274-.207L-18.961 0-18.654-.213C-15.64-2.306-12.725-3.279-9.481-3.279-6.237-3.279-3.323-2.306-.307-.213Z" fill="#ebbd00"/>
<path transform="matrix(1,0,0,-1,55.4976,52.755006)" d="M0 0C2.31 5.298 3.171 12.102-.715 18.753 .256 18.58 1.275 18.473 2.308 18.473 6.284 18.473 9.415 18.835 12.932 20.822 15.705 19.146 18.811 18.08 22.448 18.076 26.099 18.08 29.205 19.146 31.977 20.822 35.495 18.835 38.626 18.473 42.602 18.473 43.635 18.473 44.654 18.58 45.635 18.769 41.74 12.103 42.599 5.298 44.91 0Z" fill="#ffffff"/>
<path transform="matrix(1,0,0,-1,100.4074,52.754907)" d="M0 0C-2.311 5.298-3.17 12.103 .725 18.769-.256 18.58-1.275 18.473-2.307 18.473-6.284 18.473-9.415 18.835-12.932 20.822-15.705 19.145-18.811 18.08-22.462 18.076-22.497 18.076-22.531 18.078-22.566 18.078V0Z" fill="#ffdd00"/>
<path transform="matrix(1,0,0,-1,95.4618,78.358409)" d="M0 0C4.425 3.235 7.039 8.4 6.655 15.935 6.611 16.364 6.579 16.389 6.545 16.82H0Z" fill="#004a9a"/>
<path transform="matrix(1,0,0,-1,88.4577,81.601207)" d="M0 0C2.634 .712 5.005 1.781 7.005 3.244V20.063H0Z" fill="#a40344"/>
<path transform="matrix(1,0,0,-1,60.4421,78.35731)" d="M0 0C2.001-1.463 4.371-2.532 7.006-3.244V16.819H0Z" fill="#a40344"/>
<path transform="matrix(1,0,0,-1,53.7885,62.423006)" d="M0 0C-.384-7.535 2.23-12.701 6.656-15.936V.885H.11C.076 .454 .045 .429 0 0" fill="#004a9a"/>
<path transform="matrix(1,0,0,-1,77.9699,65.25741)" d="M0 0C1.282 0 2.473-.371 3.486-1.003V3.719H-3.52V-1.024C-2.5-.379-1.295 0 0 0" fill="#a40344"/>
<path transform="matrix(1,0,0,-1,77.9699,78.457309)" d="M0 0C-1.295 0-2.5 .379-3.52 1.024V-4.2C-3.396-4.206-3.274-4.215-3.149-4.221-.822-4.233 1.287-4.246 3.115-4.221 3.24-4.215 3.362-4.206 3.486-4.2V1.003C2.473 .371 1.282 0 0 0" fill="#a40344"/>
<path transform="matrix(1,0,0,-1,81.4542,61.53811)" d="M0 0V-4.721C1.868-5.887 3.115-7.955 3.115-10.32 3.115-12.684 1.868-14.751 0-15.917V-21.119C2.474-20.994 4.829-20.65 7.006-20.063V0Z" fill="#004a9a"/>
<path transform="matrix(1,0,0,-1,71.3708,71.8579)" d="M0 0C0 2.35 1.232 4.407 3.081 5.578V10.32H-3.925V-9.743C-1.749-10.33 .607-10.674 3.081-10.799V-5.576C1.232-4.406 0-2.349 0 0" fill="#004a9a"/>
<path transform="matrix(1,0,0,-1,57.0756,39.941904)" d="M0 0C.47-2.293 .486-4.543 .184-6.683H6.988V-12.813H13.672V-6.683H20.793V0H13.672V6.798C12.873 7.151 12.101 7.558 11.354 8.009 9.861 7.166 8.436 6.617 6.988 6.263V0Z" fill="#dd052b"/>
<path transform="matrix(1,0,0,-1,92.252,52.754907)" d="M0 0V18.982C-.805 19.158-1.601 19.391-2.402 19.7V0Z" fill="#dd052b"/>
<path transform="matrix(1,0,0,-1,82.6448,52.754907)" d="M0 0V18.71C-.773 18.496-1.573 18.333-2.402 18.227V0Z" fill="#dd052b"/>
<path transform="matrix(1,0,0,-1,97.0556,52.754907)" d="M0 0V18.484C-.83 18.5-1.628 18.539-2.402 18.612V0Z" fill="#dd052b"/>
<path transform="matrix(1,0,0,-1,87.4484,52.754907)" d="M0 0V20.807C-.773 20.341-1.572 19.924-2.402 19.563V0Z" fill="#dd052b"/>
<path transform="matrix(1,0,0,-1,104.3373,61.186609)" d="M0 0C.069-.679 .029-.652 .076-1.05 .878-16.117-9.619-23.232-22.305-23.757-24.243-25.569-26.379-27.161-26.379-27.161-26.379-27.161-28.526-25.569-30.465-23.757-43.15-23.232-53.647-16.117-52.845-1.05-52.798-.652-52.838-.679-52.769 0-53.496 .769-54.7 2.025-55.336 2.659-50.785 7.381-45.476 18.183-52.846 27.976L-51.289 30.04C-49.816 29.531-48.178 29.208-46.532 29.208-42.306 29.208-39.421 29.627-35.872 31.977-33.068 30.03-30.027 28.811-26.384 28.811-22.742 28.811-19.701 30.03-16.896 31.977-13.349 29.627-10.464 29.208-6.237 29.208-4.592 29.208-2.954 29.531-1.48 30.04L.076 27.976C-7.293 18.183-1.984 7.381 2.567 2.659 1.931 2.025 .727 .769 0 0M4.451 2.641 3.535 3.593C-.374 7.648-5.902 17.795 1.15 27.168L1.704 27.904-.963 31.64-1.919 31.31C-3.355 30.814-4.848 30.553-6.237 30.553-10.266 30.553-12.905 30.946-16.154 33.097L-16.914 33.601-17.663 33.081C-20.539 31.085-23.31 30.156-26.384 30.156-29.459 30.156-32.231 31.085-35.106 33.081L-35.855 33.601-36.615 33.097C-39.864 30.945-42.504 30.552-46.532 30.552-47.921 30.552-49.415 30.814-50.85 31.31L-51.807 31.64-54.474 27.905-53.92 27.168C-46.867 17.795-52.395 7.648-56.304 3.593L-57.22 2.641-56.285 1.709C-55.783 1.207-54.892 .282-54.155-.493-54.157-.537-54.158-.575-54.16-.613-54.163-.693-54.164-.761-54.18-.891L-54.187-.978C-54.548-7.738-52.785-13.305-48.95-17.521-44.885-21.991-38.531-24.664-31.017-25.076-29.155-26.772-27.265-28.177-27.18-28.24L-26.377-28.836-25.576-28.238C-25.492-28.175-23.612-26.77-21.753-25.076-14.238-24.664-7.885-21.991-3.82-17.521 .016-13.305 1.778-7.739 1.418-.978L1.41-.891C1.395-.76 1.393-.693 1.391-.612 1.389-.575 1.387-.537 1.386-.493 2.123 .282 3.015 1.208 3.516 1.709Z" fill="#1d1e1c"/>
<path transform="matrix(1,0,0,-1,53.9889,62.44381)" d="M0 0C.02 .187 .036 .296 .052 .396 .066 .489 .08 .575 .094 .704H47.834C47.847 .574 47.861 .489 47.875 .395 47.891 .296 47.908 .187 47.927 .01 48.216-5.672 46.805-10.263 43.73-13.635 40.191-17.516 34.437-19.729 27.093-20.033 25.341-20.057 23.33-20.047 21.117-20.035L20.84-20.033C13.491-19.729 7.736-17.516 4.197-13.636 1.123-10.264-.289-5.672 0 0M-.291 .922C-.309 .691-.327 .581-.346 .458-.363 .353-.38 .238-.402 .031-.697-5.763 .75-10.453 3.9-13.908 7.512-17.869 13.364-20.126 20.831-20.436L21.115-20.437C22.357-20.444 23.536-20.45 24.641-20.45 25.507-20.45 26.328-20.446 27.104-20.435 34.563-20.126 40.415-17.869 44.028-13.908 47.177-10.452 48.625-5.763 48.328 .041 48.308 .238 48.29 .353 48.273 .458 48.254 .581 48.237 .691 48.219 .922L48.204 1.108H-.277Z" fill="#1d1e1c"/>
<path transform="matrix(1,0,0,-1,55.1682,34.270509)" d="M0 0C.909-.141 1.794-.212 2.637-.212 6.727-.212 9.786 .169 13.258 2.105 16.223 .332 19.25-.557 22.498-.607V-18.283H.635C2.554-13.74 3.907-6.999 0 0M22.901-.609C26.217-.585 29.298 .303 32.311 2.105 35.783 .169 38.841-.212 42.932-.212 43.798-.212 44.685-.137 45.576 .01 41.665-6.999 43.015-13.741 44.933-18.283H22.901ZM.145-18.403 .022-18.685H45.547L45.424-18.403C43.447-13.868 41.964-6.962 46.138 .183L46.362 .566 45.926 .482C44.919 .288 43.911 .191 42.932 .191 38.868 .191 35.844 .571 32.407 2.514L32.304 2.572 32.203 2.511C29.185 .685 26.102-.204 22.778-.206 19.463-.204 16.384 .685 13.366 2.511L13.265 2.572 13.162 2.514C9.725 .571 6.7 .191 2.637 .191 1.688 .191 .683 .283-.35 .466L-.779 .542-.559 .166C3.607-6.964 2.123-13.868 .145-18.403" fill="#1d1e1c"/>
<path transform="matrix(1,0,0,-1,72.2075,55.374208)" d="M0 0V1.33H-4.507V-4.914H-3.151V-2.339H-1.31V-1.019H-3.151V0Z" fill="#1d1e1c"/>
<path transform="matrix(1,0,0,-1,77.4846,55.294504)" d="M0 0C.492 0 .838-.205 1.059-.627L1.087-.684 2.342-.106 2.312-.045C1.872 .865 1.078 1.346 .017 1.346-1.62 1.346-2.764 .023-2.764-1.872-2.764-3.826-1.689-5.089-.027-5.089 1.057-5.089 1.839-4.613 2.294-3.672L2.322-3.618 1.182-2.942 1.148-2.999C.823-3.542 .515-3.744 .009-3.744-.818-3.744-1.374-2.991-1.374-1.872-1.374-.718-.847 0 0 0" fill="#1d1e1c"/>
<path transform="matrix(1,0,0,-1,85.9615,58.994104)" d="M0 0H-1.557V1.447H0C.549 1.447 .806 1.218 .806 .727 .806 .252 .527 0 0 0M-1.557 3.691H-.07C.536 3.691 .614 3.413 .614 3.172 .614 2.829 .41 2.663-.009 2.663H-1.557ZM1.987 3.268C1.987 4.321 1.237 4.95-.018 4.95H-2.887V-1.294H-.045C1.358-1.294 2.196-.532 2.196 .745 2.196 1.338 1.91 1.822 1.408 2.09 1.777 2.358 1.987 2.781 1.987 3.268" fill="#1d1e1c"/>
<path transform="matrix(1,0,0,-1,73.9305,66.90221)" d="M0 0C-.118-.466-.232-.874-.323-1.288-.649-2.782-.645-5.031 .57-6.138 .153-6.884-.613-7.317-1.552-7.317-1.664-7.317-1.773-7.31-1.881-7.295-2.178-6.562-2.341-5.76-2.341-4.919-2.341-2.934-1.428-1.162 0 0M7.589-1.718C6.481-1.1 5.029-.534 3.98-.97 3.188-.478 3.051 .762 4.051 1.418 7.398 1.391 10.126-1.232 10.323-4.536 9.725-3.392 8.633-2.302 7.589-1.718M7.126-6.201C7.116-5.968 7.062-5.722 6.955-5.464 6.617-4.659 5.454-3.68 3.996-4.688 2.923-3.881 2.989-2.645 3.462-1.895 4.199-.727 5.874-1.192 7.405-2.047 8.646-2.741 9.946-4.191 10.308-5.502 10.246-6.184 10.076-6.834 9.816-7.436 9.385-6.094 7.987-5.898 7.126-6.201M-.138-3.17C-.156-1.929 .196-.84 .474 .349 1.336 .929 2.35 1.3 3.443 1.394 2.711 .596 2.863-.573 3.617-1.175 3.44-1.305 3.28-1.476 3.143-1.693 2.585-2.578 2.505-4.067 3.803-5.014 3.724-5.756 2.734-6.486 2.048-6.398 .579-6.21-.115-4.846-.138-3.17M.871-6.371C1.182-6.575 1.555-6.716 2-6.772 2.88-6.885 4.104-6.011 4.182-5.018 5.392-4.161 6.325-4.939 6.607-5.611 7.162-6.939 5.993-7.897 4.487-8.796 3.322-9.49 1.29-9.823-.032-9.813-.731-9.237-1.305-8.513-1.705-7.691-1.654-7.693-1.603-7.695-1.552-7.695-.508-7.695 .377-7.216 .871-6.371M3.997-11.258C2.687-11.258 1.47-10.859 .459-10.179 1.798-10.118 3.577-9.777 4.681-9.118 5.751-8.481 6.887-7.685 7.094-6.622 7.871-6.234 9.358-6.417 9.548-7.981 8.468-9.934 6.387-11.258 3.997-11.258M3.997-11.664C7.715-11.664 10.74-8.638 10.74-4.919 10.74-1.202 7.715 1.825 3.997 1.825 .278 1.825-2.747-1.202-2.747-4.919-2.747-8.638 .278-11.664 3.997-11.664" fill="#1d1e1c"/>
<path transform="matrix(1,0,0,-1,46.4013,117.730808)" d="M0 0C0 1.874-1.785 2.499-1.785 2.499H-6.277V-2.408H-2.499C-.863-2.408 0-1.487 0 0M-6.277 10.679V5.979H-1.874C-1.874 5.979-.297 6.574-.297 8.42-.297 9.669-.982 10.679-2.737 10.679ZM3.956-.208C3.956-3.836 1.963-6.008-2.618-6.008H-10.204V14.22H-2.886C1.963 14.22 3.659 12.018 3.659 8.687 3.659 5.504 1.309 4.225 1.309 4.225V4.164C1.309 4.164 3.956 2.797 3.956-.208" fill="#ffffff"/>
<path transform="matrix(1,0,0,-1,63.0622,116.0948)" d="M0 0-1.19 4.492C-1.666 6.366-2.261 8.984-2.261 8.984H-3.064C-3.064 8.984-3.659 6.366-4.165 4.492L-5.325-.029C-4.492-.178-3.599-.267-2.707-.267-1.785-.267-.893-.178 0 0M5.622-5.384V-7.644H1.993L.892-3.39C-.297-3.629-1.488-3.747-2.707-3.747-3.897-3.747-5.087-3.629-6.217-3.421L-7.318-7.644H-10.858V-5.384L-5.89 12.584H.654Z" fill="#ffffff"/>
<path transform="matrix(1,0,0,-1,79.8122,112.346408)" d="M0 0C0 0 1.874 .477 1.874 2.648 1.874 4.254 .892 5.176-.744 5.176H-4.492V0ZM1.755-3.242C1.755-3.242 3.748-6.812 5.831-8.954V-11.393H2.737C.208-8.626-2.38-3.659-2.38-3.659H-4.492V-11.393H-8.538V8.835H-.892C3.51 8.835 5.92 6.753 5.92 2.826 5.92-1.785 1.755-3.242 1.755-3.242" fill="#ffffff"/>
<path transform="matrix(1,0,0,-1,92.0113,110.97751)" d="M0 0V-5.295C0-8.061 .833-9.371 3.48-9.371 5.979-9.371 6.217-7.556 6.217-7.556H9.519V-10.71C9.519-10.71 8.091-12.405 4.967-12.851 4.938-15.648 3.331-17.343 3.331-17.343H.684V-15.35C.684-15.35 1.725-14.546 1.755-12.851-2.023-12.315-4.046-9.907-4.046-5.205V-.09C-4.046 5.265-1.398 7.674 3.451 7.674 7.615 7.674 9.519 5.413 9.519 5.413V2.261H6.217C6.217 2.261 5.979 4.075 3.48 4.075 .833 4.075 0 2.767 0 0" fill="#ffffff"/>
<path transform="matrix(1,0,0,-1,114.0858,116.0948)" d="M0 0-1.19 4.492C-1.666 6.366-2.261 8.984-2.261 8.984H-3.064C-3.064 8.984-3.659 6.366-4.165 4.492L-5.325-.029C-4.492-.178-3.599-.267-2.707-.267-1.785-.267-.893-.178 0 0M5.622-5.384V-7.644H1.993L.892-3.39C-.297-3.629-1.488-3.747-2.707-3.747-3.897-3.747-5.087-3.629-6.217-3.421L-7.318-7.644H-10.858V-5.384L-5.89 12.584H.654Z" fill="#ffffff"/>
</g>
</g>
</g>
</svg>
