<svg xmlns="http://www.w3.org/2000/svg" xmlns:xlink="http://www.w3.org/1999/xlink" version="1.1" width="155.906pt" height="155.906pt" viewBox="0 0 155.906 155.906">
<defs>
<clipPath id="clip_167">
<path transform="matrix(1,0,0,-1,0,155.906)" d="M0 155.906H155.906V0H0Z"/>
</clipPath>
</defs>
<g>
<g id="layer_1" data-name="bg orange">
</g>
<g id="layer_1" data-name="BOXES">
</g>
<g id="layer_1" data-name="LOGOS">
<g clip-path="url(#clip_167)">
<path transform="matrix(1,0,0,-1,77.9529,31.686303)" d="M0 0C-19.948 0-36.118-16.176-36.118-36.131-36.118-56.085-19.948-72.261 0-72.261 19.948-72.261 36.118-56.085 36.118-36.131 36.118-16.176 19.948 0 0 0" fill="#0066b1"/>
<path transform="matrix(1,0,0,-1,77.9529,33.492906)" d="M0 0C-18.95 0-34.312-15.367-34.312-34.324-34.312-53.281-18.95-68.648 0-68.648 18.95-68.648 34.312-53.281 34.312-34.324 34.312-15.367 18.95 0 0 0" fill="#ffffff"/>
<path transform="matrix(1,0,0,-1,77.9529,88.230709)" d="M0 0C-11.27 0-20.407 9.139-20.407 20.414-20.407 31.688-11.27 40.828 0 40.828 11.271 40.828 20.406 31.688 20.406 20.414 20.406 9.139 11.271 0 0 0M0 53.112C-18.052 53.112-32.687 38.472-32.687 20.414-32.687 2.355-18.052-12.285 0-12.285 18.052-12.285 32.687 2.355 32.687 20.414 32.687 38.472 18.052 53.112 0 53.112" fill="#db052c"/>
<path transform="matrix(1,0,0,-1,95.8947,62.262407)" d="M0 0C-.857 2.769-2.296 5.197-4.14 7.193V-1.282L.645-8.275C1.04-5.586 .857-2.769 0 0M-4.14-10.983V-1.282L-9.618 6.724V11.282C-10.947 11.939-12.352 12.44-13.808 12.77L-9.661 6.71V-2.991L-4.183-10.996V-18.34C-3.168-17.245-2.292-16.038-1.567-14.745ZM-23.494 12.394C-26.291 11.528-28.741 10.067-30.747 8.195L-26.223 1.583V-8.118L-20.745-16.124V-24.136C-18.032-24.547-15.187-24.369-12.389-23.503-9.592-22.637-7.143-21.176-5.137-19.304L-9.661-12.692V-2.991L-15.139 5.014V13.027C-17.852 13.438-20.697 13.259-23.494 12.394M-15.181-4.7-20.659 3.305V13.006L-15.181 5.001V-4.7L-9.704-12.705V-22.407L-15.182-14.401ZM-20.702-6.409-15.224-14.414V-24.116L-20.702-16.11V-6.409L-26.18 1.596V11.297L-20.702 3.292ZM-26.223-17.819V-8.118L-31.701-.113V7.231C-32.715 6.136-33.592 4.929-34.317 3.635L-31.743-.126V-9.827L-26.266-17.833V-22.391C-24.937-23.048-23.531-23.549-22.076-23.88ZM-35.884-11.109C-35.027-13.878-33.588-16.307-31.743-18.302V-9.827L-36.528-2.834C-36.924-5.523-36.74-8.34-35.884-11.109" fill="#0066b1"/>
<path transform="matrix(1,0,0,-1,56.1008,74.57091)" d="M0 0 .927-1.976-.581-4.828C-.808-5.252-1.004-5.6-1.004-5.6L-.984-5.637C-.984-5.637-.586-5.661-.107-5.702L3.106-5.992 4.257-7.846-2.685-11.904-3.796-10.123-.891-8.426C-.213-8.034 .298-7.757 .298-7.757L.278-7.72C.278-7.72-.073-7.693-.805-7.586L-3.763-7.145-3.783-7.108-2.54-4.388C-2.231-3.715-2.062-3.406-2.062-3.406L-2.082-3.369C-2.082-3.369-2.593-3.646-3.291-4.001L-6.297-5.513-7.184-3.611Z" fill="#ffffff"/>
<path transform="matrix(1,0,0,-1,64.6226,85.94211)" d="M0 0-1.975-1.38-2.008-1.354-1.13 .89ZM-3.202 2.603-1.602 1.181-4.815-2.645C-5.342-3.28-5.316-3.947-4.518-4.576-3.72-5.204-3.065-5.074-2.571-4.412L.393-.39 2.15-1.613-.893-5.734C-2.288-7.626-4.094-7.253-5.657-6.022-7.219-4.791-8.005-3.122-6.494-1.322Z" fill="#ffffff"/>
<path transform="matrix(1,0,0,-1,68.0101,88.2514)" d="M0 0 2.09-.763 3.27-4.798C3.527-5.671 3.63-6.133 3.63-6.133L3.691-6.151C3.691-6.151 3.828-5.552 4.027-4.816L4.884-1.605 6.926-2.089 4.849-9.86 2.686-9.34 1.34-5.122C1.078-4.303 .97-3.784 .97-3.784L.909-3.766C.909-3.766 .73-4.397 .502-5.079L-.595-8.351-2.563-7.625Z" fill="#ffffff"/>
<path transform="matrix(1,0,0,-1,83.6559,95.21141)" d="M0 0C.044-1.906-1.15-3.217-3.429-3.372-5.561-3.516-7.556-2.548-7.671 .562-7.79 3.714-6.046 4.893-3.999 5.032-1.782 5.182-.5 3.943-.28 2.261L-2.433 2.115C-2.631 2.844-3.021 3.274-3.971 3.209-4.857 3.149-5.48 2.333-5.413 .715-5.341-.977-4.639-1.63-3.647-1.562-2.655-1.495-2.221-1.02-2.174-.147Z" fill="#ffffff"/>
<path transform="matrix(1,0,0,-1,84.1335,89.6526)" d="M0 0 1.997 .771 3.129-1.945 5.622-.809 4.316 1.828 6.208 2.83 9.772-4.381 7.881-5.383 6.469-2.515 3.861-3.704 5.099-6.651 3.103-7.422 .005-.01Z" fill="#ffffff"/>
<path transform="matrix(1,0,0,-1,91.6043,85.87781)" d="M0 0 3.849 3.69 5.087 2.473 2.674 .16 3.595-.862 5.932 1.378 7.141 .192 4.728-2.121 5.729-3.243 8.447-.637 9.686-1.853 5.379-5.982Z" fill="#ffffff"/>
<path transform="matrix(1,0,0,-1,96.4151,81.0472)" d="M0 0 1.105 1.931 5.281 2.414C6.184 2.518 6.657 2.543 6.657 2.543L6.685 2.599C6.685 2.599 6.118 2.835 5.427 3.156L2.408 4.545 3.229 6.476 10.535 3.114 9.657 1.069 5.273 .455C4.422 .336 3.892 .316 3.892 .316L3.864 .259C3.864 .259 4.456-.024 5.09-.364L8.128-1.998 7.08-3.816Z" fill="#ffffff"/>
<path transform="matrix(1,0,0,-1,50.4283,54.418809)" d="M0 0 1.613-.639 .325-4.211 1.831-4.709 3.037-1.366 4.611-1.99 3.441-5.234 6.258-6.15 5.652-8.203-2.053-5.691Z" fill="#ffffff"/>
<path transform="matrix(1,0,0,-1,60.2791,49.108705)" d="M0 0C1.39-1.26 1.63-2.987 .24-4.747-1.032-6.357-2.989-7.129-5.521-5.25-8.019-3.396-7.689-1.203-6.365 .473-4.962 2.25-3.173 2.399-1.784 1.41L-3.122-.283C-3.775 .084-4.387 .043-4.997-.729-5.613-1.51-5.472-2.457-4.118-3.473-2.822-4.443-1.81-4.407-1.246-3.694-.643-2.93-.761-2.311-1.351-1.71Z" fill="#ffffff"/>
<path transform="matrix(1,0,0,-1,68.1295,45.857507)" d="M0 0C.615 .284 .783 .525 .522 1.139 .28 1.714-.146 1.728-.76 1.444L-1.797 .964-1.065-.493ZM-1.358 2.939C-.801 3.196-.641 3.457-.866 3.994-1.082 4.511-1.45 4.551-1.988 4.303L-3.188 3.748-2.51 2.406ZM-2.565 5.854C-1.144 6.511 .247 6.653 .86 5.2 1.363 4.01 1.044 3.49 .422 2.969L.445 2.921C1.107 3.076 1.996 3.044 2.561 1.72 3.24 .123 2.199-.801 .779-1.458L-2.227-2.847-5.829 4.345Z" fill="#ffffff"/>
<path transform="matrix(1,0,0,-1,76.6346,42.292108)" d="M0 0-.687 1.566C-.923 2.098-1.102 2.57-1.102 2.57L-1.144 2.567C-1.144 2.567-1.24 2.07-1.382 1.506L-1.791-.154ZM3.559-2.996 1.276-2.991 .622-1.55-2.139-1.788-2.538-3.319-4.787-3.714-2.559 4.697-.072 4.91Z" fill="#ffffff"/>
<path transform="matrix(1,0,0,-1,82.2245,42.927904)" d="M0 0-1.867 5.71 .545 5.252 1.274 2.831C1.412 2.367 1.533 1.876 1.533 1.876L1.574 1.867C1.574 1.867 1.888 2.264 2.205 2.628L3.872 4.529 6.257 3.946 2.191-.476 1.569-3.145-.54-2.687Z" fill="#ffffff"/>
<path transform="matrix(1,0,0,-1,90.0831,39.675104)" d="M0 0 5.061-2.78 4.18-4.275 1.056-2.559 .432-3.785 3.315-5.369 2.454-6.827-.336-5.295-1.022-6.632 2.019-8.302 1.138-9.797-3.646-7.17Z" fill="#ffffff"/>
<path transform="matrix(1,0,0,-1,96.8394,48.74981)" d="M0 0 .83-.889C1.293-1.384 1.681-1.397 2.198-.942 2.706-.496 2.699-.069 2.237 .426L1.363 1.361ZM1.104 4.117 3.559 1.489C4.816 .144 5.116-1.154 3.62-2.465 2.664-3.301 1.968-3.532 1.126-3.204L-.158-6.447-1.674-4.591-.5-1.944-1.2-1.194-3.089-3.076-4.641-1.602Z" fill="#ffffff"/>
<path transform="matrix(1,0,0,-1,99.971,62.60531)" d="M0 0-.734 2.1 1.64 5.571C2.147 6.308 2.444 6.695 2.444 6.695L2.42 6.753C2.42 6.753 1.87 6.479 1.175 6.168L-1.852 4.797-2.771 6.684 4.555 9.998 5.523 7.995 3.114 4.281C2.651 3.574 2.313 3.147 2.313 3.147L2.337 3.088C2.337 3.088 2.938 3.349 3.611 3.606L6.836 4.829 7.521 2.846Z" fill="#ffffff"/>
<path transform="matrix(1,0,0,-1,64.128,114.315)" d="M0 0H-1.729V2.542C-1.729 2.583-1.732 2.657-1.739 2.766-1.746 2.875-1.769 2.983-1.81 3.092-1.851 3.2-1.922 3.298-2.024 3.386-2.125 3.474-2.278 3.519-2.481 3.519-2.712 3.519-2.888 3.474-3.01 3.386-3.132 3.298-3.224 3.183-3.285 3.041-3.346 2.898-3.383 2.739-3.397 2.563-3.41 2.386-3.417 2.217-3.417 2.054-3.417 1.756-3.397 1.485-3.356 1.241-3.315 .997-3.254 .763-3.173 .539-3.092 .315-2.993 .095-2.878-.122-2.763-.339-2.624-.57-2.461-.814-2.326-1.031-2.19-1.241-2.054-1.444-1.919-1.647-1.776-1.858-1.627-2.075-1.424-2.359-1.214-2.671-.997-3.01-.752-3.404-.556-3.766-.407-4.098-.258-4.431-.142-4.739-.061-5.024 .02-5.309 .071-5.573 .092-5.817 .112-6.061 .122-6.285 .122-6.488 .122-6.57 .115-6.746 .102-7.017 .088-7.288 .031-7.59-.071-7.922-.173-8.255-.329-8.587-.539-8.919-.749-9.251-1.058-9.505-1.464-9.681-1.586-9.735-1.749-9.786-1.953-9.834-2.156-9.881-2.414-9.905-2.725-9.905-3.309-9.905-3.766-9.81-4.098-9.62-4.431-9.431-4.671-9.241-4.82-9.051-5.119-8.712-5.295-8.353-5.349-7.973-5.403-7.593-5.438-7.193-5.451-6.773V-4.393H-3.702V-7.017C-3.702-7.37-3.671-7.631-3.61-7.8-3.549-7.97-3.444-8.109-3.295-8.217-3.254-8.244-3.187-8.282-3.092-8.329-2.997-8.377-2.875-8.4-2.725-8.4-2.495-8.4-2.315-8.343-2.186-8.227-2.058-8.112-1.966-7.97-1.912-7.8-1.858-7.631-1.827-7.448-1.82-7.251-1.814-7.055-1.81-6.875-1.81-6.712-1.81-6.197-1.861-5.763-1.963-5.41-2.064-5.058-2.244-4.658-2.502-4.21-2.773-3.736-3.061-3.285-3.366-2.858-3.671-2.431-3.959-1.987-4.23-1.525-4.312-1.403-4.414-1.237-4.536-1.027-4.658-.817-4.776-.57-4.892-.285-5.007 0-5.109 .322-5.197 .681-5.285 1.04-5.329 1.43-5.329 1.851-5.329 2.637-5.19 3.251-4.912 3.692-4.634 4.132-4.346 4.441-4.047 4.617-3.898 4.712-3.692 4.8-3.427 4.881-3.163 4.963-2.827 5.003-2.42 5.003-2.326 5.003-2.173 4.996-1.963 4.983-1.753 4.969-1.532 4.922-1.302 4.841-1.071 4.759-.848 4.624-.63 4.434-.414 4.244-.251 3.973-.142 3.62-.102 3.485-.071 3.342-.051 3.193-.03 3.044-.014 2.827 0 2.542Z" fill="#ffffff"/>
<path transform="matrix(1,0,0,-1,71.3193,109.66321)" d="M0 0-2.412-7.217 .433-14.557H-1.505L-3.67-8.846C-3.739-8.667-3.801-8.488-3.856-8.309-3.911-8.131-3.973-7.945-4.041-7.753V-14.557H-5.918V0H-4.021V-5.773-6.33C-4.021-6.495-4.027-6.667-4.041-6.845-3.986-6.639-3.931-6.43-3.876-6.217-3.822-6.004-3.76-5.787-3.691-5.567L-1.959 0Z" fill="#ffffff"/>
<path transform="matrix(1,0,0,-1,77.6075,109.66321)" d="M0 0V-1.814H-2.866V-6.083H-.309V-7.897H-2.845V-12.722H0V-14.557H-4.804V0Z" fill="#ffffff"/>
<path transform="matrix(1,0,0,-1,84.8756,109.66321)" d="M0 0V-1.732H-2.268V-14.557H-4.227V-1.732H-6.433V0Z" fill="#ffffff"/>
<path transform="matrix(1,0,0,-1,102.2465,122.42631)" d="M0 0H3.175V-1.794H-1.918V12.763H0Z" fill="#ffffff"/>
<path transform="matrix(1,0,0,-1,108.4525,122.42631)" d="M0 0H3.175V-1.794H-1.918V12.763H0Z" fill="#ffffff"/>
<path transform="matrix(1,0,0,-1,48.1481,119.5139)" d="M0 0C.006-.433 .006-.866-.009-1.297-.022-1.678 .006-2.102-.145-2.46-.296-2.817-.565-2.907-.929-2.918-1.007-2.92-1.998-2.934-1.998-2.907-1.998-1.22-1.998 .478-1.998 2.165-1.624 2.164-1.251 2.163-.878 2.161-.568 2.16-.28 2.108-.134 1.799-.04 1.598-.032 1.368-.026 1.146-.016 .767-.005 .384 0 0M-1.973 8.118C-1.747 8.118-1.51 8.121-1.284 8.122-1.151 8.123-1.028 8.122-.896 8.119-.763 8.117-.626 8.113-.501 8.06-.114 7.895-.039 7.386-.045 7.017-.051 6.696-.045 6.448-.045 6.255V5.625 4.863C-.045 4.542-.083 4.145-.329 3.908-.482 3.761-.662 3.762-.859 3.762H-1.299-1.325-1.973ZM.091 3.012C.513 3.038 1.771 3.242 1.771 4.741V5.94 6.932 8.132C1.771 9.932-.045 9.864-.045 9.864H-1.973-3.87V3.008H-3.864V-4.706H-1.967-.146C-.146-4.706 1.778-4.783 1.778-2.755V-1.404-.287 1.064C1.778 2.761 .506 2.984 .091 3.012" fill="#ffffff"/>
<path transform="matrix(1,0,0,-1,89.7152,119.5139)" d="M0 0C.006-.433 .006-.866-.009-1.297-.022-1.678 .006-2.102-.145-2.46-.296-2.817-.565-2.907-.929-2.918-1.007-2.92-1.998-2.934-1.998-2.907-1.998-1.22-1.998 .478-1.998 2.165-1.624 2.164-1.251 2.163-.878 2.161-.568 2.16-.28 2.108-.134 1.799-.04 1.598-.032 1.368-.026 1.146-.016 .767-.005 .384 0 0M-1.973 8.118C-1.747 8.118-1.51 8.121-1.284 8.122-1.151 8.123-1.028 8.122-.896 8.119-.763 8.117-.626 8.113-.501 8.06-.114 7.895-.039 7.386-.045 7.017-.051 6.696-.045 6.448-.045 6.255V5.625 4.863C-.045 4.542-.083 4.145-.329 3.908-.482 3.761-.662 3.762-.859 3.762H-1.299-1.325-1.973ZM.091 3.012C.513 3.038 1.771 3.242 1.771 4.741V5.94 6.932 8.132C1.771 9.932-.045 9.864-.045 9.864H-1.973-3.87V3.008H-3.864V-4.706H-1.967-.146C-.146-4.706 1.778-4.783 1.778-2.755V-1.404-.287 1.064C1.778 2.761 .506 2.984 .091 3.012" fill="#ffffff"/>
<path transform="matrix(1,0,0,-1,54.2301,113.26231)" d="M0 0-.184-1.479-.803-6.545H.929L0 0M3.424-10.958H1.548L1.177-8.277H-1.009L-1.339-10.958H-3.215L-1.153 3.599H1.177Z" fill="#ffffff"/>
<path transform="matrix(1,0,0,-1,95.7382,113.26231)" d="M0 0-.184-1.479-.803-6.545H.929L0 0M3.424-10.958H1.548L1.177-8.277H-1.009L-1.339-10.958H-3.215L-1.153 3.599H1.177Z" fill="#ffffff"/>
</g>
</g>
</g>
</svg>
