<svg xmlns="http://www.w3.org/2000/svg" xmlns:xlink="http://www.w3.org/1999/xlink" version="1.1" width="155.906pt" height="155.906pt" viewBox="0 0 155.906 155.906">
<defs>
<clipPath id="clip_161">
<path transform="matrix(1,0,0,-1,0,155.906)" d="M0 155.906H155.906V0H0Z"/>
</clipPath>
</defs>
<g>
<g id="layer_1" data-name="bg orange">
</g>
<g id="layer_1" data-name="BOXES">
</g>
<g id="layer_1" data-name="LOGOS">
<g clip-path="url(#clip_161)">
<path transform="matrix(1,0,0,-1,38.3204,44.433107)" d="M0 0V-14.165C0-21.508 1.752-59.324 35.877-85.215L39.288-87.781 39.664-88.046 40.323-87.532 43.388-85.215C77.543-59.324 79.265-21.508 79.265-14.165V0Z" fill="#ffffff"/>
<path transform="matrix(1,0,0,-1,39.4465,45.685708)" d="M0 0V-13.086C0-20.301 1.66-57.619 35.408-83.21 35.408-83.21 35.376-83.132 35.376-83.102 35.721-83.445 36.44-83.993 37.881-85.074L38.538-85.527 41.604-83.21C75.323-57.619 77.044-20.301 77.044-13.086V0Z" fill="#d5b16a"/>
<path transform="matrix(1,0,0,-1,42.2317,48.503107)" d="M0 0V-10.269C0-17.25 1.66-53.376 34.344-78.139L35.753-79.203 37.13-78.139C69.779-53.376 71.472-17.25 71.443-10.269V0Z" fill="#ffffff"/>
<path transform="matrix(1,0,0,-1,45.8031,52.02501)" d="M0 0H64.332V-.016L8.39-41.856C.594-25.578 0-10.847 0-6.747ZM-2.506 2.473V-6.747C-2.506-13.665-.877-49.305 31.429-73.788L32.182-74.351 32.901-73.788C65.177-49.305 66.836-13.665 66.836-6.747V2.473Z" fill="#e00819"/>
<path transform="matrix(1,0,0,-1,70.5329,70.1834)" d="M0 0C-1.564-.233-16.216-2.378-16.216-2.378-16.216-2.378-5.635-12.678-4.444-13.82-4.758-15.385-7.262-29.959-7.262-29.959-7.262-29.959 5.855-23.087 7.263-22.336 8.703-23.087 21.758-29.959 21.758-29.959 21.758-29.959 19.284-15.385 19.001-13.82 20.16-12.678 30.743-2.378 30.743-2.378 30.743-2.378 16.123-.233 14.526 0 13.806 1.426 7.263 14.7 7.263 14.7 7.263 14.7 .722 1.426 0 0" fill="#d5b16a"/>
<path transform="matrix(1,0,0,-1,71.6925,71.81061)" d="M0 0C-.971-.139-13.587-1.957-13.587-1.957-13.587-1.957-4.445-10.895-3.726-11.551-3.913-12.585-6.043-25.123-6.043-25.123-6.043-25.123 5.197-19.174 6.103-18.736 7.012-19.174 18.282-25.123 18.282-25.123 18.282-25.123 16.122-12.585 15.963-11.551 16.685-10.895 25.794-1.957 25.794-1.957 25.794-1.957 13.179-.139 12.208 0 11.739 .924 6.103 12.335 6.103 12.335 6.103 12.335 .468 .924 0 0" fill="#ffffff"/>
<path transform="matrix(1,0,0,-1,77.7959,61.838106)" d="M0 0 5.385-10.913 17.437-12.695 8.736-21.165 10.77-33.186 0-27.503-10.769-33.186-8.734-21.165-17.406-12.695-5.352-10.913Z" fill="#e00819"/>
<path transform="matrix(1,0,0,-1,64.2401,58.380006)" d="M0 0 4.165 4.603H1.441L-3.6-1.095V4.603H-5.948V-7.373H-3.6V-3.977L-1.564-1.753 1.817-7.373H4.541ZM-6.291 4.603H-9.046L-14.085-1.095V4.603H-16.435V-7.373H-14.085V-3.977L-12.051-1.753-8.672-7.373H-5.948L-10.487 0Z" fill="#e00819"/>
<path transform="matrix(1,0,0,-1,65.655,23.427002)" d="M0 0 2.284-6.871 9.547-6.919 3.691-11.207 5.885-18.127 0-13.901-5.885-18.127-3.694-11.207-9.549-6.919-2.254-6.871Z" fill="#d5b16a" fill-rule="evenodd"/>
<path transform="matrix(1,0,0,-1,89.2504,23.427002)" d="M0 0 2.284-6.871 9.547-6.919 3.691-11.207 5.885-18.127 0-13.901-5.885-18.127-3.694-11.207-9.549-6.919-2.254-6.871Z" fill="#d5b16a" fill-rule="evenodd"/>
</g>
</g>
</g>
</svg>
