<svg xmlns="http://www.w3.org/2000/svg" xmlns:xlink="http://www.w3.org/1999/xlink" version="1.1" width="155.906pt" height="155.906pt" viewBox="0 0 155.906 155.906">
<defs>
<clipPath id="clip_163">
<path transform="matrix(1,0,0,-1,0,155.906)" d="M0 155.906H155.906V0H0Z"/>
</clipPath>
</defs>
<g>
<g id="layer_1" data-name="bg orange">
</g>
<g id="layer_1" data-name="BOXES">
</g>
<g id="layer_1" data-name="LOGOS">
<g clip-path="url(#clip_163)">
<path transform="matrix(1,0,0,-1,102.6866,48.506006)" d="M0 0C0-13.66-11.074-24.734-24.734-24.734-38.394-24.734-49.468-13.66-49.468 0-49.468 13.66-38.394 24.734-24.734 24.734-11.074 24.734 0 13.66 0 0" fill="#e02422"/>
<path transform="matrix(1,0,0,-1,77.9528,24.153809)" d="M0 0C-13.428 0-24.352-10.924-24.352-24.352-24.352-37.78-13.428-48.704 0-48.704 13.428-48.704 24.352-37.78 24.352-24.352 24.352-10.924 13.428 0 0 0M0-49.468C-13.849-49.468-25.116-38.201-25.116-24.352-25.116-10.503-13.849 .763 0 .763 13.849 .763 25.116-10.503 25.116-24.352 25.116-38.201 13.849-49.468 0-49.468" fill="#ffffff"/>
<path transform="matrix(1,0,0,-1,77.8861,32.229509)" d="M0 0C-9.005 0-16.305-7.3-16.305-16.305-16.305-25.31-9.005-32.61 0-32.61 9.005-32.61 16.305-25.31 16.305-16.305 16.305-7.3 9.005 0 0 0" fill="#ffffff"/>
<path transform="matrix(1,0,0,-1,77.8861,32.526407)" d="M0 0C-8.827 0-16.008-7.181-16.008-16.008-16.008-24.835-8.827-32.016 0-32.016 8.827-32.016 16.008-24.835 16.008-16.008 16.008-7.181 8.827 0 0 0M0-32.61C-9.154-32.61-16.602-25.162-16.602-16.008-16.602-6.854-9.154 .594 0 .594 9.154 .594 16.602-6.854 16.602-16.008 16.602-25.162 9.154-32.61 0-32.61" fill="#e02422"/>
<path transform="matrix(1,0,0,-1,78.4054,32.400407)" d="M0 0-.563-17.841-1.056 0Z" fill="#e02422"/>
<path transform="matrix(1,0,0,-1,77.3933,32.44291)" d="M0 0 .452-16.364 .968 0ZM.492-17.8H.407L-.087 .085H1.056Z" fill="#e02422"/>
<path transform="matrix(1,0,0,-1,90.1411,59.663805)" d="M0 0C.765 1.118 .73 2.651 .404 3.989-.349 7.078-2.396 9.588-4.295 12.059-6.193 14.529-8.072 17.257-8.372 20.433-8.461 21.383-8.393 22.386-7.948 23.215-7.198 24.611-5.549 25.191-4.039 25.164L-2.003 23.652C-3.505 23.827-5.194 23.458-6.054 22.248-6.565 21.53-6.714 20.613-6.702 19.73-6.662 16.778-5.013 14.08-3.324 11.617-1.635 9.155 .198 6.641 .697 3.723 .913 2.459 .823 1.044-.03 .092" fill="#e02422"/>
<path transform="matrix(1,0,0,-1,86.0048,34.541307)" d="M0 0C-1.343 0-3.01-.504-3.775-1.927-4.158-2.641-4.298-3.569-4.193-4.685-3.889-7.902-1.934-10.684-.125-13.038-.004-13.194 .116-13.351 .238-13.508 2.025-15.825 3.874-18.221 4.581-21.123 4.742-21.784 4.914-22.853 4.697-23.882 4.978-22.983 4.895-22.014 4.792-21.407 4.326-18.683 2.686-16.302 1.1-13.999 .992-13.842 .884-13.685 .777-13.529-.839-11.172-2.567-8.406-2.608-5.393-2.622-4.338-2.402-3.482-1.952-2.85-1.067-1.605 .631-1.291 1.984-1.413L.083-.001C.056 0 .028 0 0 0M4.171-25.147 4.101-25.099C4.112-25.083 4.122-25.068 4.132-25.053L4.075-25.002C4.196-24.866 4.301-24.723 4.391-24.573 4.91-23.375 4.696-21.95 4.499-21.143 3.795-18.259 1.953-15.87 .17-13.56 .049-13.403-.072-13.246-.192-13.09-2.008-10.726-3.972-7.933-4.278-4.694-4.384-3.56-4.241-2.615-3.849-1.887-3.048-.395-1.284 .113 .098 .084H.112L2.286-1.531 2.128-1.513C.778-1.354-.986-1.636-1.883-2.899-2.322-3.516-2.537-4.355-2.523-5.392-2.483-8.381-.762-11.135 .847-13.481 .954-13.637 1.062-13.794 1.17-13.951 2.761-16.261 4.407-18.651 4.875-21.392 5.008-22.171 5.107-23.537 4.466-24.612 4.386-24.796 4.288-24.975 4.171-25.147" fill="#e02422"/>
<path transform="matrix(1,0,0,-1,65.6028,59.52041)" d="M0 0C-.765 1.102-.73 2.615-.404 3.935 .349 6.982 2.396 9.459 4.295 11.895 6.193 14.332 8.072 17.024 8.372 20.156 8.461 21.093 8.393 22.083 7.948 22.901 7.198 24.278 5.549 24.85 4.039 24.823L2.003 23.331C3.505 23.504 5.194 23.14 6.054 21.947 6.565 21.238 6.714 20.334 6.702 19.463 6.662 16.551 5.013 13.889 3.324 11.46 1.635 9.031-.198 6.551-.697 3.672-.913 2.425-.823 1.03 .03 .091" fill="#e02422"/>
<path transform="matrix(1,0,0,-1,68.2995,36.107309)" d="M0 0C1.237 0 2.622-.373 3.392-1.442 3.841-2.066 4.062-2.91 4.048-3.951 4.007-6.923 2.279-9.652 .662-11.977 .555-12.132 .447-12.286 .34-12.44-1.247-14.712-2.887-17.061-3.352-19.748-3.456-20.346-3.538-21.301-3.258-22.188-3.475-21.173-3.303-20.119-3.142-19.468-2.434-16.605-.585-14.241 1.203-11.955 1.324-11.8 1.444-11.646 1.564-11.492 3.374-9.169 5.329-6.426 5.633-3.253 5.738-2.151 5.597-1.236 5.214-.533 4.45 .872 2.782 1.368 1.439 1.368 1.411 1.368 1.384 1.368 1.356 1.368L-.543-.024C-.367-.008-.185 0 0 0M-2.732-23.437C-2.849-23.268-2.946-23.091-3.027-22.909-3.667-21.849-3.569-20.501-3.436-19.733-2.967-17.028-1.321-14.671 .27-12.392 .378-12.237 .486-12.083 .593-11.929 2.202-9.614 3.922-6.898 3.963-3.95 3.977-2.927 3.761-2.1 3.323-1.491 2.425-.246 .662 .032-.689-.124L-.848-.143 1.328 1.452H1.341C2.727 1.474 4.488 .979 5.289-.492 5.68-1.211 5.824-2.143 5.717-3.261 5.411-6.457 3.448-9.212 1.631-11.544 1.511-11.698 1.39-11.852 1.269-12.007-.513-14.286-2.356-16.643-3.06-19.488-3.256-20.284-3.47-21.689-2.951-22.87-2.862-23.018-2.757-23.16-2.636-23.294L-2.692-23.345C-2.682-23.359-2.672-23.374-2.662-23.389Z" fill="#e02422"/>
<path transform="matrix(1,0,0,-1,61.794,47.039209)" d="M0 0V.974C8.929 9.734 23.38 9.734 32.309 .974V0C23.38 8.76 8.929 8.76 0 0" fill="#e02422"/>
<path transform="matrix(1,0,0,-1,77.9487,40.31611)" d="M0 0C5.768 0 11.536-2.107 15.985-6.324V-5.821C7.155 2.788-7.155 2.788-15.985-5.821V-6.324C-11.536-2.107-5.768 0 0 0M16.324-7.127 16.036-6.844C7.194 1.83-7.194 1.83-16.036-6.844L-16.324-7.127V-5.678L-16.273-5.628C-7.3 3.175 7.3 3.175 16.273-5.628L16.324-5.678Z" fill="#e02422"/>
<path transform="matrix(1,0,0,-1,0,155.906)" d="M66.557 98.985H66.979V95.232H66.557Z" fill="#e02422"/>
<path transform="matrix(1,0,0,-1,0,155.906)" d="M88.744 98.941H89.166V95.233H88.744Z" fill="#e02422"/>
<path transform="matrix(1,0,0,-1,0,155.906)" d="M89.794 98.094H90.215999V96.293H89.794Z" fill="#e02422"/>
<path transform="matrix(1,0,0,-1,0,155.906)" d="M65.523 98.094H65.945V96.33H65.523Z" fill="#e02422"/>
<path transform="matrix(1,0,0,-1,0,155.906)" d="M67.666 102.553H68.14V94.31H67.666Z" fill="#e02422"/>
<path transform="matrix(1,0,0,-1,0,155.906)" d="M68.775 99.844H69.249V93.521H68.775Z" fill="#e02422"/>
<path transform="matrix(1,0,0,-1,0,155.906)" d="M69.884 100.477H70.358V92.843997H69.884Z" fill="#e02422"/>
<path transform="matrix(1,0,0,-1,0,155.906)" d="M70.982 104.502H71.396V92.332H70.982Z" fill="#e02422"/>
<path transform="matrix(1,0,0,-1,0,155.906)" d="M72.101 102.058H72.575V91.843H72.101Z" fill="#e02422"/>
<path transform="matrix(1,0,0,-1,0,155.906)" d="M73.21 102.61H73.684V91.526H73.21Z" fill="#e02422"/>
<path transform="matrix(1,0,0,-1,0,155.906)" d="M75.387 107.058H75.862V91.052H75.387Z" fill="#e02422"/>
<path transform="matrix(1,0,0,-1,0,155.906)" d="M74.229 107.058H74.703998V91.256H74.229Z" fill="#e02422"/>
<path transform="matrix(1,0,0,-1,0,155.906)" d="M76.536 104.397H77.01V90.883H76.536Z" fill="#e02422"/>
<path transform="matrix(1,0,0,-1,0,155.906)" d="M77.645 113.172H78.079998V90.882999H77.645Z" fill="#e02422"/>
<path transform="matrix(1,0,0,-1,0,155.906)" d="M78.753 104.397H79.227V90.883H78.753Z" fill="#e02422"/>
<path transform="matrix(1,0,0,-1,0,155.906)" d="M79.862 107.058H80.336V90.994998H79.862Z" fill="#e02422"/>
<path transform="matrix(1,0,0,-1,0,155.906)" d="M80.971 107.058H81.445V91.218H80.971Z" fill="#e02422"/>
<path transform="matrix(1,0,0,-1,0,155.906)" d="M82.079 102.522H82.553V91.46001H82.079Z" fill="#e02422"/>
<path transform="matrix(1,0,0,-1,0,155.906)" d="M83.188 101.935H83.662V91.835H83.188Z" fill="#e02422"/>
<path transform="matrix(1,0,0,-1,0,155.906)" d="M84.297 104.502H84.770999V92.298H84.297Z" fill="#e02422"/>
<path transform="matrix(1,0,0,-1,0,155.906)" d="M85.406 100.48H85.88V92.832H85.406Z" fill="#e02422"/>
<path transform="matrix(1,0,0,-1,0,155.906)" d="M86.514 99.966H86.988V93.46001H86.514Z" fill="#e02422"/>
<path transform="matrix(1,0,0,-1,0,155.906)" d="M87.623 102.553H88.097V94.267H87.623Z" fill="#e02422"/>
<path transform="matrix(1,0,0,-1,66.1972,34.092309)" d="M0 0C.122-.169 .241-.273 .357-.312 .473-.351 .609-.313 .766-.2 .923-.087 1.001 .031 1.001 .153 1 .275 .939 .421 .817 .59L-.819 2.855C-.941 3.025-1.06 3.128-1.176 3.167-1.292 3.206-1.428 3.169-1.585 3.055-1.742 2.942-1.82 2.825-1.82 2.702-1.82 2.58-1.758 2.434-1.636 2.265ZM-2.417 1.73C-2.53 1.886-2.614 2.052-2.668 2.227-2.721 2.401-2.737 2.575-2.715 2.748-2.692 2.921-2.629 3.091-2.526 3.257-2.423 3.422-2.27 3.578-2.068 3.724-1.866 3.87-1.67 3.966-1.48 4.012-1.29 4.058-1.11 4.064-.938 4.031-.767 3.998-.607 3.928-.458 3.822-.309 3.716-.178 3.585-.065 3.428L1.598 1.126C1.711 .969 1.795 .803 1.849 .629 1.902 .454 1.918 .28 1.896 .107 1.873-.066 1.81-.236 1.707-.401 1.604-.567 1.451-.723 1.249-.869 1.047-1.015 .851-1.111 .661-1.157 .471-1.203 .291-1.209 .119-1.176-.052-1.143-.212-1.073-.361-.967-.51-.861-.641-.73-.754-.573Z" fill="#ffffff"/>
<path transform="matrix(1,0,0,-1,69.7778,33.412309)" d="M0 0-2.196 5.056-1.327 5.433 .54 1.133 1.905 1.726 2.234 .97Z" fill="#ffffff"/>
<path transform="matrix(1,0,0,-1,73.2208,32.117708)" d="M0 0-1.294 5.358-.374 5.58 .92 .222Z" fill="#ffffff"/>
<path transform="matrix(1,0,0,-1,79.3074,25.955399)" d="M0 0 .123-5.511-.702-5.529-.797-1.224-.813-1.225-1.572-5.549-2.03-5.559-2.98-1.273H-2.996L-2.9-5.578-3.724-5.597-3.847-.086-2.603-.058-1.859-3.264H-1.844L-1.244-.028Z" fill="#ffffff"/>
<path transform="matrix(1,0,0,-1,82.3678,28.932007)" d="M0 0 .356-.086C.505-.122 .633-.139 .74-.139 .847-.139 .94-.114 1.017-.064 1.094-.015 1.158 .06 1.209 .16 1.259 .261 1.303 .39 1.342 .548 1.38 .707 1.399 .842 1.4 .954 1.401 1.067 1.378 1.161 1.331 1.238 1.284 1.315 1.213 1.379 1.118 1.431 1.023 1.482 .902 1.526 .753 1.562L.397 1.648ZM-1.632-2.732-.341 2.627 .98 2.308C1.549 2.171 1.939 1.949 2.151 1.641 2.362 1.334 2.399 .896 2.262 .327 2.193 .04 2.101-.196 1.986-.38 1.87-.565 1.73-.703 1.563-.797 1.397-.89 1.201-.94 .978-.946 .753-.952 .5-.922 .218-.854L-.182-.757-.712-2.954Z" fill="#ffffff"/>
<path transform="matrix(1,0,0,-1,84.9978,32.944704)" d="M0 0 2.304 5.007 3.164 4.612 .86-.396Z" fill="#ffffff"/>
<path transform="matrix(1,0,0,-1,89.1318,32.884904)" d="M0 0 .624-.44 1.682 1.71 1.669 1.719ZM-1.428-1.497-2.177-.969 1.828 2.952 2.789 2.275 .444-2.816-.305-2.288 .261-1.193-.587-.595Z" fill="#ffffff"/>
<path transform="matrix(1,0,0,-1,71.0786,64.95511)" d="M0 0-2.568-4.529-3.245-4.145-1.239-.607-1.252-.6-3.96-3.739-4.337-3.526-3.033 .41-3.046 .417-5.052-3.12-5.729-2.736-3.161 1.793-2.139 1.213-3.088-1.747-3.075-1.754-1.022 .58Z" fill="#ffffff"/>
<path transform="matrix(1,0,0,-1,71.0954,70.419307)" d="M0 0 1.49 4.988 2.347 4.732 .857-.256Z" fill="#ffffff"/>
<path transform="matrix(1,0,0,-1,74.4991,71.2403)" d="M0 0 .557 5.176 1.446 5.081 .972 .679 2.37 .528 2.287-.246Z" fill="#ffffff"/>
<path transform="matrix(1,0,0,-1,79.6913,69.472408)" d="M0 0 .717 .074 .135 2.261 .121 2.26ZM-.087-1.952-.948-2.041-.532 3.236 .573 3.351 2.064-1.728 1.204-1.818 .927-.687-.049-.788Z" fill="#ffffff"/>
<path transform="matrix(1,0,0,-1,84.0509,70.66801)" d="M0 0-1.732 4.909-.95 5.185 1.067 2.739 1.081 2.744 .09 5.552 .851 5.821 2.584 .912 1.849 .653-.307 3.34-.321 3.335 .762 .269Z" fill="#ffffff"/>
<path transform="matrix(1,0,0,-1,89.118,66.97211)" d="M0 0C.109-.164 .217-.267 .325-.308 .433-.349 .563-.319 .715-.218 .868-.117 .946-.009 .95 .106 .955 .222 .902 .361 .793 .526L-.664 2.726C-.773 2.89-.882 2.992-.99 3.033-1.097 3.074-1.228 3.044-1.38 2.944-1.532 2.843-1.61 2.735-1.615 2.619-1.619 2.504-1.567 2.364-1.458 2.2ZM-2.215 1.724C-2.316 1.876-2.389 2.036-2.433 2.203-2.477 2.369-2.485 2.534-2.457 2.697-2.43 2.859-2.364 3.017-2.26 3.169-2.156 3.321-2.006 3.463-1.81 3.593-1.614 3.723-1.425 3.806-1.244 3.842-1.064 3.878-.893 3.877-.732 3.84-.572 3.802-.423 3.73-.287 3.624-.151 3.519-.032 3.39 .069 3.238L1.551 1.002C1.652 .849 1.724 .69 1.768 .523 1.812 .356 1.821 .191 1.793 .029 1.765-.134 1.699-.291 1.596-.443 1.492-.596 1.342-.737 1.146-.867 .949-.997 .76-1.08 .58-1.117 .399-1.153 .228-1.152 .068-1.114-.093-1.076-.241-1.005-.378-.899-.514-.793-.632-.664-.733-.512Z" fill="#ffffff"/>
<path transform="matrix(1,0,0,-1,74.2526,43.502809)" d="M0 0H-.364V.249C-.26 .301-.162 .355-.071 .412 .021 .469 .105 .53 .182 .594H.416V-2.125H0Z" fill="#e02422"/>
<path transform="matrix(1,0,0,-1,76.2845,43.52881)" d="M0 0C0 .171-.072 .256-.215 .256-.359 .256-.431 .171-.431 0V-.446C-.431-.532-.413-.597-.377-.639-.341-.681-.295-.702-.238-.702-.196-.702-.152-.687-.108-.658-.063-.628-.027-.602 0-.58ZM-.412-1.378V-1.516C-.412-1.686-.347-1.772-.215-1.772-.072-1.772 0-1.686 0-1.516V-.888C-.03-.918-.058-.944-.084-.966-.11-.988-.137-1.007-.165-1.022-.194-1.036-.225-1.048-.258-1.055-.292-1.062-.332-1.066-.379-1.066-.446-1.066-.509-1.056-.568-1.036-.628-1.017-.68-.984-.724-.94-.769-.895-.804-.838-.83-.769-.856-.7-.869-.615-.869-.516V-.197C-.869 .088-.819 .295-.717 .425-.615 .555-.448 .62-.215 .62 .017 .62 .184 .561 .286 .444 .388 .326 .438 .14 .438-.115V-1.4C.438-1.656 .388-1.842 .286-1.96 .184-2.077 .017-2.136-.215-2.136-.307-2.138-.389-2.125-.462-2.095-.536-2.065-.598-2.024-.65-1.971-.702-1.917-.742-1.854-.771-1.781-.799-1.708-.814-1.628-.814-1.542V-1.378Z" fill="#e02422"/>
<path transform="matrix(1,0,0,-1,79.2945,44.851205)" d="M0 0V-.182C0-.266 .017-.332 .05-.379 .084-.426 .136-.449 .208-.449 .275-.449 .328-.425 .368-.375 .407-.326 .427-.245 .427-.134V.071C.427 .217 .397 .316 .336 .37 .275 .423 .175 .449 .033 .449V.813C.1 .813 .158 .82 .206 .832 .254 .844 .293 .866 .323 .897 .353 .928 .375 .97 .388 1.023 .402 1.077 .409 1.143 .409 1.222 .409 1.348 .395 1.439 .368 1.495 .34 1.551 .292 1.579 .223 1.579 .158 1.579 .108 1.56 .071 1.521 .033 1.483 .015 1.41 .015 1.304V1.192H-.401V1.319C-.401 1.41-.388 1.494-.36 1.569-.333 1.645-.292 1.711-.238 1.766-.183 1.822-.118 1.865-.041 1.896 .036 1.927 .125 1.943 .227 1.943 .326 1.943 .412 1.924 .487 1.885 .561 1.847 .623 1.796 .674 1.733 .725 1.67 .763 1.597 .787 1.514 .812 1.431 .825 1.345 .825 1.256 .825 1.1 .806 .974 .769 .879 .732 .783 .654 .703 .535 .639 .602 .604 .657 .567 .7 .527 .744 .488 .778 .442 .802 .39 .827 .338 .844 .279 .853 .212 .861 .145 .866 .066 .866-.026 .866-.296 .812-.495 .704-.622 .596-.75 .427-.814 .197-.814 .006-.814-.144-.762-.253-.659-.362-.557-.416-.39-.416-.16V0Z" fill="#e02422"/>
<path transform="matrix(1,0,0,-1,80.966,45.044404)" d="M0 0C0-.171 .072-.256 .215-.256 .359-.256 .431-.171 .431 0V.446C.431 .532 .413 .597 .377 .639 .341 .681 .295 .702 .238 .702 .196 .702 .152 .687 .108 .658 .063 .628 .027 .602 0 .58ZM.412 1.378V1.516C.412 1.687 .347 1.772 .215 1.772 .072 1.772 0 1.687 0 1.516V.888C.03 .918 .058 .944 .084 .966 .11 .988 .137 1.007 .165 1.022 .194 1.036 .225 1.048 .258 1.055 .292 1.062 .332 1.066 .379 1.066 .446 1.066 .509 1.056 .568 1.036 .628 1.017 .68 .984 .724 .94 .769 .895 .804 .838 .83 .769 .856 .7 .869 .615 .869 .516V.197C.869-.088 .818-.295 .717-.425 .615-.555 .448-.62 .215-.62-.017-.62-.185-.562-.286-.444-.388-.326-.438-.14-.438 .115V1.4C-.438 1.656-.388 1.842-.286 1.96-.185 2.077-.017 2.136 .215 2.136 .307 2.138 .389 2.125 .462 2.095 .536 2.065 .598 2.024 .65 1.971 .702 1.917 .742 1.854 .771 1.779 .799 1.705 .814 1.626 .814 1.542V1.378Z" fill="#e02422"/>
<path transform="matrix(1,0,0,-1,44.3475,119.57741)" d="M0 0H16.349C17.286 0 17.96-.486 17.96-1.534 17.96-2.582 17.286-3.07 16.349-3.07H-1.535C-2.772-3.07-3.295-2.283-3.295-1.273V21.792C-3.295 22.801-2.772 23.587-1.535 23.587H16.349C17.286 23.587 17.96 23.1 17.96 22.053 17.96 21.004 17.286 20.517 16.349 20.517H0V11.794H15.639C16.576 11.794 17.248 11.307 17.248 10.259 17.248 9.212 16.576 8.723 15.639 8.723H0Z" fill="#ffffff"/>
<path transform="matrix(1,0,0,-1,72.3991,110.86461)" d="M0 0 4.724 11.326C4.724 11.326 4.785 11.441 4.869 11.441 4.951 11.441 5.014 11.326 5.014 11.326L9.816 0ZM17.178-8.94 7.221 13.261C6.755 14.356 6.062 15.157 4.869 15.139H4.788C3.642 15.122 2.968 14.334 2.511 13.261L-7.445-8.94C-7.58-9.268-7.98-10.101-8.013-10.549-8.078-11.408-7.405-11.983-6.546-12.045-5.65-12.111-5.163-11.622-4.85-10.931L-1.22-2.764-1.215-2.75 11.031-2.764 14.583-10.931C14.897-11.622 15.384-12.111 16.28-12.045 17.138-11.983 17.81-11.408 17.747-10.549 17.713-10.101 17.316-9.268 17.178-8.94" fill="#ffffff"/>
<path transform="matrix(1,0,0,-1,94.1695,122.8833)" d="M0 0-.012-.027H8.568L8.581 0Z" fill="#ffffff"/>
<path transform="matrix(1,0,0,-1,114.7537,95.74271)" d="M0 0H-23.469L-24.552-2.416H-1.069Z" fill="#ffffff"/>
<path transform="matrix(1,0,0,-1,112.9735,99.768009)" d="M0 0H-23.492L-24.618-2.512H-1.111Z" fill="#ffffff"/>
<path transform="matrix(1,0,0,-1,111.1506,103.88881)" d="M0 0H-8.748L-9.837-2.512H-1.111Z" fill="#ffffff"/>
<path transform="matrix(1,0,0,-1,109.3282,108.009609)" d="M0 0H-8.712L-9.801-2.512H-1.111Z" fill="#ffffff"/>
<path transform="matrix(1,0,0,-1,107.5058,112.13051)" d="M0 0H-8.676L-9.764-2.511H-1.111Z" fill="#ffffff"/>
<path transform="matrix(1,0,0,-1,105.6829,116.25151)" d="M0 0H-8.639L-9.727-2.511H-1.111Z" fill="#ffffff"/>
<path transform="matrix(1,0,0,-1,103.8605,120.37181)" d="M0 0H-8.602L-9.691-2.512H-1.111Z" fill="#ffffff"/>
<path transform="matrix(1,0,0,-1,103.9521,129.9871)" d="M0 0 .991 2.877 1.958 0ZM-10.68 1.262H-11.216V4.012H-10.771C-9.984 4.012-9.455 3.505-9.455 2.568-9.455 2.053-9.859 1.262-10.68 1.262M-16.685 0-15.694 2.877-14.727 0ZM11.326 4.012V4.248H7.995V4.012H8.512V-.53L5.407 4.248H3.962V4.012H4.478V-2.078H3.583L1.332 4.536-.992-2.078H-1.854V4.012H-1.336V4.248H-2.702L-4.425-.743-6.231 4.248H-7.571V4.012H-7.055V-2.078H-8.08C-8.37-2.078-8.624-1.819-8.624-1.38V-.419C-8.624 .317-8.863 .933-9.6 1.142-8.959 1.336-8.511 1.95-8.511 2.605-8.511 3.538-9.207 4.248-10.553 4.248H-12.575V4.012H-12.06V-2.078H-13.102L-15.353 4.536-17.678-2.078H-18.136V-2.315H-16.837V-2.078H-17.411L-16.763-.231H-14.652L-14.034-2.078H-14.827V-2.315H-10.417V-2.078H-11.216V1.026H-10.68C-9.898 1.026-9.505 .706-9.505-.054V-.617C-9.505-1.955-8.624-2.315-8.144-2.315H-6.256V-2.078H-6.819V3.315L-4.699-2.384-2.698 3.484V-2.078H-3.215V-2.315H-.152V-2.078H-.726L-.077-.231H2.034L2.652-2.078H1.858V-2.315H5.233V-2.078H4.714V3.675L8.748-2.529V4.012H9.965V-2.078H9.448V-2.315H11.326V-2.078H10.809V4.012Z" fill="#ffffff"/>
<path transform="matrix(1,0,0,-1,64.2259,128.7258)" d="M0 0H-.536V2.75H-.091C.697 2.75 1.225 2.244 1.225 1.307 1.225 .791 .822 0 0 0M3.104 2.75H3.621V-3.34H2.6C2.31-3.34 2.056-3.081 2.056-2.641V-1.681C2.056-.945 1.817-.329 1.08-.119 1.721 .074 2.169 .688 2.169 1.343 2.169 2.276 1.473 2.986 .127 2.986H-1.895V2.75H-1.379V-3.34H-1.895V-3.576H.263V-3.34H-.536V-.236H0C.782-.236 1.175-.556 1.175-1.316V-1.879C1.175-3.217 2.056-3.576 2.537-3.576H4.983V-3.34H4.465V2.75H4.983V2.986H3.104Z" fill="#ffffff"/>
<path transform="matrix(1,0,0,-1,72.3054,132.2323)" d="M0 0C-1.658 0-1.752 2.173-1.752 3.207-1.752 4.233-1.628 6.414 0 6.414 1.625 6.414 1.761 4.232 1.761 3.207 1.761 2.181 1.655 0 0 0M0 6.65C-1.73 6.65-2.85 4.729-2.85 3.207-2.85 1.544-1.637-.227 0-.227 1.636-.227 2.85 1.438 2.85 3.207 2.85 4.731 1.639 6.65 0 6.65" fill="#ffffff"/>
<path transform="matrix(1,0,0,-1,59.226,132.2323)" d="M0 0C-1.658 0-1.752 2.173-1.752 3.207-1.752 4.233-1.628 6.414 0 6.414 1.625 6.414 1.761 4.232 1.761 3.207 1.761 2.181 1.655 0 0 0M0 6.65C-1.731 6.65-2.85 4.729-2.85 3.207-2.85 1.544-1.637-.227 0-.227 1.636-.227 2.85 1.438 2.85 3.207 2.85 4.731 1.639 6.65 0 6.65" fill="#ffffff"/>
<path transform="matrix(1,0,0,-1,0,155.906)" d="M52.351 23.84H51.112005V29.93H52.351ZM53.204 29.93H53.531C54.435 29.93 55.001 29.473 55.001 28.206 55.001 27.06 54.566 26.518 53.531 26.518H53.204ZM53.712 26.282C55.213 26.282 55.954 27.122 55.954 28.206 55.954 29.248 55.308 30.166 53.712 30.166H50.263L48.541 25.176 46.734 30.166H45.394V29.93H45.911V23.84H45.394V23.604H46.709V23.84H46.147V29.234L48.266 23.534 50.267 29.403V23.84H49.75V23.604H53.721V23.84H53.204V26.282Z" fill="#ffffff"/>
<path transform="matrix(1,0,0,-1,44.9843,127.518909)" d="M0 0H-.227C-.227 .937-.475 1.543-1.555 1.543H-2.997V-1.352H-2.593C-1.889-1.352-1.595-.993-1.595-.363H-1.368V-2.577H-1.595C-1.595-1.956-1.889-1.588-2.593-1.588H-2.997V-4.547H-2.004C-.469-4.547-.227-3.8-.227-2.823H0V-4.783H-4.357V-4.547H-3.841V1.543H-4.357V1.779H0Z" fill="#ffffff"/>
<path transform="matrix(1,0,0,-1,81.9215,126.52951)" d="M0 0C.043 .162 .166 .156 .352 .156H.813C.773 .549 .329 .794 .145 .794H-1.683C-1.713 .794-1.73 .772-1.744 .748-1.756 .729-1.966 .423-1.962 .021V0Z" fill="#ffffff"/>
<path transform="matrix(1,0,0,-1,77.6057,125.7384)" d="M0 0H-3.286C-3.295-.044-3.299-.086-3.299-.126-3.299-.566-2.83-.791-2.83-.791H.663Z" fill="#ffffff"/>
<path transform="matrix(1,0,0,-1,78.5717,126.8923)" d="M0 0H-3.286C-3.295-.044-3.299-.086-3.299-.126-3.299-.566-2.83-.791-2.83-.791H.662Z" fill="#ffffff"/>
<path transform="matrix(1,0,0,-1,87.9627,125.7384)" d="M0 0H-3.288L-3.95-.791H-.456C-.456-.791 .013-.566 .013-.126 .013-.086 .009-.044 0 0" fill="#ffffff"/>
<path transform="matrix(1,0,0,-1,83.7102,126.8923)" d="M0 0-.664-.791H2.83C2.83-.791 3.299-.566 3.299-.126 3.299-.086 3.295-.044 3.287 0Z" fill="#ffffff"/>
<path transform="matrix(1,0,0,-1,77.2163,129.19861)" d="M0 0C-.008-.044-.012-.086-.012-.126-.012-.566 .456-.791 .456-.791H2.092C2.255-.477 2.542-.219 2.945-.219 3.083-.219 3.173-.267 3.239-.301 3.277-.321 3.308-.337 3.334-.337 3.408-.337 3.443-.308 3.455-.237L3.457-.228H3.547V-.791H4.54C4.662-.445 4.754-.182 4.754-.182L4.765-.152C4.765-.152 4.859-.43 4.982-.791H7.393C7.393-.791 7.862-.566 7.862-.126 7.862-.086 7.858-.044 7.85 0Z" fill="#ffffff"/>
<path transform="matrix(1,0,0,-1,80.1631,129.5195)" d="M0 0C-.32 0-.473-.221-.547-.47H.478C.395-.147 .189 0 0 0" fill="#ffffff"/>
<path transform="matrix(1,0,0,-1,79.549,130.59961)" d="M0 0C0-.213 .016-.394 .049-.543H1V-.252H.793V-.15H1.485V-.252H1.309V-.543H1.802C1.883-.312 1.984-.026 2.08 .248H.007C0 .148 0 .06 0 0" fill="#ffffff"/>
<path transform="matrix(1,0,0,-1,83.6449,131.14311)" d="M0 0C0 0 .468 .225 .468 .665 .468 .705 .465 .747 .456 .791H-1.323C-1.23 .516-1.133 .231-1.054 0Z" fill="#ffffff"/>
<path transform="matrix(1,0,0,-1,79.1802,130.352)" d="M0 0H-.998C-1.007-.044-1.011-.086-1.011-.127-1.011-.566-.542-.791-.542-.791H.1C.017-.611-.027-.418-.027-.248-.027-.169-.017-.085 0 0" fill="#ffffff"/>
<path transform="matrix(1,0,0,-1,80.1212,131.6795)" d="M0 0C.153 0 .27 .072 .343 .173H-.37C-.278 .057-.155 0 0 0" fill="#ffffff"/>
<path transform="matrix(1,0,0,-1,83.0014,131.623)" d="M0 0V-.102H-.853V0H-.587C-.589 .007-.604 .053-.626 .117H-1.664C-1.687 .053-1.703 .007-1.705 0H-1.515V-.102H-1.978V0H-1.819C-1.818 .002-1.803 .045-1.778 .117H-2.143V-.102H-2.245L-2.247-.092C-2.254-.015-2.292 .034-2.343 .034-2.423 .034-2.474-.001-2.532-.041-2.61-.095-2.698-.155-2.88-.155-3.119-.155-3.321-.046-3.478 .117H-3.853C-3.862 .073-3.865 .031-3.865-.01-3.865-.449-3.397-.674-3.397-.674H-.324C-.324-.674 .145-.449 .145-.01 .145 .031 .141 .073 .133 .117H-.287C-.262 .045-.248 .002-.247 0Z" fill="#ffffff"/>
<path transform="matrix(1,0,0,-1,81.7864,126.89011)" d="M0 0H-.038-1.828L-1.86-.791H.225Z" fill="#ffffff"/>
<path transform="matrix(1,0,0,-1,82.7455,128.04451)" d="M0 0-.315-.378-.632 0H-2.835L-2.891-.376-3.209 0H-6.495C-6.504-.044-6.508-.086-6.508-.126-6.508-.565-6.039-.791-6.039-.791H2.831C2.831-.791 3.3-.565 3.3-.126 3.3-.086 3.296-.044 3.287 0Z" fill="#ffffff"/>
<path transform="matrix(1,0,0,-1,81.9891,130.352)" d="M0 0H-.252L-.424-.499H.167Z" fill="#ffffff"/>
<path transform="matrix(1,0,0,-1,82.254,131.14311)" d="M0 0-.064 .192H-.723L-.79 0Z" fill="#ffffff"/>
<path transform="matrix(1,0,0,-1,115.2784,85.73591)" d="M0 0H-74.651C-75.343 0-75.905 .561-75.905 1.253-75.905 1.946-75.343 2.507-74.651 2.507H0C.692 2.507 1.253 1.946 1.253 1.253 1.253 .561 .692 0 0 0" fill="#ffffff"/>
</g>
</g>
</g>
</svg>
