<?xml version="1.0" encoding="UTF-8"?>
<!DOCTYPE svg PUBLIC "-//W3C//DTD SVG 1.1//EN" "http://www.w3.org/Graphics/SVG/1.1/DTD/svg11.dtd">
<svg xmlns="http://www.w3.org/2000/svg" version="1.1" width="117px" height="117px" style="shape-rendering:geometricPrecision; text-rendering:geometricPrecision; image-rendering:optimizeQuality; fill-rule:evenodd; clip-rule:evenodd" xmlns:xlink="http://www.w3.org/1999/xlink">
<g><path style="opacity:0.934" fill="#ebbb0e" d="M 56.5,5.5 C 57.4959,5.41423 58.3292,5.74756 59,6.5C 59.4017,7.8721 59.9017,9.20543 60.5,10.5C 62.9661,11.1235 65.2994,11.9568 67.5,13C 62.4239,14.7935 61.4239,17.7935 64.5,22C 62.0617,22.6821 59.8951,22.1821 58,20.5C 51.994,25.3143 50.494,24.3143 53.5,17.5C 52.027,15.6053 50.3603,13.9387 48.5,12.5C 50.7427,11.5258 53.076,11.1924 55.5,11.5C 55.8333,9.5 56.1667,7.5 56.5,5.5 Z"/></g>
<g><path style="opacity:1" fill="#f1f1f1" d="M 36.5,105.5 C 33.4489,102.445 30.1155,99.7788 26.5,97.5C 24.1639,94.1583 21.8305,90.825 19.5,87.5C 18.6618,87.1583 18.3284,86.4916 18.5,85.5C 10.6229,57.7567 19.9563,38.5901 46.5,28C 73.8332,23.9096 91.3332,35.0763 99,61.5C 101.361,85.2604 91.1942,101.094 68.5,109C 65.0229,109.663 61.5229,110.163 58,110.5C 50.4931,109.934 43.3264,108.268 36.5,105.5 Z"/></g>
<g><path style="opacity:0.551" fill="#413d38" d="M 36.5,105.5 C 43.3264,108.268 50.4931,109.934 58,110.5C 61.5229,110.163 65.0229,109.663 68.5,109C 91.1942,101.094 101.361,85.2604 99,61.5C 91.3332,35.0763 73.8332,23.9096 46.5,28C 19.9563,38.5901 10.6229,57.7567 18.5,85.5C 10.5449,64.5083 15.2116,46.675 32.5,32C 56.1805,19.2151 76.6805,23.0484 94,43.5C 106.692,66.5481 103.192,86.7148 83.5,104C 70.6517,111.91 56.985,113.577 42.5,109C 40.2726,108.059 38.2726,106.892 36.5,105.5 Z"/></g>
<g><path style="opacity:1" fill="#6a6865" d="M 58.5,29.5 C 63.0407,29.3309 63.374,29.9975 59.5,31.5C 61.0534,32.439 62.3867,33.6057 63.5,35C 62.9407,37.1875 61.6073,37.8542 59.5,37C 60.6721,36.5814 61.6721,35.9147 62.5,35C 60.9194,34.2935 59.4194,33.4601 58,32.5C 57.5304,31.4232 57.6971,30.4232 58.5,29.5 Z"/></g>
<g><path style="opacity:1" fill="#888684" d="M 66.5,30.5 C 68.9124,30.244 70.5791,31.244 71.5,33.5C 69.3394,34.7776 67.1728,36.1109 65,37.5C 64.7607,35.0405 65.2607,32.7072 66.5,30.5 Z"/></g>
<g><path style="opacity:1" fill="#666562" d="M 44.5,32.5 C 44.56,31.9569 44.8933,31.6236 45.5,31.5C 46.8928,32.8631 48.5595,33.6964 50.5,34C 48.6667,34.5 47.5,35.6667 47,37.5C 46.6264,35.5087 45.793,33.842 44.5,32.5 Z"/></g>
<g><path style="opacity:1" fill="#656360" d="M 38.5,39.5 C 38.631,40.2389 38.4643,40.9056 38,41.5C 37.0138,40.8288 35.8471,40.8288 34.5,41.5C 35.3591,39.8941 35.5258,38.2275 35,36.5C 36.0391,37.7101 37.2058,38.7101 38.5,39.5 Z"/></g>
<g><path style="opacity:1" fill="#787472" d="M 45.5,42.5 C 45.5,42.8333 45.5,43.1667 45.5,43.5C 45.1583,44.3382 44.4916,44.6716 43.5,44.5C 43.0367,41.7448 41.3701,40.0781 38.5,39.5C 37.9066,36.4041 38.9066,34.0708 41.5,32.5C 42.3081,32.8076 42.9747,33.3076 43.5,34C 40.3713,34.1168 39.2046,35.6168 40,38.5C 42.4541,40.013 44.1207,39.3463 45,36.5C 44.716,38.6792 44.8826,40.6792 45.5,42.5 Z"/></g>
<g><path style="opacity:1" fill="#6a6865" d="M 73.5,33.5 C 78.2624,34.0925 79.5957,36.5925 77.5,41C 71.2016,41.4954 69.8682,38.9954 73.5,33.5 Z"/></g>
<g><path style="opacity:1" fill="#fafaf9" d="M 73.5,35.5 C 78.0726,35.9757 78.5726,37.6423 75,40.5C 72.3894,39.5001 71.8894,37.8334 73.5,35.5 Z"/></g>
<g><path style="opacity:1" fill="#c60a33" d="M 56.5,41.5 C 51.6079,47.93 45.6079,52.93 38.5,56.5C 37.1667,56.5 35.8333,56.5 34.5,56.5C 34.0618,56.5654 33.7284,56.3988 33.5,56C 35.0854,53.9307 36.4187,51.764 37.5,49.5C 40.0892,48.5806 42.0892,46.914 43.5,44.5C 44.4916,44.6716 45.1583,44.3382 45.5,43.5C 49.1007,42.5367 52.7674,41.87 56.5,41.5 Z"/></g>
<g><path style="opacity:1" fill="#c60b33" d="M 58.5,41.5 C 64.6954,42.1022 70.362,44.1022 75.5,47.5C 76.5,49.1667 77.8333,50.5 79.5,51.5C 79.427,53.0269 80.0937,54.0269 81.5,54.5C 80.8166,56.1765 79.4832,56.8432 77.5,56.5C 70.2936,52.7151 63.9603,47.7151 58.5,41.5 Z"/></g>
<g><path style="opacity:1" fill="#868482" d="M 81.5,38.5 C 83.595,38.7598 84.9283,39.9264 85.5,42C 84.3746,43.9626 83.0413,45.796 81.5,47.5C 80.9041,46.2839 80.7374,44.9506 81,43.5C 79.7361,43.3601 78.5695,43.3601 77.5,43.5C 78.8569,41.8144 80.1902,40.1477 81.5,38.5 Z"/></g>
<g><path style="opacity:1" fill="#676562" d="M 34.5,41.5 C 34.5,42.5 34.5,43.5 34.5,44.5C 31.9839,43.3996 30.9839,41.7329 31.5,39.5C 32.2652,40.6119 33.2652,41.2786 34.5,41.5 Z"/></g>
<g><path style="opacity:1" fill="#21336f" d="M 56.5,41.5 C 57.1667,41.5 57.8333,41.5 58.5,41.5C 63.9603,47.7151 70.2936,52.7151 77.5,56.5C 64.5,56.5 51.5,56.5 38.5,56.5C 45.6079,52.93 51.6079,47.93 56.5,41.5 Z"/></g>
<g><path style="opacity:1" fill="#4d2e2f" d="M 75.5,47.5 C 70.362,44.1022 64.6954,42.1022 58.5,41.5C 57.8333,41.5 57.1667,41.5 56.5,41.5C 52.7674,41.87 49.1007,42.5367 45.5,43.5C 45.5,43.1667 45.5,42.8333 45.5,42.5C 55.1975,39.2165 64.5309,40.0499 73.5,45C 74.3805,45.7083 75.0472,46.5416 75.5,47.5 Z"/></g>
<g><path style="opacity:1" fill="#6c6a68" d="M 34.5,44.5 C 35.525,44.8966 35.6917,45.5632 35,46.5C 34,47.8333 33,47.8333 32,46.5C 31.0656,47.8584 30.2323,49.1917 29.5,50.5C 28.5588,48.5336 27.5588,46.5336 26.5,44.5C 29.1907,44.7382 31.8574,44.7382 34.5,44.5 Z"/></g>
<g><path style="opacity:1" fill="#68242a" d="M 43.5,44.5 C 42.0892,46.914 40.0892,48.5806 37.5,49.5C 38.9108,47.086 40.9108,45.4194 43.5,44.5 Z"/></g>
<g><path style="opacity:1" fill="#635655" d="M 75.5,47.5 C 77.8333,47.8333 79.1667,49.1667 79.5,51.5C 77.8333,50.5 76.5,49.1667 75.5,47.5 Z"/></g>
<g><path style="opacity:1" fill="#484642" d="M 29.5,50.5 C 29.6691,55.0407 29.0025,55.374 27.5,51.5C 26.4164,52.6651 25.5831,53.9984 25,55.5C 24.4054,54.1011 24.5721,52.7678 25.5,51.5C 24.3966,51.0024 23.3966,50.6691 22.5,50.5C 24.7713,49.6365 27.1046,49.6365 29.5,50.5 Z"/></g>
<g><path style="opacity:1" fill="#787674" d="M 89.5,48.5 C 91.7349,49.2481 91.4016,50.0814 88.5,51C 89.5,51.3333 90.5,51.6667 91.5,52C 89.3036,53.2225 87.8036,55.0558 87,57.5C 87.0187,55.8925 87.1854,54.2259 87.5,52.5C 86.448,52.6495 85.448,52.4828 84.5,52C 86.2331,50.8111 87.8998,49.6444 89.5,48.5 Z"/></g>
<g><path style="opacity:1" fill="#452b2b" d="M 79.5,51.5 C 80.9063,51.9731 81.573,52.9731 81.5,54.5C 80.0937,54.0269 79.427,53.0269 79.5,51.5 Z"/></g>
<g><path style="opacity:1" fill="#523635" d="M 37.5,49.5 C 36.4187,51.764 35.0854,53.9307 33.5,56C 33.7284,56.3988 34.0618,56.5654 34.5,56.5C 34.5,56.8333 34.5,57.1667 34.5,57.5C 33.6618,57.8417 33.3284,58.5084 33.5,59.5C 32.0689,59.8807 31.2355,60.8807 31,62.5C 30.5012,66.4862 30.3345,70.4862 30.5,74.5C 27.7365,64.7849 30.0698,56.4515 37.5,49.5 Z"/></g>
<g><path style="opacity:1" fill="#5e5f40" d="M 81.5,54.5 C 82.6737,55.5137 83.3404,56.847 83.5,58.5C 82.8333,58.8333 82.1667,59.1667 81.5,59.5C 66.2023,57.5156 50.5357,56.8489 34.5,57.5C 34.5,57.1667 34.5,56.8333 34.5,56.5C 35.8333,56.5 37.1667,56.5 38.5,56.5C 51.5,56.5 64.5,56.5 77.5,56.5C 79.4832,56.8432 80.8166,56.1765 81.5,54.5 Z"/></g>
<g><path style="opacity:1" fill="#575552" d="M 90.5,57.5 C 91.531,56.7515 92.6976,56.0848 94,55.5C 94.1667,55.8333 94.3333,56.1667 94.5,56.5C 93.3112,57.4287 91.9778,57.762 90.5,57.5 Z"/></g>
<g><path style="opacity:1" fill="#f8e71b" d="M 34.5,57.5 C 50.5357,56.8489 66.2023,57.5156 81.5,59.5C 81.4264,63.7945 80.4264,67.7945 78.5,71.5C 75.0184,71.1719 71.6851,71.1719 68.5,71.5C 66.1667,71.5 63.8333,71.5 61.5,71.5C 61.196,68.4781 60.696,65.4781 60,62.5C 58.0875,60.0444 56.4208,60.3778 55,63.5C 54.5026,66.146 54.3359,68.8127 54.5,71.5C 52.1667,71.5 49.8333,71.5 47.5,71.5C 46.1667,70.1667 44.8333,70.1667 43.5,71.5C 41.1667,71.5 38.8333,71.5 36.5,71.5C 34.995,67.6465 33.995,63.6465 33.5,59.5C 33.3284,58.5084 33.6618,57.8417 34.5,57.5 Z"/></g>
<g><path style="opacity:1" fill="#83817f" d="M 19.5,56.5 C 22.2165,56.6785 24.8832,57.1785 27.5,58C 22.9258,58.9351 22.5925,60.4351 26.5,62.5C 21.3015,63.9733 18.9681,61.9733 19.5,56.5 Z"/></g>
<g><path style="opacity:1" fill="#c01733" d="M 33.5,59.5 C 33.995,63.6465 34.995,67.6465 36.5,71.5C 36.3284,72.4916 36.6618,73.1583 37.5,73.5C 40.2665,81.2508 44.5999,87.9175 50.5,93.5C 50.44,94.0431 50.1067,94.3764 49.5,94.5C 45.0993,92.6407 41.0993,90.3074 37.5,87.5C 36.5,87.1667 35.8333,86.5 35.5,85.5C 35.573,83.9731 34.9063,82.9731 33.5,82.5C 32.5115,79.9188 31.5115,77.2521 30.5,74.5C 30.3345,70.4862 30.5012,66.4862 31,62.5C 31.2355,60.8807 32.0689,59.8807 33.5,59.5 Z"/></g>
<g><path style="opacity:1" fill="#c41032" d="M 83.5,58.5 C 83.5,58.8333 83.5,59.1667 83.5,59.5C 86.2383,71.5539 83.2383,81.8872 74.5,90.5C 73.1266,90.3433 71.7932,90.51 70.5,91C 68.8831,93.131 66.8831,94.631 64.5,95.5C 64.1667,95.5 63.8333,95.5 63.5,95.5C 62.8333,95.5 62.5,95.1667 62.5,94.5C 69.7647,88.664 75.098,81.3307 78.5,72.5C 78.5,72.1667 78.5,71.8333 78.5,71.5C 80.4264,67.7945 81.4264,63.7945 81.5,59.5C 82.1667,59.1667 82.8333,58.8333 83.5,58.5 Z"/></g>
<g><path style="opacity:1" fill="#a1a09e" d="M 90.5,57.5 C 89.7659,58.7079 89.4326,60.0413 89.5,61.5C 91.9154,61.3735 94.2487,61.2068 96.5,61C 96.0338,62.2988 96.0338,63.7988 96.5,65.5C 94.5,65.5 92.5,65.5 90.5,65.5C 90.6495,66.552 90.4828,67.552 90,68.5C 89.8029,65.3081 88.9696,62.3081 87.5,59.5C 88.0047,58.0815 89.0047,57.4148 90.5,57.5 Z"/></g>
<g><path style="opacity:1" fill="#585653" d="M 18.5,63.5 C 19.1635,65.0419 19.8302,66.7086 20.5,68.5C 21.2811,67.2713 21.7811,65.938 22,64.5C 22.9086,69.7298 24.0753,69.7298 25.5,64.5C 26.0522,66.0026 26.0522,67.6693 25.5,69.5C 23.1667,69.5 20.8333,69.5 18.5,69.5C 18.5,67.5 18.5,65.5 18.5,63.5 Z"/></g>
<g><path style="opacity:1" fill="#454e4c" d="M 36.5,71.5 C 38.8333,71.5 41.1667,71.5 43.5,71.5C 44.1667,71.5 44.5,71.8333 44.5,72.5C 41.9407,72.1984 39.6074,72.5318 37.5,73.5C 36.6618,73.1583 36.3284,72.4916 36.5,71.5 Z"/></g>
<g><path style="opacity:1" fill="#38534d" d="M 47.5,71.5 C 49.8333,71.5 52.1667,71.5 54.5,71.5C 55.404,72.209 55.7373,73.209 55.5,74.5C 53.3403,72.4357 51.007,72.1024 48.5,73.5C 47.6618,73.1583 47.3284,72.4916 47.5,71.5 Z"/></g>
<g><path style="opacity:1" fill="#767572" d="M 92.5,69.5 C 93.766,70.0899 95.0993,70.5899 96.5,71C 94.5273,71.4955 92.5273,71.6621 90.5,71.5C 90.5,72.5 90.5,73.5 90.5,74.5C 92.5643,74.687 94.5643,75.187 96.5,76C 93.7431,76.782 91.2431,76.282 89,74.5C 88.3333,73.5 88.3333,72.5 89,71.5C 90.3024,70.9152 91.469,70.2485 92.5,69.5 Z"/></g>
<g><path style="opacity:1" fill="#5a5855" d="M 19.5,72.5 C 21.3635,71.2072 23.3635,71.2072 25.5,72.5C 23.674,72.9202 21.674,72.9202 19.5,72.5 Z"/></g>
<g><path style="opacity:1" fill="#1b7b47" d="M 43.5,71.5 C 44.8333,70.1667 46.1667,70.1667 47.5,71.5C 47.3284,72.4916 47.6618,73.1583 48.5,73.5C 49.1667,73.5 49.5,73.8333 49.5,74.5C 48.4324,75.4345 47.099,75.7678 45.5,75.5C 45.7373,74.209 45.404,73.209 44.5,72.5C 44.5,71.8333 44.1667,71.5 43.5,71.5 Z"/></g>
<g><path style="opacity:1" fill="#14346b" d="M 48.5,73.5 C 51.007,72.1024 53.3403,72.4357 55.5,74.5C 56.6218,76.0518 57.1218,77.7184 57,79.5C 54.6182,77.6113 52.1182,75.9447 49.5,74.5C 49.5,73.8333 49.1667,73.5 48.5,73.5 Z"/></g>
<g><path style="opacity:1" fill="#216e4b" d="M 78.5,71.5 C 78.5,71.8333 78.5,72.1667 78.5,72.5C 75.8333,72.5 73.1667,72.5 70.5,72.5C 70.67,73.8221 70.3366,74.9887 69.5,76C 67.4708,76.6811 65.4708,77.0144 63.5,77C 65.0325,74.9711 66.6992,73.1378 68.5,71.5C 71.6851,71.1719 75.0184,71.1719 78.5,71.5 Z"/></g>
<g><path style="opacity:1" fill="#5c5a57" d="M 20.5,74.5 C 22.3786,74.3932 22.7119,74.8932 21.5,76C 23.4242,76.1792 25.0909,76.3459 26.5,76.5C 24.1667,77.8333 21.8333,77.8333 19.5,76.5C 19.8627,75.8165 20.1961,75.1499 20.5,74.5 Z"/></g>
<g><path style="opacity:1" fill="#543a3b" d="M 83.5,59.5 C 87.1427,69.5118 85.6427,78.8451 79,87.5C 77.871,89.1412 76.371,90.1412 74.5,90.5C 83.2383,81.8872 86.2383,71.5539 83.5,59.5 Z"/></g>
<g><path style="opacity:1" fill="#848380" d="M 88.5,76.5 C 91.3054,76.818 93.6387,77.9847 95.5,80C 95.2753,81.6209 94.442,82.7875 93,83.5C 91.2341,82.7665 89.4008,82.4332 87.5,82.5C 87.3253,80.3792 87.6586,78.3792 88.5,76.5 Z"/></g>
<g><path style="opacity:1" fill="#6e6c69" d="M 23.5,79.5 C 24.404,80.209 24.7373,81.209 24.5,82.5C 26.1238,82.6399 27.2904,81.9733 28,80.5C 28.4828,81.448 28.6495,82.448 28.5,83.5C 26.323,83.5861 24.323,84.2528 22.5,85.5C 20.876,84.1311 20.376,82.4645 21,80.5C 22.5158,83.0515 23.3491,82.7181 23.5,79.5 Z"/></g>
<g><path style="opacity:1" fill="#4f3d3c" d="M 33.5,82.5 C 34.9063,82.9731 35.573,83.9731 35.5,85.5C 34.0937,85.0269 33.427,84.0269 33.5,82.5 Z"/></g>
<g><path style="opacity:1" fill="#72716e" d="M 85.5,84.5 C 88.0286,83.5511 90.3619,84.2178 92.5,86.5C 92.1667,86.8333 91.8333,87.1667 91.5,87.5C 89.7567,85.9617 87.7567,84.9617 85.5,84.5 Z"/></g>
<g><path style="opacity:1" fill="#7a7976" d="M 85.5,84.5 C 85.7993,87.6421 87.4659,89.8088 90.5,91C 87.8023,91.065 85.6356,89.8983 84,87.5C 83.4153,86.0024 83.9153,85.0024 85.5,84.5 Z"/></g>
<g><path style="opacity:1" fill="#1c326a" d="M 44.5,72.5 C 45.404,73.209 45.7373,74.209 45.5,75.5C 49.8589,76.2645 53.6923,78.2645 57,81.5C 56.6199,86.0672 56.7866,90.7339 57.5,95.5C 54.9214,95.6061 52.588,94.9395 50.5,93.5C 44.5999,87.9175 40.2665,81.2508 37.5,73.5C 39.6074,72.5318 41.9407,72.1984 44.5,72.5 Z"/></g>
<g><path style="opacity:1" fill="#04764b" d="M 41.5,77.5 C 47.7836,77.3406 52.4503,80.3406 55.5,86.5C 54.4406,87.6964 53.1073,88.363 51.5,88.5C 49.6663,87.2455 47.6663,86.5789 45.5,86.5C 44.1784,83.5015 42.8451,80.5015 41.5,77.5 Z"/></g>
<g><path style="opacity:1" fill="#117449" d="M 61.5,71.5 C 60.7618,73.6635 59.7618,75.8301 58.5,78C 58.9054,78.9454 59.572,79.6121 60.5,80C 58.3542,82.3569 58.0209,84.8569 59.5,87.5C 58.612,90.0545 58.2786,92.7212 58.5,95.5C 58.1667,95.5 57.8333,95.5 57.5,95.5C 56.7866,90.7339 56.6199,86.0672 57,81.5C 53.6923,78.2645 49.8589,76.2645 45.5,75.5C 47.099,75.7678 48.4324,75.4345 49.5,74.5C 52.1182,75.9447 54.6182,77.6113 57,79.5C 57.1218,77.7184 56.6218,76.0518 55.5,74.5C 55.7373,73.209 55.404,72.209 54.5,71.5C 54.3359,68.8127 54.5026,66.146 55,63.5C 56.4208,60.3778 58.0875,60.0444 60,62.5C 60.696,65.4781 61.196,68.4781 61.5,71.5 Z"/></g>
<g><path style="opacity:1" fill="#213569" d="M 61.5,71.5 C 63.8333,71.5 66.1667,71.5 68.5,71.5C 66.6992,73.1378 65.0325,74.9711 63.5,77C 65.4708,77.0144 67.4708,76.6811 69.5,76C 70.3366,74.9887 70.67,73.8221 70.5,72.5C 73.1667,72.5 75.8333,72.5 78.5,72.5C 75.098,81.3307 69.7647,88.664 62.5,94.5C 61.2921,95.2341 59.9587,95.5674 58.5,95.5C 58.2786,92.7212 58.612,90.0545 59.5,87.5C 58.0209,84.8569 58.3542,82.3569 60.5,80C 59.572,79.6121 58.9054,78.9454 58.5,78C 59.7618,75.8301 60.7618,73.6635 61.5,71.5 Z"/></g>
<g><path style="opacity:1" fill="#04764a" d="M 59.5,87.5 C 62.4328,81.6999 67.0995,78.5332 73.5,78C 72.7362,81.2156 71.4028,84.049 69.5,86.5C 67.5165,86.3832 65.8498,87.0499 64.5,88.5C 62.9291,87.6906 61.2624,87.3573 59.5,87.5 Z"/></g>
<g><path style="opacity:1" fill="#666461" d="M 26.5,86.5 C 28.0682,88.9312 29.5682,88.9312 31,86.5C 31.1667,86.8333 31.3333,87.1667 31.5,87.5C 29.9706,89.1881 28.1373,90.5214 26,91.5C 24.3221,90.5342 23.6554,89.2009 24,87.5C 26.8554,90.3224 27.6887,89.9891 26.5,86.5 Z"/></g>
<g><path style="opacity:1" fill="#833f3e" d="M 74.5,90.5 C 71.7049,93.2309 68.3716,94.8975 64.5,95.5C 66.8831,94.631 68.8831,93.131 70.5,91C 71.7932,90.51 73.1266,90.3433 74.5,90.5 Z"/></g>
<g><path style="opacity:0.227" fill="#3f3c38" d="M 19.5,87.5 C 21.8305,90.825 24.1639,94.1583 26.5,97.5C 22.6927,95.2253 20.3593,91.8919 19.5,87.5 Z"/></g>
<g><path style="opacity:1" fill="#4e4b48" d="M 36.5,94.5 C 37.8734,94.3433 39.2068,94.51 40.5,95C 39.5419,96.1475 39.8753,97.1475 41.5,98C 37.3753,100.028 35.7086,98.8615 36.5,94.5 Z"/></g>
<g><path style="opacity:1" fill="#47383b" d="M 37.5,87.5 C 41.0993,90.3074 45.0993,92.6407 49.5,94.5C 50.1067,94.3764 50.44,94.0431 50.5,93.5C 52.588,94.9395 54.9214,95.6061 57.5,95.5C 57.8333,95.5 58.1667,95.5 58.5,95.5C 59.9587,95.5674 61.2921,95.2341 62.5,94.5C 62.5,95.1667 62.8333,95.5 63.5,95.5C 53.1434,98.2697 44.4767,95.603 37.5,87.5 Z"/></g>
<g><path style="opacity:1" fill="#4b4946" d="M 75.5,94.5 C 76.8333,94.5 78.1667,94.5 79.5,94.5C 79.33,95.8221 79.6634,96.9887 80.5,98C 79.0692,98.4652 77.9025,99.2986 77,100.5C 76.187,98.5643 75.687,96.5643 75.5,94.5 Z"/></g>
<g><path style="opacity:0.973" fill="#63615d" d="M 26.5,97.5 C 30.1155,99.7788 33.4489,102.445 36.5,105.5C 32.2512,103.912 28.9179,101.245 26.5,97.5 Z"/></g>
<g><path style="opacity:1" fill="#666461" d="M 46.5,98.5 C 47.552,98.3505 48.552,98.5172 49.5,99C 48.6705,100.816 47.8372,102.649 47,104.5C 47.3466,102.39 47.1799,100.39 46.5,98.5 Z"/></g>
<g><path style="opacity:1" fill="#959391" d="M 52.5,99.5 C 57.0726,100.599 57.7393,103.099 54.5,107C 53.365,107.749 52.365,107.583 51.5,106.5C 52.5294,106.704 53.5294,106.204 54.5,105C 53.552,104.517 52.552,104.351 51.5,104.5C 51.366,102.708 51.6993,101.042 52.5,99.5 Z"/></g>
<g><path style="opacity:1" fill="#6d6b69" d="M 64.5,98.5 C 65.5,98.5 66.5,98.5 67.5,98.5C 67.6641,101.187 67.4974,103.854 67,106.5C 66.6667,104.167 66.3333,101.833 66,99.5C 63.8215,100.84 63.3215,100.507 64.5,98.5 Z"/></g>
<g><path style="opacity:1" fill="#7b7977" d="M 58.5,100.5 C 59.552,100.351 60.552,100.517 61.5,101C 57.5,103 57.5,105 61.5,107C 60.2161,107.684 59.0495,107.517 58,106.5C 57.3224,104.402 57.4891,102.402 58.5,100.5 Z"/></g>
</svg>
