<svg xmlns="http://www.w3.org/2000/svg" xmlns:xlink="http://www.w3.org/1999/xlink" version="1.1" width="155.906pt" height="155.906pt" viewBox="0 0 155.906 155.906">
<defs>
<clipPath id="clip_182">
<path transform="matrix(1,0,0,-1,0,155.906)" d="M0 155.906H155.906V0H0Z"/>
</clipPath>
</defs>
<g>
<g id="layer_1" data-name="bg orange">
</g>
<g id="layer_1" data-name="BOXES">
</g>
<g id="layer_1" data-name="LOGOS">
<g clip-path="url(#clip_182)">
<path transform="matrix(1,0,0,-1,114.8128,42.392709)" d="M0 0C-.891 3.29-3.433 4.198-3.433 4.198-14.84 9.32-26.539 10.872-36.86 10.753-47.181 10.872-58.88 9.32-70.287 4.198-70.287 4.198-72.829 3.29-73.72 0-73.72 0-92.742-52.652-42.449-80.543-42.449-80.543-39.986-81.88-36.86-81.88-33.734-81.88-31.271-80.543-31.271-80.543 19.022-52.652 0 0 0 0" fill="#ffffff" fill-rule="evenodd"/>
<path transform="matrix(1,0,0,-1,83.3107,121.07001)" d="M0 0C0 0-2.361-1.283-5.358-1.283-8.354-1.283-10.715 0-10.715 0-58.922 26.734-40.689 77.202-40.689 77.202-39.835 80.356-37.397 81.226-37.397 81.226-26.465 86.136-15.251 87.623-5.358 87.509 4.535 87.623 15.749 86.136 26.682 81.226 26.682 81.226 29.12 80.356 29.973 77.202 29.973 77.202 48.207 26.734 0 0" fill="#cf1323" fill-rule="evenodd"/>
<path transform="matrix(1,0,0,-1,111.7714,45.32721)" d="M0 0C-.817 3.019-3.15 3.852-3.15 3.852-13.615 8.551-24.349 9.975-33.818 9.865-43.288 9.975-54.021 8.551-64.486 3.852-64.486 3.852-66.82 3.019-67.637 0-67.637 0-85.089-48.307-38.946-73.897-38.946-73.897-36.686-75.124-33.818-75.124-30.95-75.124-28.69-73.897-28.69-73.897 17.453-48.307 0 0 0 0M-66.24-10.925C-63.142-12.019-62.935-12.143-60.289-13.334-64.118-51.356-42.524-66.903-38.646-69.519-43.526-67.509-68.728-55.883-66.24-10.925M-29.312-69.519C-25.434-66.903-3.84-51.356-7.669-13.334-5.023-12.143-4.816-12.019-1.718-10.925 .77-55.883-24.432-67.509-29.312-69.519" fill="#ffffff" fill-rule="evenodd"/>
<path transform="matrix(1,0,0,-1,85.4362,94.1591)" d="M0 0C-.379 .032-.393 .114-.393 .593V2.007C-.393 2.486-.364 2.527 .035 2.598L.148 2.618C.198 2.652 .19 2.773 .132 2.785-.036 2.773-.34 2.766-.657 2.766-.951 2.766-1.293 2.773-1.426 2.785-1.488 2.773-1.493 2.655-1.447 2.618L-1.327 2.595C-.925 2.527-.903 2.486-.903 2.007V.593C-.903 .114-.917 .049-1.327 0L-1.518-.022C-1.564-.056-1.56-.173-1.493-.188-1.366-.173-.951-.168-.657-.168-.34-.168 .035-.173 .198-.188 .259-.173 .262-.056 .222-.022Z" fill="#cf1323" fill-rule="evenodd"/>
<path transform="matrix(1,0,0,-1,87.5013,91.2972)" d="M0 0C-.725 0-1.357-.546-1.357-1.348-1.362-1.916-.977-2.376-.446-2.376-.162-2.376 .045-2.28 .231-2.136 .244-2.085 .234-2.028 .191-2.006 .082-2.053-.01-2.071-.146-2.071-.607-2.071-.864-1.491-.864-1.063-.864-.588-.587-.232-.158-.232 .516-.232 .661-.951 .665-1.421 .666-2.677-.074-3.443-.44-3.717-.705-3.932-1.033-4.111-1.43-4.244-1.475-4.292-1.443-4.375-1.393-4.404-.895-4.308-.27-4.053 .218-3.607 .935-2.947 1.24-2.159 1.235-1.454 1.235-.606 .837 0 0 0" fill="#cf1323" fill-rule="evenodd"/>
<path transform="matrix(1,0,0,-1,91.9611,93.58221)" d="M0 0C-.162-.332-.314-.341-.693-.341H-1.514C-1.634-.341-1.658-.299-1.647-.241L-1.108 .346C-.693 .798-.483 1.062-.483 1.478-.483 1.95-.828 2.285-1.377 2.285-1.929 2.285-2.326 1.85-2.488 1.506-2.488 1.435-2.425 1.379-2.354 1.4-2.168 1.692-1.941 1.881-1.64 1.881-1.267 1.877-1.03 1.632-1.03 1.208-1.03 .772-1.377 .364-1.745-.021-2.027-.317-2.244-.493-2.446-.645-2.463-.688-2.442-.75-2.403-.765-2.263-.75-2.013-.745-1.786-.745H-1.103C-.706-.745-.415-.75-.153-.765-.07-.572 .044-.317 .171-.058 .146 .005 .061 .034 0 0" fill="#cf1323" fill-rule="evenodd"/>
<path transform="matrix(1,0,0,-1,94.3068,91.284809)" d="M0 0C-.077-.048-.125-.073-.382-.101L-.867-.175C-1.091-.207-1.23-.233-1.321-.256-1.407-.284-1.536-.49-1.628-.709-1.715-.918-1.78-1.146-1.78-1.264-1.78-1.503-1.532-1.646-1.23-1.859-.934-2.077-.67-2.389-.67-2.825-.67-3.589-1.392-4.102-1.771-4.222-1.827-4.271-1.797-4.381-1.715-4.416-1.213-4.257-.186-3.619-.186-2.666-.186-2.115-.505-1.721-.954-1.41-1.04-1.345-1.169-1.264-1.28-1.183-1.475-1.053-1.515-.976-1.475-.855-1.447-.744-1.405-.687-1.202-.662L-.321-.536C-.098-.51 .025-.245 .072-.089 .085-.048 .059-.006 0 0" fill="#cf1323" fill-rule="evenodd"/>
<path transform="matrix(1,0,0,-1,64.1418,91.972309)" d="M0 0C0 1.498-.003 3.4 .177 4.771 .231 5.21 .265 5.664 .317 6.056 .357 6.345 .365 6.478 .473 6.671 1.79 6.648 2.906 6.269 4.152 6.132 4.691 6.698 5.43 7.051 6.068 7.511 6.512 7.837 7.073 8.219 7.451 8.51 7.493 8.561 7.521 8.597 7.528 8.665 7.532 8.728 7.484 9.149 7.373 9.356 6.945 9.344 5.979 8.945 5.38 8.74 4.352 8.39 3.275 8.171 2.308 7.898 1.581 7.688 .722 7.383 .088 7.283-.477 7.31-1.109 7.874-1.291 8.283-1.581 8.945-.549 11.493-.756 12.571 .237 13.566 .712 14.223 1.16 14.41 .451 13.256 .101 12.151 .072 10.768 1.266 10.923 2.705 10.985 3.899 11.439 5.844 12.174 6.607 13.048 7.295 13.955 7.766 11.34 8.704 10.491 9.378 8.411 10.82 8.348 11.883 12.418 11.907 12.418 12.52 10.03 13.334 9.563 13.659 8.049 14.225 8.135 14.756 9.371 15.09 9.436 15.154 9.169 15.179 9.052 15.266 8.821 17.72 9.019 19.556 10.957 19.586 10.957 18.496 8.311 20.913 4.834 21.169 4.604 22.1 4.99 23.267 6.688 23.471 6.898 23.923 5.895 24.522 4.96 25.388 4.37 25.797 4.088 26.149 3.902 26.579 3.635 27.017 4.02 27.324 5.372 27.552 5.639 28.624 4.453 30.878 3.182 32.504 3.772 32.504 3.772 32.23 7.713 29.664 9.232 30.03 9.179 30.555 9.037 30.904 8.969 31.481 8.857 34.165 9.316 35.117 10.429 34.361 11.589 32.842 13.193 29.51 13.391 30.336 13.66 32.248 16.018 32.389 17.302 31.629 17.992 30.374 18.092 29.446 18.293 29.746 20.302 28.112 21.569 27.906 21.744 27.833 21.947 27.708 24.847 23.987 25.777 23.882 25.808 22.991 27.901 20.767 28.921 17.32 30.506 14.683 29.312 14.11 29.161 8.815 29.979 7.535 27.515 7.181 27.162 7.019 26.996 5.058 27.367 3.194 25.29 2.692 25.346 .572 26.496-.168 26.311-.465 25.484-.081 22.294 .092 21.697-1.691 21.3-4.65 22.457-5.315 21.867-5.529 20.572-4.353 19.039-4.353 19.014-5.714 19.154-8.317 18.995-9.136 18.376-9.305 18.203-8.836 17.148-8.147 16.471-7.406 15.747-6.2 15.131-4.634 14.999-4.634 14.975-7.47 13.265-8.419 12.022-8.137 11.85-6.132 11.267-5.928 11.201-4.823 10.849-1.725 11.883-1.675 11.883-1.848 11.037-2.422 8.785-2.44 8.356-2.416 7.704-1.135 6.802-.673 6.512-.671 5.068-.823 .849-.823 .849-.831 .206-.917-.705-.745-1.217-.121-1.339 2.24-.72 2.329-.782 2.555-1.106 2.576-2.189 2.705-2.611 3.115-2.709 3.417-2.914 3.866-2.96 3.985-3.332 3.664-3.963 3.873-4.299 4.039-4.766 4.797-4.893 5.241-5.072 5.241-5.918 5.277-6.762 5.271-7.602 5.497-8.048 7.168-8.659 7.63-8.933 7.63-8.911 11.283-5.399 11.291-5.392 11.97-6.07 12.45-6.608 12.93-7.4 12.382-8.974 10.334-11.823 10.199-11.995 10.111-12.152 10.669-12.545 10.734-12.65 11.462-11.788 11.741-11.386 12.395-10.266 13.05-9.145 13.395-8.561 13.962-7.179 13.349-6.389 12.636-5.633 12.052-4.91 12.358-4.026 12.76-3.756 13.241-2.902 13.036-2.762 12.9-2.655 12.626-2.687 10.877-4.748 9.489-6.062 7.569-7.84 7.321-7.665 6.509-7.383 6.236-7.24 6.142-6.708 6.346-4.983 6.163-4.688 5.948-4.156 5.23-4.215 4.802-3.91 4.773-3.898 4.691-3.841 4.665-3.824 4.729-1.943 4.653-2.438 3.467-1.846 3.417-1.818 3.356-1.624 3.369-1.475 3.373-.891 3.323 .148 3.173 .599 2.637 .572 .468-.082 .117-.266 .065-.284 .037-.272 .028-.251L0-.175ZM31.287 16.865C29.882 17.718 25.875 17.37 24.157 14.487 27.006 14.129 27.833 13.537 30.441 15.867 30.78 16.17 31.132 16.389 31.287 16.865M21.332 22.469C20.729 22.33 19.595 21.483 19.09 20.703 19.072 20.733 19.945 20.558 20.412 20.393 20.238 17.61 15.937 15.682 15.937 15.658 20.862 16.43 22.247 19.799 21.332 22.469M.521 25.42C1.359 25.267 3.66 24.083 4.17 23.557 4.643 23.068 4.832 22.208 5.01 21.459 5.268 20.429 5.271 19.207 4.917 18.626 3.653 18.757 1.244 21.109 .837 22.603 .431 24.086 .473 24.682 .521 25.42M-8.002 17.799C-7.449 18.491-3.925 18.447-3.312 18.065-2.84 17.773-1.799 17.019-1.196 16.831-1.456 16.361-2.979 15.863-4.023 15.885-5.477 15.913-7.33 16.724-8.002 17.799M-2.633 12.519C-3.06 12.317-3.654 12.308-4.097 12.243-4.938 12.125-5.811 12.501-6.471 12.652-6.471 12.727-3.485 14.922-1.731 15.57-1.349 15.71 .308 15.791 .648 15.599 .403 14.777-1.848 12.892-2.633 12.519M.126 16.897C1.024 16.6 2.522 16.98 2.964 17.317 2.901 17.819 2.206 19.084 1.572 19.581 .308 20.572-.434 20.612-1.739 20.788-2.608 21.027-3.342 21.187-4.431 21.236-4.087 19.791-1.349 17.394 .126 16.897M4.16 12.489C3.353 12.081 2.232 12.131 1.011 11.808 2.128 16.946 6.016 17.231 6.935 17.238 6.945 15.948 6.444 13.629 4.16 12.489M6.684 19.446C7.013 18.905 7.476 18.426 7.989 18.161 10.549 21.383 7.792 25.58 6.456 25.759 5.348 23.33 5.38 21.573 6.684 19.446M9.756 9.666C9.442 10.974 8.587 11.905 8.268 13.287 8.168 13.687 8.005 14.422 8.212 15.019 8.48 15.801 8.943 16.59 9.391 17.153 11.106 16.401 11.737 11.341 9.756 9.666M9.652 18.578C9.826 20.866 12.378 23.006 15.897 23.393 15.821 21.244 13.807 19.075 12.032 18.578 11.279 18.491 9.777 18.505 9.652 18.578M13.876 9.124C13.615 10.354 11.8 13.312 12.326 15.004 12.467 15.458 12.62 15.944 12.823 16.43 13.598 16.08 14.581 14.454 14.772 13.825 15.36 11.903 14.271 9.286 13.876 9.124M14.655 16.862C15.166 16.747 16.228 17.25 16.53 17.37 17.66 17.848 18.867 18.96 19.252 20.09 17.574 20.757 14.699 19.548 12.878 17.631 13.294 17.336 13.962 17.027 14.655 16.862M15.667 9.666C18.218 9.836 20.27 13.33 19.785 14.712 19.104 14.618 17.802 14.246 17.174 13.825 16.21 13.179 15.85 11.052 15.667 9.666M21.341 5.844C21.104 6.337 20.686 6.912 20.461 7.411 19.971 8.541 20.241 10.804 20.729 11.85 21.075 12.602 21.866 12.926 22.327 13.552 23.954 11.989 21.926 6.108 21.341 5.844M19.252 15.639C20.591 16.325 21.294 17.671 22.472 18.477 24.454 19.827 26.167 19.533 26.533 19.166 26.112 18.35 24.855 16.877 24.009 16.176 22.472 15.28 19.688 15.196 19.252 15.639M26.306 4.83C26.741 7.574 27.098 8.823 25.613 10.886 25.322 11.295 24.982 11.723 24.698 11.962 23.777 10.358 23.29 8.185 24.468 6.441 24.825 5.946 25.566 5.063 26.306 4.83M31.832 4.269C29.317 4.359 27.768 6.718 27.765 9.28 28.497 9.196 29.327 8.683 29.746 8.239 30.624 7.306 31.541 5.775 31.832 4.269M26.603 12.022C28.166 13.969 34.083 11.43 34.077 10.565 33.044 10.118 32.292 10.109 31.453 10.026 29.527 9.848 26.867 11.669 26.603 12.022" fill="#cf1323" fill-rule="evenodd"/>
<path transform="matrix(1,0,0,-1,52.1857,51.027605)" d="M0 0C-1.331-.49-2.646-.244-3.128 1.064L-4.23 4.061C-4.7 5.336-3.857 6.413-2.55 6.894-1.22 7.384 .12 7.11 .589 5.835L1.692 2.837C2.161 1.562 1.307 .481 0 0M-1.077 5.221C-1.226 5.625-1.63 5.723-2.049 5.569-2.469 5.415-2.736 5.069-2.588 4.665L-1.485 1.668C-1.341 1.276-.889 1.195-.505 1.336-.086 1.491 .174 1.821 .026 2.224Z" fill="#cf1323" fill-rule="evenodd"/>
<path transform="matrix(1,0,0,-1,60.0192,47.099306)" d="M0 0C.136 .036 .292-.006 .338-.174L.578-1.072C.62-1.229 .555-1.33 .37-1.38L-3.949-2.537C-4.135-2.587-4.242-2.531-4.284-2.375L-6.013 4.076C-6.055 4.233-5.989 4.334-5.804 4.384L-4.644 4.695C-4.496 4.735-4.355 4.7-4.309 4.532L-2.966-.482C-2.915-.673-2.764-.741-2.53-.678Z" fill="#cf1323" fill-rule="evenodd"/>
<path transform="matrix(1,0,0,-1,62.4609,41.038408)" d="M0 0C.054 .188 .114 .283 .402 .339L1.631 .58C1.969 .646 1.991 .402 1.949 .287L.662-3.444C.603-3.609 .604-3.68 .628-3.806L1.169-6.563C1.2-6.723 1.128-6.82 .939-6.857L-.239-7.088C-.427-7.124-.531-7.062-.562-6.902L-1.109-4.11C-1.126-4.019-1.152-3.953-1.24-3.84L-3.869-.852C-3.951-.762-4.011-.526-3.672-.459L-2.444-.218C-2.205-.172-2.103-.164-1.96-.36L-.724-1.952C-.656-2.034-.572-2.065-.534-1.927Z" fill="#cf1323" fill-rule="evenodd"/>
<path transform="matrix(1,0,0,-1,70.575,39.95411)" d="M0 0C.077 .242 .187 .3 .428 .326L1.419 .432C1.609 .452 1.764 .328 1.779 .19L2.482-6.416C2.499-6.578 2.406-6.67 2.216-6.69L1.085-6.81C.895-6.831 .797-6.759 .78-6.598L.469-3.676C.46-3.595 .369-3.581 .329-3.691 .098-4.416-.105-5.162-.43-5.851-.504-5.999-.615-6.046-.78-6.063L-1.212-6.109C-1.403-6.13-1.52-6.119-1.629-5.932L-2.768-4.044C-2.845-3.924-2.929-3.98-2.921-4.06L-2.612-6.959C-2.595-7.121-2.675-7.211-2.866-7.231L-4.022-7.355C-4.212-7.375-4.31-7.304-4.327-7.142L-5.029-.547C-5.044-.409-4.92-.244-4.73-.224L-3.752-.119C-3.459-.088-3.407-.094-3.265-.348L-1.349-3.613C-1.271-3.745-1.208-3.738-1.16-3.581Z" fill="#cf1323" fill-rule="evenodd"/>
<path transform="matrix(1,0,0,-1,76.2156,46.31331)" d="M0 0C.001-.163-.088-.244-.28-.245L-1.48-.253C-1.672-.254-1.762-.173-1.763-.01L-1.802 6.667C-1.803 6.83-1.714 6.911-1.523 6.912L1.071 6.928C2.591 6.937 3.592 6.072 3.6 4.771 3.607 3.563 2.578 2.698 1.095 2.689L-.016 2.683ZM1.087 4.106C1.534 4.108 1.852 4.401 1.85 4.807 1.847 5.214 1.526 5.514 1.079 5.511L.274 5.506C.019 5.505-.032 5.377-.031 5.226L-.026 4.39C-.025 4.169 .091 4.1 .283 4.101Z" fill="#cf1323" fill-rule="evenodd"/>
<path transform="matrix(1,0,0,-1,80.815,46.583604)" d="M0 0C-.192 .008-.277 .093-.271 .256L.012 6.928C.018 7.09 .111 7.168 .303 7.159L1.503 7.109C1.655 7.102 1.78 7.027 1.773 6.853L1.491 .181C1.484 .019 1.391-.059 1.199-.051Z" fill="#cf1323" fill-rule="evenodd"/>
<path transform="matrix(1,0,0,-1,85.2328,46.673906)" d="M0 0C-.053-.134-.198-.165-.299-.155L-1.468-.028C-1.786 .006-1.765 .191-1.714 .314L1.01 6.736C1.06 6.848 1.155 6.896 1.308 6.879L2.552 6.745C2.667 6.732 2.789 6.672 2.813 6.541L4.129-.317C4.158-.402 4.159-.636 3.816-.599L2.596-.467C2.457-.452 2.361-.383 2.337-.252L2.194 .803C2.163 .993 2.123 1.102 1.882 1.128L.802 1.245C.536 1.274 .475 1.187 .405 1.019ZM1.699 4.314C1.671 4.41 1.619 4.404 1.572 4.328L1.038 2.715C.988 2.603 1.045 2.539 1.185 2.524L1.756 2.462C1.858 2.451 1.941 2.512 1.92 2.666Z" fill="#cf1323" fill-rule="evenodd"/>
<path transform="matrix(1,0,0,-1,92.4972,47.953805)" d="M0 0C-1.482 .273-2.323 1.279-2.098 2.501L-1.518 5.641C-1.293 6.863-.124 7.498 1.333 7.229 1.924 7.12 2.428 6.968 2.859 6.558 3.246 6.192 3.466 5.761 3.512 5.517 3.535 5.43 3.488 5.25 3.31 5.2L2.276 4.942C2.001 4.862 1.976 5.009 1.913 5.162 1.74 5.56 1.529 5.753 1.076 5.836 .675 5.91 .27 5.689 .203 5.324L-.377 2.183C-.442 1.829-.143 1.479 .259 1.405 .699 1.324 .994 1.446 1.319 1.729 1.43 1.838 1.489 1.945 1.663 1.831L2.583 1.189C2.719 1.081 2.719 .939 2.606 .818 2.417 .57 2.023 .264 1.921 .201 1.336-.152 .691-.128 0 0" fill="#cf1323" fill-rule="evenodd"/>
<path transform="matrix(1,0,0,-1,98.0465,49.213006)" d="M0 0C-1.37 .368-2.302 1.328-1.941 2.674L-1.112 5.758C-.76 7.07 .55 7.464 1.895 7.103 3.264 6.735 4.2 5.738 3.848 4.426L3.019 1.341C2.667 .029 1.345-.361 0 0M2.133 4.886C2.244 5.301 1.971 5.615 1.54 5.731 1.108 5.847 .689 5.719 .578 5.304L-.25 2.22C-.359 1.816-.037 1.489 .358 1.383 .79 1.267 1.193 1.387 1.304 1.802Z" fill="#cf1323" fill-rule="evenodd"/>
<path transform="matrix(1,0,0,-1,101.9189,49.809404)" d="M0 0C-.073 .175-.58 1.137-.036 1.174L.967 1.28C1.25 1.313 1.323 1.176 1.356 1.004 1.433 .617 1.594 .349 2.074 .175 2.459 .036 2.882 .191 3.004 .529 3.159 .955 2.93 1.224 2.264 1.823 1.157 2.854 .578 3.62 .974 4.712 1.397 5.88 2.655 6.314 4.048 5.809 4.613 5.604 5.057 5.369 5.419 4.904 5.752 4.475 5.898 4.014 5.891 3.733 5.899 3.643 5.864 3.545 5.64 3.49L4.701 3.299C4.538 3.26 4.441 3.332 4.377 3.491 4.256 3.757 4.118 4.277 3.566 4.477 3.181 4.616 2.758 4.461 2.631 4.111 2.505 3.762 2.754 3.511 3.03 3.263 3.596 2.724 4.197 2.284 4.544 1.627 4.834 1.077 4.871 .545 4.65-.067 4.226-1.235 3.005-1.682 1.587-1.168 .915-.924 .322-.611 0 0" fill="#cf1323" fill-rule="evenodd"/>
<path transform="matrix(1,0,0,-1,61.0219,54.85341)" d="M0 0C.316-.933-.136-1.695-1.189-2.052L-3.108-2.703C-3.236-2.746-3.313-2.713-3.349-2.607L-4.827 1.756C-4.863 1.862-4.821 1.935-4.694 1.978L-2.843 2.606C-1.823 2.951-1.003 2.654-.708 1.781-.592 1.44-.634 1.088-.945 .805-.98 .767-.961 .74-.902 .734-.441 .688-.131 .387 0 0M-2.223 .777C-1.909 .884-1.786 1.137-1.876 1.402-1.966 1.668-2.257 1.772-2.529 1.68L-3.234 1.441C-3.37 1.395-3.375 1.326-3.344 1.235L-3.156 .681C-3.113 .552-3.03 .504-2.911 .544ZM-1.505-1.119C-1.174-1.007-1.062-.724-1.151-.458-1.236-.208-1.484 .021-1.849-.102L-2.58-.35C-2.75-.408-2.763-.48-2.722-.601L-2.493-1.277C-2.452-1.398-2.422-1.43-2.227-1.364Z" fill="#cf1323" fill-rule="evenodd"/>
<path transform="matrix(1,0,0,-1,63.0975,55.805604)" d="M0 0C-.003-.1-.092-.154-.162-.171L-.963-.366C-1.181-.419-1.211-.294-1.206-.202L-.917 4.607C-.91 4.692-.858 4.745-.754 4.771L.1 4.979C.179 4.998 .273 4.988 .32 4.908L2.802 .772C2.842 .724 2.897 .572 2.662 .515L1.825 .312C1.729 .289 1.65 .311 1.603 .39L1.261 1.04C1.196 1.156 1.144 1.218 .978 1.177L.238 .998C.054 .953 .035 .882 .028 .757ZM.108 3.2C.067 3.256 .034 3.24 .021 3.179L.048 2.006C.04 1.922 .093 1.894 .189 1.917L.581 2.012C.651 2.029 .692 2.089 .641 2.184Z" fill="#cf1323" fill-rule="evenodd"/>
<path transform="matrix(1,0,0,-1,66.7061,54.809404)" d="M0 0C-.104 .08-.745 .484-.426 .692L.152 1.098C.314 1.214 .406 1.157 .485 1.064 .665 .859 .856 .753 1.21 .812 1.492 .86 1.698 1.097 1.657 1.342 1.605 1.65 1.373 1.733 .759 1.866-.272 2.107-.889 2.369-1.022 3.158-1.164 4.004-.544 4.693 .482 4.865 .898 4.935 1.251 4.945 1.632 4.79 1.983 4.646 2.23 4.42 2.323 4.248 2.359 4.197 2.371 4.126 2.253 4.017L1.744 3.583C1.657 3.503 1.574 3.513 1.479 3.587 1.314 3.705 1.051 3.97 .645 3.901 .361 3.854 .156 3.616 .198 3.363 .241 3.111 .479 3.045 .734 2.99 1.265 2.86 1.784 2.801 2.222 2.526 2.588 2.295 2.794 1.988 2.869 1.546 3.011 .701 2.416 .016 1.373-.159 .878-.243 .407-.257 0 0" fill="#cf1323" fill-rule="evenodd"/>
<path transform="matrix(1,0,0,-1,72.4886,49.47941)" d="M0 0C.071 .104 .139 .15 .38 .174L1.121 .237C1.22 .246 1.339 .225 1.35 .106 1.354 .066 1.34 .024 1.307-.011L.127-1.693C.055-1.789 .052-1.853 .206-1.863 .93-1.898 1.491-2.391 1.557-3.077L1.694-4.504C1.705-4.615 1.639-4.678 1.505-4.691L.666-4.772C.532-4.784 .464-4.735 .454-4.623L.32-3.236C.289-2.909-.039-2.78-.36-2.81-.664-2.84-.985-3.056-.956-3.359L-.823-4.746C-.812-4.857-.869-4.919-1.003-4.932L-1.824-5.011C-1.958-5.024-2.026-4.974-2.037-4.862L-2.478-.278C-2.489-.167-2.431-.105-2.297-.092L-1.458-.011C-1.351-.001-1.257-.04-1.246-.16L-1.129-1.372C-1.12-1.467-1.045-1.5-.991-1.407Z" fill="#cf1323" fill-rule="evenodd"/>
<path transform="matrix(1,0,0,-1,78.2584,53.063707)" d="M0 0C.099 .002 .198-.052 .201-.172L.213-.813C.215-.925 .154-.982 .019-.985L-3.119-1.047C-3.253-1.049-3.317-.994-3.319-.882L-3.41 3.723C-3.412 3.835-3.35 3.892-3.216 3.895L-.078 3.956C.021 3.958 .12 3.912 .123 3.792L.135 3.151C.138 3.039 .076 2.982-.059 2.979L-1.914 2.943C-2.121 2.939-2.156 2.882-2.153 2.762L-2.142 2.193C-2.139 2.025-2.093 1.97-1.886 1.974L-.425 2.003C-.291 2.005-.227 1.95-.225 1.838L-.212 1.198C-.21 1.085-.271 1.028-.406 1.026L-1.894 .996C-2.1 .992-2.117 .928-2.115 .8L-2.102 .159C-2.099-.009-2.017-.04-1.811-.036Z" fill="#cf1323" fill-rule="evenodd"/>
<path transform="matrix(1,0,0,-1,79.1325,50.090204)" d="M0 0C-.134 .005-.204 .064-.199 .176L-.173 .817C-.168 .929-.094 .982 .04 .976L3.158 .848C3.266 .844 3.354 .792 3.348 .672L3.322 .032C3.318-.08 3.253-.133 3.118-.128L2.401-.099C2.213-.091 2.175-.153 2.17-.257L2.022-3.882C2.017-3.994 1.943-4.047 1.809-4.042L.975-4.008C.841-4.002 .78-3.944 .785-3.832L.934-.215C.938-.095 .932-.038 .726-.03Z" fill="#cf1323" fill-rule="evenodd"/>
<path transform="matrix(1,0,0,-1,86.8162,53.102106)" d="M0 0C-.108-.979-.84-1.478-1.945-1.356L-3.96-1.134C-4.093-1.119-4.15-1.056-4.137-.945L-3.631 3.633C-3.618 3.745-3.55 3.793-3.416 3.778L-1.473 3.564C-.404 3.445 .214 2.829 .112 1.913 .073 1.555-.114 1.253-.516 1.129-.563 1.11-.557 1.077-.507 1.047-.109 .81 .045 .406 0 0M-1.837-.377C-1.489-.416-1.268-.206-1.237 .072-1.208 .335-1.336 .647-1.719 .69L-2.486 .775C-2.664 .794-2.706 .735-2.721 .607L-2.799-.101C-2.813-.229-2.8-.271-2.595-.293ZM-1.685 1.645C-1.356 1.609-1.138 1.786-1.107 2.064-1.076 2.343-1.295 2.561-1.581 2.592L-2.32 2.674C-2.463 2.69-2.497 2.629-2.507 2.534L-2.572 1.952C-2.587 1.817-2.532 1.739-2.407 1.725Z" fill="#cf1323" fill-rule="evenodd"/>
<path transform="matrix(1,0,0,-1,88.1178,54.788606)" d="M0 0C-.044-.089-.147-.103-.217-.09L-1.029 .06C-1.249 .101-1.226 .227-1.183 .309L1.049 4.58C1.09 4.654 1.159 4.682 1.264 4.662L2.129 4.502C2.208 4.487 2.29 4.44 2.301 4.348L2.873-.442C2.89-.502 2.878-.663 2.64-.619L1.793-.462C1.696-.444 1.633-.392 1.623-.3L1.576 .433C1.564 .566 1.542 .643 1.374 .674L.625 .813C.44 .847 .393 .791 .335 .679ZM1.408 2.876C1.393 2.944 1.357 2.942 1.32 2.892L.864 1.812C.823 1.738 .86 1.69 .957 1.672L1.354 1.599C1.425 1.586 1.486 1.623 1.479 1.73Z" fill="#cf1323" fill-rule="evenodd"/>
<path transform="matrix(1,0,0,-1,95.0391,55.49701)" d="M0 0C.095-.025 .177-.104 .146-.221L-.018-.84C-.046-.949-.121-.987-.251-.952L-3.286-.152C-3.416-.118-3.462-.048-3.434 .061L-2.259 4.514C-2.231 4.622-2.156 4.66-2.026 4.626L-1.211 4.411C-1.107 4.384-1.032 4.314-1.063 4.198L-1.976 .737C-2.01 .605-1.942 .512-1.777 .469Z" fill="#cf1323" fill-rule="evenodd"/>
<path transform="matrix(1,0,0,-1,99.1362,56.916505)" d="M0 0C.093-.033 .167-.119 .127-.232L-.088-.836C-.125-.942-.203-.973-.33-.928L-3.287 .123C-3.414 .168-3.454 .242-3.417 .347L-1.875 4.687C-1.837 4.793-1.759 4.825-1.632 4.78L-.838 4.497C-.737 4.461-.668 4.386-.709 4.273L-1.907 .899C-1.953 .771-1.893 .673-1.732 .616Z" fill="#cf1323" fill-rule="evenodd"/>
</g>
</g>
</g>
</svg>
