<svg xmlns="http://www.w3.org/2000/svg" xmlns:xlink="http://www.w3.org/1999/xlink" version="1.1" width="155.906pt" height="155.906pt" viewBox="0 0 155.906 155.906">
<defs>
<clipPath id="clip_183">
<path transform="matrix(1,0,0,-1,0,155.906)" d="M0 155.906H155.906V0H0Z"/>
</clipPath>
</defs>
<g>
<g id="layer_1" data-name="bg orange">
</g>
<g id="layer_1" data-name="BOXES">
</g>
<g id="layer_1" data-name="LOGOS">
<g clip-path="url(#clip_183)">
<path transform="matrix(1,0,0,-1,113.7061,64.650409)" d="M0 0C0-18.816-14.975-34.071-33.447-34.071-51.919-34.071-66.895-18.816-66.895 0-66.895 18.817-51.919 34.071-33.447 34.071-14.975 34.071 0 18.817 0 0" fill="#f79328"/>
<path transform="matrix(1,0,0,-1,79.3343,29.002709)" d="M0 0H1.351V-23.475H-.071Z" fill="#090b00"/>
<path transform="matrix(1,0,0,-1,93.034,35.242509)" d="M0 0C0 0 11.498-2.587 16.485-16.502 16.485-16.502 11.398-5.048 0 0" fill="#090b00"/>
<path transform="matrix(1,0,0,-1,67.6972,35.133104)" d="M0 0C0 0-11.498-2.588-16.486-16.504-16.486-16.504-11.398-5.049 0 0" fill="#090b00"/>
<path transform="matrix(1,0,0,-1,64.3261,31.575104)" d="M0 0C0 0 11.451 3.478 8.536-6.159 8.536-6.159 8.322-8.187 3.201-15.577 3.201-15.577-1.991-22.968-5.618-31.083-5.618-31.083-15.221-49.051 1.779-59.63 1.779-59.63-16.927-52.094-6.899-30.286-6.899-30.286-2.773-20.867 3.415-12.39 3.415-12.39 8.962-4.782 7.042-2.029 7.042-2.029 5.335 .217 0 0" fill="#090b00"/>
<path transform="matrix(1,0,0,-1,95.7749,31.575104)" d="M0 0C0 0-11.218 3.478-8.303-6.159-8.303-6.159-8.089-8.187-2.968-15.577-2.968-15.577 2.225-22.968 5.851-31.083 5.851-31.083 15.455-49.051-1.545-59.63-1.545-59.63 17.161-52.094 7.132-30.286 7.132-30.286 3.006-20.867-3.181-12.39-3.181-12.39-8.729-4.782-6.809-2.029-6.809-2.029-5.334 .217 0 0" fill="#090b00"/>
<path transform="matrix(1,0,0,-1,80.1985,52.018007)" d="M0 0C0 0 5.609 3.513 7.705-3.146 7.705-3.146 8.877-6.474 4.62-10.446 4.62-10.446 2.19-12.859 3.089-13.591 3.089-13.591 3.719-13.958 5.339-11.484 5.339-11.484 10.616-3.146 14.934-7.667 14.934-7.667 16.493-9.438 15.594-13.286 15.594-13.286 15.012-15.689 15.732-16.565 15.732-16.565 17.692-19.396 16.522-21.839 16.432-22.017 14.856-26.415 10.256-24.681 10.256-24.681 7.588-23.671 5.878-22.022 5.878-22.022 3.479-19.304 2.37-19.519 1.26-19.731 1.14-23.122 1.021-25.016 1.021-25.016 1.23-31.491 1.862-32.53 1.862-32.53 1.831-33.202 .301-32.438 .301-32.438-2.157-31.43-2.339-29.902-2.339-29.902-1.138-23.795-1.197-22.266-1.197-22.266-.63-18.173-2.607-19.181-2.607-19.181-4.236-20.658-6.176-22.969-6.176-22.969-9.553-26.828-13.432-25.229-13.432-25.229-17.93-23.825-15.891-17.776-15.891-17.776-15.351-16.403-15.65-14.479-15.65-14.479-17.422-9.927-14.481-8.185-14.481-8.185-11.154-6.261-8.905-8.704-8.905-8.704-6.896-10.996-5.848-12.309-5.848-12.309-3.69-14.875-3.177-13.5-3.177-13.5-2.697-12.584-6.176-9.835-6.176-9.835-10.794-6.018-8.696-2.26-8.696-2.26-6.655 1.926-1.917 .184-1.917 .184-.689-.305 0 0" fill="#006c45"/>
<path transform="matrix(1,0,0,-1,72.0092,71.24351)" d="M0 0H-1.298V4.747H-3.252V0H-4.55V5.86H0Z" fill="#ffffff"/>
<path transform="matrix(1,0,0,-1,80.484,58.89441)" d="M0 0-.359 1.243C-.453 1.591-.555 2.034-.64 2.373H-.666C-.743 2.026-.837 1.583-.922 1.243L-1.272 0ZM-1.46-.991-1.862-2.495H-3.21L-1.451 3.365H.247L2.039-2.495H.64L.196-.991Z" fill="#ffffff"/>
<path transform="matrix(1,0,0,-1,90.5862,70.28721)" d="M0 0C.879 0 1.383 .842 1.383 1.991 1.383 3.043 .897 3.947 0 3.947-.896 3.947-1.4 3.06-1.4 1.965-1.4 .861-.879 0-.008 0ZM-.069-1.052C-1.766-1.052-2.773 .26-2.773 1.929-2.773 3.686-1.664 4.999 .026 4.999 1.793 4.999 2.757 3.652 2.757 2.034 2.757 .104 1.622-1.052-.059-1.052Z" fill="#ffffff"/>
<path transform="matrix(1,0,0,-1,74.5232,91.32071)" d="M0 0-.015 .003-1.01-.249-1.023 .639 .362 .973 1.278 .783 .308-4.063-.768-3.839Z" fill="#006c45"/>
<path transform="matrix(1,0,0,-1,78.4625,91.663608)" d="M0 0C-.38 .035-.693-.288-.738-.804-.775-1.228-.576-1.613-.122-1.655 .198-1.683 .418-1.558 .545-1.393 .589-1.321 .611-1.247 .623-1.104 .677-.58 .521-.047 .008-.001ZM-1.639-3.212C-1.492-3.249-1.373-3.251-1.148-3.256-.798-3.273-.437-3.199-.161-3.041 .177-2.857 .414-2.551 .528-2.187L.514-2.177C.27-2.385-.053-2.485-.499-2.445-1.317-2.37-1.951-1.732-1.867-.77-1.784 .192-.953 .935 .111 .838 1.352 .725 1.855-.299 1.755-1.449 1.664-2.48 1.28-3.194 .716-3.64 .217-4.029-.443-4.199-1.204-4.16-1.391-4.158-1.592-4.132-1.717-4.114Z" fill="#006c45"/>
<path transform="matrix(1,0,0,-1,82.2773,95.159809)" d="M0 0C.441 .016 .658 .588 .618 1.713 .578 2.808 .326 3.377-.129 3.36-.555 3.344-.803 2.779-.763 1.661-.729 .521-.441-.016-.007 0ZM.009-.875C-1.244-.922-1.838 .204-1.897 1.603-1.949 3.04-1.4 4.188-.147 4.234 1.145 4.283 1.702 3.124 1.752 1.771 1.807 .251 1.241-.829 .017-.875Z" fill="#006c45"/>
<path transform="matrix(1,0,0,-1,86.2968,94.79851)" d="M0 0C.39 .07 .608 .381 .548 .726 .472 1.153 .111 1.349-.343 1.39-.693 1.218-.859 .91-.796 .558-.741 .205-.419-.076-.007-.002ZM-.634 3.471C-1.016 3.4-1.161 3.103-1.108 2.804-1.05 2.474-.726 2.317-.323 2.267-.079 2.389 .107 2.671 .054 2.97 0 3.277-.222 3.545-.626 3.472ZM-.718 4.25C.399 4.455 .978 3.88 1.083 3.289 1.156 2.87 1.008 2.418 .573 2.091L.577 2.069C1.079 1.974 1.561 1.645 1.671 1.023 1.827 .14 1.204-.592 .095-.795-1.118-1.016-1.8-.422-1.915 .238-2.018 .822-1.758 1.286-1.278 1.613L-1.28 1.628C-1.787 1.791-2.085 2.147-2.16 2.573-2.305 3.397-1.674 4.076-.725 4.249Z" fill="#006c45"/>
<path transform="matrix(1,0,0,-1,44.6244,65.08501)" d="M0 0C0 0 8.749 24.418 35.492 24.418 35.492 24.418 62.235 25.722 71.339-.435 71.339-.435 61.382 23.766 35.563 22.968 35.563 22.968 13.372 25.287 0 0" fill="#090b00"/>
<path transform="matrix(1,0,0,-1,70.5849,17.7724)" d="M0 0-1.017-3.755-4.633-5.029-1.44-7.178-1.365-11.072 1.625-8.645 5.285-9.78 3.943-6.131 6.129-2.935 2.308-3.109Z" fill="#feee00"/>
<path transform="matrix(1,0,0,-1,89.3466,17.499909)" d="M0 0-2.378-3.053-6.196-2.791-4.082-6.037-5.508-9.653-1.823-8.605 1.11-11.102 1.275-7.21 4.515-5.136 .931-3.778Z" fill="#feee00"/>
<path transform="matrix(1,0,0,-1,54.6416,24.6315)" d="M0 0 .442-3.87-2.438-6.437 1.313-7.204 2.818-10.784 4.694-7.39 8.503-7.037 5.913-4.171 6.762-.371 3.284-1.996Z" fill="#feee00"/>
<path transform="matrix(1,0,0,-1,42.5146,37.03801)" d="M0 0 1.891-3.387 .224-6.895 3.972-6.11 6.731-8.805 7.155-4.934 10.526-3.094 7.043-1.486 6.366 2.349 3.789-.531Z" fill="#feee00"/>
<path transform="matrix(1,0,0,-1,105.1659,24.513413)" d="M0 0-.442-3.87 2.438-6.437-1.314-7.205-2.819-10.784-4.695-7.39-8.503-7.038-5.914-4.172-6.762-.371-3.285-1.996Z" fill="#feee00"/>
<path transform="matrix(1,0,0,-1,118.0031,37.03801)" d="M0 0-1.891-3.387-.225-6.895-3.972-6.11-6.732-8.805-7.155-4.934-10.526-3.094-7.043-1.486-6.366 2.349-3.789-.531Z" fill="#feee00"/>
<path transform="matrix(1,0,0,-1,63.2191,123.023509)" d="M0 0-1.298-3.185H1.176ZM2.303-6.247 1.703-4.618H-1.899L-2.572-6.247H-4.802L-1.151 2.119H1.262L4.52-6.247Z" fill="#006c45"/>
<path transform="matrix(1,0,0,-1,74.0238,129.27082)" d="M0 0-3.209 3.932V0H-5.304V8.367H-3.209V4.643L-.367 8.367H1.985L-.98 4.496 2.719 0Z" fill="#006c45"/>
<path transform="matrix(1,0,0,-1,81.8887,122.46001)" d="M0 0V-6.811H-2.205V0H-4.973V1.556H2.768V0Z" fill="#006c45"/>
<path transform="matrix(1,0,0,-1,91.7863,125.093708)" d="M0 0C0 .759-.22 1.372-.674 1.85-1.127 2.327-1.703 2.572-2.389 2.572-3.075 2.572-3.65 2.327-4.104 1.85-4.557 1.372-4.777 .759-4.777 0-4.777-.747-4.557-1.36-4.104-1.837-3.65-2.315-3.075-2.56-2.389-2.56-1.69-2.56-1.127-2.327-.674-1.85-.22-1.372 0-.759 0 0M2.168 0C2.168-1.262 1.739-2.291 .882-3.099 .012-3.92-1.078-4.324-2.389-4.324-3.699-4.324-4.777-3.92-5.623-3.124-6.492-2.303-6.933-1.262-6.933 0-6.933 1.262-6.492 2.303-5.623 3.136-4.802 3.932-3.724 4.324-2.389 4.324-1.053 4.324 .037 3.932 .857 3.136 1.727 2.303 2.168 1.262 2.168 0" fill="#006c45"/>
<path transform="matrix(1,0,0,-1,99.0624,123.3542)" d="M0 0C0 .649-.38 .968-1.151 .968H-2.156V-.98H-1.151C-.38-.98 0-.649 0 0M.674-5.917-.392-3.503C-.564-3.124-.759-2.854-.968-2.719-1.188-2.572-1.507-2.499-1.911-2.499H-2.033C-2.07-2.511-2.107-2.511-2.156-2.511V-5.917H-4.251V2.45H-1.164C1.054 2.45 2.168 1.641 2.168 .024 2.168-.882 1.678-1.556 .71-1.997 1.115-2.156 1.445-2.511 1.703-3.05L3.038-5.917Z" fill="#006c45"/>
<path transform="matrix(1,0,0,-1,22.6273,110.09041)" d="M0 0C0 .637-.38 .956-1.152 .956H-2.157V-.956H-1.164C-.392-.956 0-.637 0 0M2.157 .012C2.157-1.716 .993-2.586-1.348-2.586H-2.157V-5.859H-4.265V2.512H-1.177C1.042 2.512 2.157 1.679 2.157 .012" fill="#006c45"/>
<path transform="matrix(1,0,0,-1,29.6989,109.698207)" d="M0 0-1.299-3.187H1.177ZM2.305-6.251 1.704-4.621H-1.9L-2.574-6.251H-4.804L-1.152 2.12H1.263L4.523-6.251Z" fill="#006c45"/>
<path transform="matrix(1,0,0,-1,41.5505,115.949108)" d="M0 0-4.682 5.258V0H-6.753V8.371H-4.915L-.429 3.383V8.371H1.642V0Z" fill="#006c45"/>
<path transform="matrix(1,0,0,-1,48.5723,109.698207)" d="M0 0-1.299-3.187H1.177ZM2.305-6.251 1.704-4.621H-1.9L-2.574-6.251H-4.804L-1.152 2.12H1.263L4.523-6.251Z" fill="#006c45"/>
<path transform="matrix(1,0,0,-1,57.911,109.13451)" d="M0 0V-6.815H-2.206V0H-4.976V1.556H2.77V0Z" fill="#006c45"/>
<path transform="matrix(1,0,0,-1,67.4094,115.949108)" d="M0 0V3.395H-3.726V0H-5.822V8.371H-3.726V5.013H0V8.371H2.096V0Z" fill="#006c45"/>
<path transform="matrix(1,0,0,-1,0,155.906)" d="M71.208 48.328H73.365V39.957H71.208Z" fill="#006c45"/>
<path transform="matrix(1,0,0,-1,81.81,115.949108)" d="M0 0-4.682 5.258V0H-6.753V8.371H-4.915L-.429 3.383V8.371H1.642V0Z" fill="#006c45"/>
<path transform="matrix(1,0,0,-1,88.8318,109.698207)" d="M0 0-1.299-3.187H1.177ZM2.304-6.251 1.704-4.621H-1.9L-2.574-6.251H-4.804L-1.152 2.12H1.263L4.523-6.251Z" fill="#006c45"/>
<path transform="matrix(1,0,0,-1,0,155.906)" d="M93.991 48.328H96.147998V39.957H93.991Z" fill="#006c45"/>
<path transform="matrix(1,0,0,-1,103.207,115.949108)" d="M0 0-3.211 3.934V0H-5.307V8.371H-3.211V4.645L-.367 8.371H1.986L-.98 4.498 2.721 0Z" fill="#006c45"/>
<path transform="matrix(1,0,0,-1,112.8893,111.76961)" d="M0 0C0 .76-.221 1.372-.674 1.851-1.127 2.328-1.704 2.574-2.39 2.574-3.076 2.574-3.652 2.328-4.106 1.851-4.559 1.372-4.78 .76-4.78 0-4.78-.748-4.559-1.361-4.106-1.839-3.652-2.316-3.076-2.561-2.39-2.561-1.691-2.561-1.127-2.329-.674-1.851-.221-1.373 0-.76 0 0M2.169 0C2.169-1.263 1.74-2.292 .882-3.101 .012-3.922-1.079-4.327-2.39-4.327-3.701-4.327-4.78-3.922-5.626-3.126-6.496-2.305-6.937-1.263-6.937 0-6.937 1.262-6.496 2.304-5.626 3.138-4.804 3.934-3.726 4.326-2.39 4.326-1.054 4.326 .037 3.934 .858 3.138 1.728 2.304 2.169 1.262 2.169 0" fill="#006c45"/>
<path transform="matrix(1,0,0,-1,122.3628,113.60831)" d="M0 0C0-.772-.294-1.372-.87-1.814-1.446-2.267-2.255-2.488-3.309-2.488-4.35-2.488-5.319-2.218-6.214-1.679V.184C-5.074-.514-4.118-.87-3.358-.87-2.525-.87-2.108-.625-2.108-.122-2.108 .11-2.206 .294-2.39 .429-2.525 .527-2.794 .65-3.223 .797-4.326 1.177-5.111 1.581-5.576 1.986-6.103 2.439-6.361 3.027-6.361 3.751-6.361 4.449-6.066 5.038-5.491 5.491-4.915 5.945-4.155 6.165-3.199 6.165-2.255 6.165-1.311 5.932-.355 5.479V3.763C-1.446 4.314-2.365 4.596-3.088 4.596-3.91 4.596-4.314 4.376-4.314 3.922-4.314 3.592-3.934 3.273-3.186 2.99-2.5 2.734-2.144 2.623-2.096 2.586-1.704 2.427-1.385 2.255-1.103 2.096-.367 1.642 0 .944 0 0" fill="#006c45"/>
<path transform="matrix(1,0,0,-1,131.371,113.43631)" d="M0 0C0 .698-.503 1.054-1.52 1.054H-2.721V-.981H-1.508C-.968-.981-.589-.907-.356-.76-.123-.613 0-.356 0 0M-.515 3.419C-.515 4.057-.895 4.375-1.642 4.375H-2.721V2.549H-1.642C-.895 2.549-.515 2.843-.515 3.419M2.218-.11C2.218-1.716 1.115-2.513-1.091-2.513H-4.829V5.858H-1.741C.478 5.858 1.593 5.147 1.593 3.713 1.593 2.941 1.225 2.402 .478 2.071 1.642 1.704 2.218 .98 2.218-.11" fill="#006c45"/>
<path transform="matrix(1,0,0,-1,142.1553,115.2507)" d="M0 0C-.993-.564-2.059-.846-3.199-.846-4.534-.846-5.626-.453-6.447 .331-7.317 1.152-7.746 2.194-7.746 3.481-7.746 4.78-7.317 5.822-6.459 6.619-5.589 7.415-4.436 7.82-3.002 7.82-2.01 7.82-1.029 7.587-.074 7.133V5.172C-.993 5.773-1.924 6.067-2.868 6.067-3.713 6.067-4.375 5.834-4.853 5.38-5.344 4.915-5.589 4.277-5.589 3.481-5.589 2.709-5.356 2.096-4.902 1.618-4.436 1.14-3.812 .907-3.027 .907-2.035 .907-1.017 1.263 0 1.961Z" fill="#006c45"/>
</g>
</g>
</g>
</svg>
