<svg xmlns="http://www.w3.org/2000/svg" xmlns:xlink="http://www.w3.org/1999/xlink" version="1.1" width="155.906pt" height="155.906pt" viewBox="0 0 155.906 155.906">
<defs>
<clipPath id="clip_184">
<path transform="matrix(1,0,0,-1,0,155.906)" d="M0 155.906H155.906V0H0Z"/>
</clipPath>
</defs>
<g>
<g id="layer_1" data-name="bg orange">
</g>
<g id="layer_1" data-name="BOXES">
</g>
<g id="layer_1" data-name="LOGOS">
<path transform="matrix(1,0,0,-1,63.2938,42.759508)" d="M0 0-3.998 2.437-7.974-.035-6.891 4.52-10.471 7.537-5.804 7.915-4.041 12.252-2.24 7.931 2.43 7.594-1.123 4.545Z" fill="#bdc0c3"/>
<path transform="matrix(1,0,0,-1,100.0501,42.759508)" d="M0 0-3.997 2.437-7.974-.035-6.891 4.52-10.471 7.537-5.805 7.915-4.041 12.252-2.239 7.931 2.43 7.594-1.123 4.545Z" fill="#bdc0c3"/>
<path transform="matrix(1,0,0,-1,82.8282,37.463808)" d="M0 0-5.147 3.138-10.266-.045-8.872 5.819-13.481 9.704-7.473 10.19-5.203 15.774-2.884 10.211 3.128 9.778-1.446 5.852Z" fill="#c6941a"/>
<g clip-path="url(#clip_184)">
<path transform="matrix(1,0,0,-1,78.1193,48.067209)" d="M0 0C21.877-.092 39.552-17.815 39.461-39.601 39.384-57.599 27.181-72.742 10.572-77.389L.205-86.15-9.832-77.665C-27.113-73.35-39.873-57.769-39.794-39.267-39.704-17.481-21.889 .092 0 0" fill="#0e0c0a"/>
<path transform="matrix(1,0,0,-1,78.1139,49.269105)" d="M0 0C21.101-.09 38.16-17.281 38.07-38.406 37.996-55.874 26.194-70.563 10.156-75.059L.218-83.538-9.601-75.299C-26.225-71.078-38.481-55.978-38.406-38.083-38.316-16.958-21.127 .088 0 0" fill="#ffffff"/>
<path transform="matrix(1,0,0,-1,78.1223,50.433404)" d="M0 0C20.466-.086 37.009-16.758 36.924-37.237 36.838-57.718 20.154-74.247-.313-74.16-20.806-74.074-37.338-57.404-37.25-36.923-37.164-16.444-20.493 .088 0 0" fill="#0e0c0a"/>
<path transform="matrix(1,0,0,-1,78.1954,51.59781)" d="M0 0C19.872-.083 35.926-16.273 35.842-36.159 35.769-53.6 23.295-68.093 6.809-71.333L6.794-74.876 .086-80.318-6.691-74.819-6.677-71.42C-23.498-68.337-36.235-53.555-36.16-35.855-36.076-15.971-19.885 .085 0 0" fill="#ffffff"/>
<path transform="matrix(1,0,0,-1,66.5235,111.772609)" d="M0 0-2.412 1.198-3.063 .064C-5.279 2.141-7.722 2.101-8.816 .359-11.122-3.819-5.829-5.767-3.146-7.112ZM-3.845-1.303-5.265-3.845C-6.607-3.283-7.353-2.324-6.871-1.291-6.336-.361-5.212-.366-3.845-1.303" fill="#0e0c0a"/>
<path transform="matrix(1,0,0,-1,43.5429,88.7002)" d="M0 0 1.786 .186 2.008-1.768 7.752-1.262 8.015-3.423 2.334-4.522 2.557-6.643 .759-6.87Z" fill="#0e0c0a"/>
<path transform="matrix(1,0,0,-1,43.5641,83.63161)" d="M0 0-.092-3.027 7.642-3.083 7.691-.602Z" fill="#0e0c0a"/>
<path transform="matrix(1,0,0,-1,43.7671,81.281108)" d="M0 0 2.356 6.754 6.979 2.324 7.946 4.609 9.338 3.944 7.555-2.06 2.83 2.511 1.716-.937Z" fill="#0e0c0a"/>
<path transform="matrix(1,0,0,-1,88.4738,112.7449)" d="M0 0 2.383 1.166 3.218-.285 4.682 .471 3.964 1.899 5.923 3.169 10.087-2.487 7.598-4.014 5.364-.554 3.756-1.464 5.499-5.234 2.882-6.541Z" fill="#0e0c0a"/>
<path transform="matrix(1,0,0,-1,85.1402,112.23961)" d="M0 0-.057-13.291-1.484-14.527-1.424-.369C-1.8-.458-2.187-.534-2.574-.609L-2.639-15.504-4.065-16.739-3.998-.825C-4.296-.861-4.593-.898-4.904-.922L-4.974-17.51-6.401-18.746-6.326-1.008C-6.65-1.019-6.987-1.031-7.337-1.028H-7.4L-7.475-18.717-8.892-17.507-8.822-.985C-9.171-.957-9.52-.929-9.869-.891L-9.935-16.624-11.353-15.428-11.29-.703C-11.601-.662-11.912-.609-12.22-.543L-12.281-14.636-13.698-13.439-13.64-.228C-24.826 2.64-33.07 12.812-33.019 24.872-32.973 36.044-25.834 45.53-15.877 49.082-19.91 55.266-19.911 61.434-17.622 67.603L-14.579 65.652-12.029 69.519-10.096 67.574-8.284 71.211-7.097 70.612-6.06 71.357-3.994 67.69-1.969 69.4 .406 65.511 3.621 67.656C5.891 60.446 5.801 54.15 1.823 48.944H1.796C11.634 45.269 18.615 35.761 18.567 24.656 18.518 12.968 10.693 3.124 0 0" fill="#0e0c0a"/>
<path transform="matrix(1,0,0,-1,78.0826,62.780206)" d="M0 0C13.666-.058 24.699-11.198 24.643-24.865 24.585-38.518 13.457-49.564-.208-49.507-13.876-49.449-24.922-38.309-24.864-24.656-24.805-10.989-13.666 .059 0 0" fill="#ffffff"/>
<path transform="matrix(1,0,0,-1,78.0783,63.879907)" d="M0 0C13.045-.055 23.601-10.702 23.547-23.76 23.493-36.805 12.846-47.349-.201-47.293-13.258-47.239-23.802-36.605-23.747-23.56-23.692-10.502-13.059 .056 0 0" fill="#0e0c0a"/>
<path transform="matrix(1,0,0,-1,78.1,73.96361)" d="M0 0C7.513-.033 13.602-6.161 13.57-13.7 13.538-21.212 7.397-27.301-.116-27.269-7.653-27.236-13.73-21.096-13.698-13.583-13.665-6.046-7.537 .031 0 0" fill="#ffffff"/>
<path transform="matrix(1,0,0,-1,102.6793,76.84961)" d="M0 0 1.077-2.46 2.577-1.923C2.993-4.86 4.731-6.34 6.609-5.793 10.468-4.413 7.798 .343 6.594 3.038ZM3.679-1.579 6.294-.672C6.948-1.941 6.931-3.106 5.945-3.541 4.961-3.873 4.124-3.146 3.679-1.579" fill="#0e0c0a"/>
<path transform="matrix(1,0,0,-1,60.3736,107.8282)" d="M0 0-7.036-3.256-8.838-1.425-5.172 6.031-3.579 3.789-3.932 2.95-2.079 .976-1.338 1.323ZM-4.559 1.44-5.421-.587-3.477 .324Z" fill="#0e0c0a"/>
<path transform="matrix(1,0,0,-1,55.0741,101.045009)" d="M0 0-1.088 2.227-2.877 1.434C-2.89 1.485-2.889 1.525-2.901 1.563L-1.794 3.513-3.008 6.605-4.352 4.647C-5.122 5.478-6.104 5.78-7.126 5.369-11.298 3.461-8.099-1.285-6.713-3.941ZM-4.21 .677-6.44-.399C-8.032 1.934-5.773 4.29-4.21 .677" fill="#0e0c0a"/>
<path transform="matrix(1,0,0,-1,54.4498,74.82181)" d="M0 0-.913-1.586-6.058 4.835-4.625 7.313 3.499 5.261 1.926 3.174 .776 3.345-.733 .998ZM-.917 3.689-3.202 4.164-1.853 2.425Z" fill="#0e0c0a"/>
<path transform="matrix(1,0,0,-1,98.9433,104.502109)" d="M0 0 1.077 1.264 4.758-5.747 2.85-7.627-4.376-4.274-2.624-2.702-1.307-3.213 .576-1.063ZM-.029-3.762 2.397-4.574 1.179-2.281Z" fill="#0e0c0a"/>
<path transform="matrix(1,0,0,-1,59.9112,67.08841)" d="M0 0-1.661-1.518-6.477 3.313-4.62 5.062 .627 4.189-1.623 7.508 .647 9.089 4.37 3.242 2.465 1.853-1.605 2.27Z" fill="#0e0c0a"/>
<path transform="matrix(1,0,0,-1,93.5218,65.4828)" d="M0 0-2.256 1.535 1.559 7.893 8.401 2.433 3.416-2.823 1.65-1.209 5.095 3.185 3.381 4.561Z" fill="#0e0c0a"/>
<path transform="matrix(1,0,0,-1,97.3472,68.86181)" d="M0 0 7.873 2.294 9.53 .064 5-7.12 3.433-4.462 4.125-3.468 2.516-1.29 1.222-1.529ZM3.875-.882 4.84-2.27 6.155-.129Z" fill="#0e0c0a"/>
<path transform="matrix(1,0,0,-1,104.6346,85.4157)" d="M0 0 5.896 .027 5.905 2.276 7.418 2.27 7.39-4.596 5.902-4.588 5.886-2.248 .043-2.224Z" fill="#0e0c0a"/>
<path transform="matrix(1,0,0,-1,111.9418,90.851909)" d="M0 0-.295-2.882-5.141-2.329-3.343-4.834-1.07-5.658-1.804-8.059-8.505-5.731-7.863-3.638-5.566-4.398-7.415-1.932-7.25 .6Z" fill="#0e0c0a"/>
<path transform="matrix(1,0,0,-1,109.8871,100.035)" d="M0 0-3.277-7.033-4.545-4.481C-8.001-5.061-10.062-3.76-8.482-.146-7.531 1.609-6.145 2.211-4.44 2.01L-4.496 1.118C-7.753 1.184-7.834-2.825-5.04-2.127L-4.97-1.156-3.664-1.11-2.805-3.001-1.149 .613Z" fill="#0e0c0a"/>
<path transform="matrix(1,0,0,-1,78.021,74.4559)" d="M0 0 2.728-8.96 12.556-9 4.837-14.89 7.823-24.108-.079-18.514-7.666-24.041-4.859-14.965-12.645-9.152-2.935-9.065Z" fill="#e10b17"/>
<path transform="matrix(1,0,0,-1,70.1951,62.850809)" d="M0 0C-2.668 4.874-4.055 10.114-2.013 16.338L.515 14.697 3.063 18.335 5.073 16.309 6.95 20.114 7.917 19.361 8.671 20.03 10.801 16.516 12.747 17.997 15.046 14.405 17.962 16.112C19.992 10.052 18.781 4.77 15.722-.092 13.23 .719 10.581 1.171 7.828 1.183 5.1 1.193 2.474 .778 0 0" fill="#ffffff"/>
<path transform="matrix(1,0,0,-1,68.8724,48.714303)" d="M0 0 2.282-1.406C2.032-5.426 2.638-9.19 4.264-12.636L2.802-12.979C-.312-9.346-.874-4.896 0 0M9.78 4.484 9.58-12.233 10.576-12.236C12.982-5.78 11.763 2.784 9.78 4.484M14.503 2.499C15.961-1.607 15.977-7.101 13.613-12.456L11.506-12.241C12.934-8.045 13.314-3.805 12.168 .517ZM18.631-.078 16.335-1.464C16.553-5.487 15.928-9.247 14.272-12.679L15.718-13.034C18.861-9.427 19.463-4.982 18.631-.078M8.901 4.489 8.973-12.23 7.951-12.225C5.599-5.751 6.89 2.803 8.901 4.489M3.927 2.544C2.437-1.549 2.607-7.045 4.925-12.418L7.033-12.222C5.642-8.014 5.286-3.772 6.465 .542Z" fill="#e10b17"/>
<path transform="matrix(1,0,0,-1,62.1229,82.261608)" d="M0 0-.315-1.216-1.828-1.493-1.391-1.988-.565-2.197-.829-3.243-4.407-2.335-4.142-1.288-2.67-1.67-3.892-.308-3.643 .687-2.563-.559ZM.77 1.597C.98 2.064 1.004 2.529 .828 2.97 .649 3.422 .287 3.773-.242 4.021-.757 4.256-1.235 4.309-1.688 4.157-2.13 4.004-2.468 3.707-2.675 3.229-2.923 2.726-2.938 2.261-2.745 1.821-2.554 1.38-2.206 1.055-1.716 .821-1.186 .573-.696 .519-.243 .673 .21 .812 .548 1.135 .77 1.597M-.004 1.952C-.149 1.628-.535 1.618-1.155 1.904-1.828 2.218-2.084 2.542-1.914 2.878-1.771 3.2-1.408 3.212-.826 2.938-.427 2.756-.17 2.586-.055 2.43 .062 2.288 .088 2.133-.004 1.952M.625 3.965 1.093 4.921C1.391 4.816 1.638 4.918 1.858 5.215 2.028 5.445 2.054 5.602 1.925 5.693 1.86 5.733 1.796 5.745 1.717 5.718 1.64 5.694 1.55 5.617 1.419 5.501 .926 5.05 .551 4.819 .28 4.781 .008 4.756-.226 4.822-.444 4.98-.727 5.187-.881 5.458-.919 5.821-.943 6.171-.812 6.544-.527 6.945-.071 7.552 .459 7.768 1.093 7.609L.766 6.679C.508 6.747 .287 6.669 .117 6.425-.024 6.219-.039 6.075 .079 5.986 .141 5.946 .195 5.934 .259 5.958 .323 5.984 .413 6.048 .544 6.165 .881 6.46 1.127 6.666 1.296 6.768 1.465 6.884 1.659 6.934 1.879 6.933 2.085 6.933 2.292 6.856 2.486 6.712 2.782 6.491 2.935 6.193 2.948 5.804 2.959 5.431 2.814 5.043 2.516 4.642 1.982 3.907 1.361 3.691 .625 3.965M-2.078 6.705-.744 7.074-.805 8.459-1.22 7.982-1.198 7.412-1.754 7.247ZM5.333 7.656 6.229 8.39 2.967 10.498 2.046 9.726 3.53 6.152 4.243 6.743 3.949 7.444 4.714 8.086ZM3.578 8.194 3.129 9.204 4.045 8.581ZM9.405 10.2 8.302 9.595 7.143 10.57 6.833 10.404 7.513 9.16 6.514 8.62 4.744 11.862 6.428 12.798C6.805 13.004 7.14 13.067 7.451 13.013 7.748 12.947 7.979 12.779 8.133 12.48 8.238 12.301 8.3 12.117 8.299 11.923 8.299 11.743 8.221 11.536 8.038 11.292ZM6.447 11.103 6.875 11.333C7.005 11.4 7.096 11.489 7.135 11.58 7.185 11.67 7.175 11.773 7.122 11.864 7.007 12.072 6.827 12.111 6.567 11.97L6.113 11.713ZM13.12 11.217 11.394 13.192 11.957 14.739 10.972 14.471 10.372 12.742 9.977 14.218 8.941 13.937 9.883 10.366 10.918 10.632 10.702 11.461 10.937 12.079 11.916 10.901ZM15.473 11.415 15.218 12.14 14.222 12.066 14.05 11.331 13.132 11.271 14.028 15.028 15.23 15.115 16.625 11.5ZM14.353 12.894 14.963 12.929 14.59 13.978ZM16.72 12.548 17.78 12.595C17.829 12.296 18.036 12.115 18.398 12.062 18.683 12.035 18.839 12.086 18.851 12.241 18.864 12.318 18.839 12.383 18.788 12.434 18.723 12.487 18.607 12.54 18.452 12.592 17.819 12.801 17.432 13.023 17.265 13.242 17.112 13.464 17.047 13.709 17.087 13.981 17.128 14.316 17.297 14.588 17.582 14.794 17.88 14.986 18.268 15.05 18.76 14.996 19.509 14.89 19.972 14.525 20.125 13.904L19.168 13.739C19.092 13.999 18.912 14.141 18.626 14.181 18.368 14.209 18.239 14.146 18.226 14.002 18.211 13.926 18.237 13.873 18.288 13.834 18.341 13.783 18.443 13.73 18.599 13.677 19.026 13.533 19.321 13.402 19.504 13.312 19.67 13.22 19.811 13.077 19.914 12.884 20.016 12.701 20.054 12.483 20.029 12.25 19.975 11.887 19.792 11.603 19.455 11.411 19.132 11.217 18.719 11.157 18.226 11.209 17.334 11.33 16.834 11.77 16.72 12.548M17.795 16.241 18.428 16.212 18.839 15.81 19.346 16.105 19.966 15.974 18.774 15.254ZM23.431 9.817 22.244 10.197 22.082 11.736 21.536 11.337 21.275 10.524 20.255 10.851 21.421 14.376 22.427 14.037 21.956 12.591 23.409 13.721 24.376 13.394 23.054 12.405ZM26.44 12.183 25.46 12.743 23.649 9.506 24.643 8.959ZM28.753 5.541 27.839 6.398 28.336 7.843 27.689 7.716 27.106 7.086 26.32 7.826 28.85 10.518 29.636 9.79 28.587 8.671 30.371 9.09 31.118 8.388 29.512 8.046ZM31.15 3.643 30.3 4.824 32.572 6.454 31.903 7.377 28.905 5.217 30.424 3.116ZM35.2 1.623 32.973 .597C32.545 .405 32.183 .38 31.888 .55 31.591 .72 31.346 .991 31.165 1.406 30.961 1.82 30.898 2.208 30.951 2.545 31.017 2.879 31.251 3.138 31.639 3.33L33.919 4.381 34.407 3.331 32.243 2.332C32.086 2.255 31.984 2.178 31.944 2.075 31.905 1.973 31.918 1.844 31.982 1.687 32.045 1.57 32.111 1.479 32.201 1.427 32.292 1.363 32.382 1.35 32.446 1.361 32.524 1.375 32.668 1.425 32.861 1.514L34.829 2.426ZM31.946-.511 32.365-2.218C32.505-2.75 32.686-3.087 32.943-3.191 33.19-3.308 33.446-3.335 33.719-3.259 34.16-3.157 34.382-2.848 34.382-2.358 34.485-2.552 34.626-2.683 34.794-2.734 34.964-2.812 35.131-2.812 35.31-2.774 35.556-2.711 35.765-2.569 35.907-2.351 36.052-2.131 36.08-1.834 35.99-1.446L35.544 .366ZM34.414-.987 35.022-.834 35.136-1.327C35.2-1.572 35.135-1.713 34.927-1.766 34.863-1.79 34.786-1.776 34.709-1.738 34.631-1.7 34.566-1.621 34.542-1.49ZM33.002-1.33 33.65-1.165 33.777-1.67C33.817-1.825 33.803-1.954 33.75-2.032 33.698-2.109 33.633-2.148 33.543-2.174 33.466-2.199 33.387-2.185 33.297-2.132 33.221-2.095 33.168-2.003 33.13-1.861Z" fill="#ffffff"/>
<path transform="matrix(1,0,0,-1,58.0845,92.51291)" d="M0 0 3.534 1.125 4.11-.663C4.224-1.024 4.208-1.334 4.079-1.568 3.949-1.787 3.767-1.941 3.522-2.017 3.34-2.081 3.172-2.08 2.992-2.029 2.824-1.976 2.681-1.858 2.566-1.677 2.602-2.168 2.394-2.477 1.967-2.619 1.696-2.707 1.437-2.707 1.178-2.6 .92-2.51 .716-2.199 .55-1.683ZM2.496-.295 2.662-.799C2.698-.928 2.763-1.006 2.84-1.033 2.918-1.072 2.995-1.073 3.073-1.046 3.267-.982 3.32-.826 3.242-.594L3.09-.103ZM1.11-.739 1.274-1.271C1.326-1.402 1.377-1.492 1.467-1.531 1.557-1.569 1.635-1.569 1.715-1.545 1.791-1.518 1.854-1.467 1.908-1.389 1.961-1.3 1.961-1.183 1.908-1.027L1.756-.537ZM2.343-5.633 2.861-5.093 2.375-4.224 1.637-4.401 1.175-3.598 4.954-2.762 5.543-3.797 2.908-6.643ZM3.176-3.994 3.473-4.513 4.251-3.728ZM4.07-6.364C3.629-6.997 3.691-7.668 4.271-8.356 4.58-8.745 4.928-8.98 5.302-9.06 5.674-9.137 5.999-9.061 6.298-8.829 6.48-8.675 6.598-8.495 6.65-8.288 6.702-8.083 6.704-7.888 6.639-7.695 6.575-7.499 6.436-7.214 6.217-6.813 6.138-6.657 6.101-6.554 6.101-6.49 6.09-6.424 6.114-6.359 6.168-6.321 6.284-6.219 6.426-6.27 6.579-6.464 6.773-6.686 6.799-6.918 6.68-7.151L7.493-7.697C7.805-7.118 7.717-6.548 7.241-5.965 6.919-5.588 6.585-5.366 6.237-5.313 5.899-5.26 5.589-5.335 5.317-5.568 5.109-5.736 4.992-5.954 4.951-6.226 4.911-6.498 5.052-6.923 5.372-7.494 5.464-7.649 5.502-7.765 5.513-7.844 5.514-7.921 5.487-7.986 5.436-8.037 5.319-8.141 5.164-8.075 4.983-7.854 4.753-7.569 4.715-7.311 4.884-7.051ZM8.727-12.306 7.748-11.538 8.103-10.041 7.469-10.232 6.949-10.902 6.098-10.24 8.398-7.338 9.237-8.002 8.288-9.202 10.036-8.626 10.835-9.263 9.268-9.748ZM12.291-13.239 10.809-12.482 11.081-11.94 12.282-12.567 12.66-11.83 11.46-11.218 11.707-10.74 13.191-11.498 13.582-10.735 11.106-9.471 9.41-12.761 11.888-14.025ZM15.232-12.177 14.302-14.838 13.282-14.485 14.211-11.823 13.488-11.576 13.776-10.735 16.242-11.599 15.954-12.439ZM15.852-15.232 17.61-15.446C18.153-15.526 18.526-15.463 18.722-15.27 18.917-15.076 19.033-14.844 19.062-14.572 19.115-14.109 18.923-13.796 18.457-13.626 18.678-13.59 18.833-13.511 18.963-13.383 19.079-13.24 19.158-13.087 19.173-12.906 19.211-12.648 19.148-12.413 18.994-12.194 18.841-11.974 18.569-11.843 18.181-11.803L16.32-11.562ZM17.18-13.105 17.26-12.484 17.765-12.538C18.01-12.577 18.125-12.694 18.099-12.901 18.086-12.978 18.059-13.042 17.994-13.094 17.93-13.158 17.838-13.184 17.709-13.158ZM16.992-14.538 17.086-13.879 17.591-13.946C17.758-13.96 17.86-14.012 17.926-14.09 17.976-14.169 17.989-14.257 17.99-14.335 17.976-14.426 17.937-14.489 17.859-14.555 17.78-14.607 17.677-14.633 17.549-14.617ZM21.98-15.452 21.711-14.739 20.728-14.825 20.568-15.576 19.65-15.649 20.495-11.864 21.671-11.765 23.131-15.352ZM20.847-14.011 21.442-13.963 21.06-12.913ZM26.266-13.673 24.856-14.068 24.104-11.375 23.004-11.68 24.01-15.253 26.508-14.54ZM29.388-12.302 29.773-13.131 27.413-14.223 25.866-10.853 26.9-10.377 28.067-12.918ZM32.453-9.511 33.294-8.919C33.539-9.293 33.627-9.669 33.562-10.044 33.483-10.407 33.286-10.728 32.962-10.986 32.574-11.306 32.147-11.421 31.707-11.355 31.254-11.289 30.842-11.027 30.481-10.574 30.109-10.12 29.928-9.669 29.944-9.201 29.946-8.749 30.155-8.348 30.558-8.026 30.946-7.718 31.322-7.592 31.697-7.632 32.072-7.684 32.406-7.868 32.716-8.191L31.923-8.9C31.77-8.706 31.627-8.601 31.486-8.573 31.344-8.548 31.214-8.573 31.124-8.651 30.837-8.882 30.927-9.269 31.377-9.829 31.622-10.14 31.84-10.334 31.996-10.387 32.165-10.44 32.306-10.413 32.435-10.31 32.668-10.118 32.67-9.86 32.453-9.511M35.773-6.744 34.838-7.851 32.699-6.045 31.972-6.908 34.793-9.299 36.469-7.328ZM35.302-2.1 37.416-3.336C37.816-3.572 38.036-3.856 38.073-4.205 38.11-4.542 38.019-4.903 37.798-5.291 37.561-5.692 37.289-5.963 36.978-6.116 36.665-6.255 36.319-6.215 35.931-5.995L33.765-4.731 34.351-3.737 36.401-4.936C36.556-5.015 36.687-5.054 36.788-5.028 36.905-5.004 36.996-4.925 37.088-4.784 37.152-4.668 37.178-4.551 37.178-4.448 37.166-4.346 37.142-4.254 37.077-4.215 37.025-4.15 36.91-4.072 36.717-3.968L34.846-2.874ZM38.919-2.929 39.507-1.277C39.69-.748 39.704-.375 39.55-.141 39.409 .081 39.204 .25 38.945 .339 38.506 .485 38.156 .356 37.895-.056 37.911 .152 37.858 .333 37.756 .488 37.654 .632 37.512 .735 37.33 .801 37.098 .879 36.853 .867 36.605 .764 36.362 .662 36.177 .431 36.048 .057L35.433-1.713ZM37.115-1.189 36.523-.993 36.691-.516C36.771-.269 36.912-.193 37.107-.259 37.183-.286 37.235-.335 37.286-.402 37.325-.48 37.325-.569 37.285-.7ZM38.485-1.674 37.852-1.452 38.02-.973C38.073-.806 38.151-.714 38.244-.677 38.333-.651 38.411-.639 38.486-.664 38.566-.693 38.629-.757 38.68-.833 38.719-.925 38.72-1.029 38.667-1.158Z" fill="#ffffff"/>
</g>
</g>
</g>
</svg>
