<svg xmlns="http://www.w3.org/2000/svg" xmlns:xlink="http://www.w3.org/1999/xlink" version="1.1" width="155.906pt" height="155.906pt" viewBox="0 0 155.906 155.906">
<defs>
<clipPath id="clip_186">
<path transform="matrix(1,0,0,-1,0,155.906)" d="M0 155.906H155.906V0H0Z"/>
</clipPath>
</defs>
<g>
<g id="layer_1" data-name="bg orange">
</g>
<g id="layer_1" data-name="BOXES">
</g>
<g id="layer_1" data-name="LOGOS">
<g clip-path="url(#clip_186)">
<path transform="matrix(1,0,0,-1,73.2091,54.969705)" d="M0 0C-.407 0-.739 .33-.739 .738-.739 1.145-.407 1.475 0 1.475 .409 1.475 .741 1.145 .741 .738 .741 .33 .409 0 0 0M-9.146-2.466C-9.553-2.466-9.885-2.135-9.885-1.727-9.885-1.32-9.553-.99-9.146-.99-8.736-.99-8.405-1.32-8.405-1.727-8.405-2.135-8.736-2.466-9.146-2.466M9.488 0C9.08 0 8.748 .33 8.748 .738 8.748 1.145 9.08 1.475 9.488 1.475 9.897 1.475 10.23 1.145 10.23 .738 10.23 .33 9.897 0 9.488 0M26.528 3.873C27.171 3.521 27.405 2.714 27.052 2.073 26.696 1.431 25.889 1.198 25.246 1.551 24.603 1.905 24.369 2.711 24.723 3.351 25.076 3.993 25.885 4.227 26.528 3.873M2.4 19.485C1.991 19.485 1.659 19.815 1.659 20.223 1.659 20.631 1.991 20.961 2.4 20.961 2.807 20.961 3.139 20.631 3.139 20.223 3.139 19.815 2.807 19.485 2.4 19.485M4.744 17.192C4.335 17.192 4.004 17.522 4.004 17.93 4.004 18.338 4.335 18.669 4.744 18.669 5.153 18.669 5.484 18.338 5.484 17.93 5.484 17.522 5.153 17.192 4.744 17.192M4.744 14.516C4.335 14.516 4.004 14.847 4.004 15.255 4.004 15.662 4.336 15.993 4.744 15.993 5.153 15.993 5.484 15.662 5.484 15.255 5.484 14.847 5.153 14.516 4.744 14.516M4.744 11.841C4.335 11.841 4.004 12.172 4.004 12.579 4.004 12.986 4.335 13.316 4.744 13.316 5.153 13.316 5.484 12.986 5.484 12.579 5.484 12.172 5.153 11.841 4.744 11.841M-.014 19.064C-.422 19.064-.754 19.395-.754 19.802-.754 20.21-.422 20.54-.014 20.54 .394 20.54 .725 20.21 .725 19.802 .725 19.395 .394 19.064-.014 19.064M-2.369 18.192C-2.777 18.192-3.109 18.523-3.109 18.929-3.109 19.338-2.777 19.668-2.369 19.668-1.961 19.668-1.63 19.338-1.63 18.929-1.63 18.523-1.961 18.192-2.369 18.192M-4.637 16.687C-5.046 16.687-5.378 17.018-5.378 17.424-5.378 17.832-5.046 18.163-4.637 18.163-4.23 18.163-3.898 17.832-3.898 17.424-3.898 17.017-4.23 16.687-4.637 16.687M-6.371 14.695C-6.779 14.695-7.11 15.025-7.11 15.432-7.11 15.841-6.779 16.171-6.371 16.171-5.962 16.171-5.63 15.841-5.63 15.432-5.63 15.025-5.962 14.695-6.371 14.695M-8.736 14.893C-9.145 14.893-9.476 15.222-9.476 15.631-9.476 16.038-9.146 16.368-8.736 16.368-8.327 16.368-7.997 16.038-7.997 15.631-7.997 15.222-8.327 14.893-8.736 14.893M-11.056 13.987C-11.464 13.987-11.796 14.318-11.796 14.725-11.796 15.133-11.464 15.464-11.056 15.464-10.648 15.464-10.317 15.133-10.317 14.725-10.317 14.317-10.648 13.987-11.056 13.987M-13.212 12.424C-13.622 12.424-13.953 12.754-13.953 13.162-13.953 13.569-13.622 13.9-13.212 13.9-12.805 13.9-12.474 13.569-12.474 13.162-12.474 12.754-12.805 12.424-13.212 12.424M-14.968 10.367C-15.376 10.367-15.707 10.697-15.707 11.104-15.707 11.512-15.376 11.843-14.968 11.843-14.558 11.843-14.228 11.512-14.228 11.104-14.228 10.697-14.558 10.367-14.968 10.367M-16.071 8.053C-16.481 8.053-16.811 8.383-16.811 8.791-16.811 9.198-16.481 9.529-16.071 9.529-15.663 9.529-15.331 9.198-15.331 8.791-15.331 8.383-15.663 8.053-16.071 8.053M-16.683 5.416C-17.092 5.416-17.423 5.747-17.423 6.155-17.423 6.562-17.092 6.892-16.683 6.892-16.275 6.892-15.944 6.562-15.944 6.155-15.944 5.747-16.275 5.416-16.683 5.416M-7.532 12.373C-7.939 12.373-8.271 12.704-8.271 13.111-8.271 13.519-7.939 13.849-7.532 13.849-7.123 13.849-6.792 13.519-6.792 13.111-6.792 12.704-7.123 12.373-7.532 12.373M-8.146 9.734C-8.553 9.734-8.884 10.065-8.884 10.472-8.884 10.879-8.553 11.21-8.146 11.21-7.737 11.21-7.405 10.879-7.405 10.472-7.405 10.065-7.737 9.734-8.146 9.734M4.744 7.43C4.011 7.43 3.416 8.023 3.416 8.755 3.416 9.486 4.011 10.081 4.744 10.081 5.478 10.081 6.072 9.486 6.072 8.755 6.072 8.023 5.478 7.43 4.744 7.43M-6.275 6.04C-6.987 5.857-7.71 6.283-7.894 6.993-8.076 7.702-7.648 8.424-6.937 8.606-6.227 8.789-5.503 8.362-5.32 7.653-5.136 6.944-5.565 6.222-6.275 6.04M-15.758 1.551C-16.401 1.198-17.208 1.431-17.563 2.073-17.916 2.714-17.682 3.521-17.04 3.873-16.396 4.227-15.588 3.993-15.235 3.351-14.881 2.71-15.114 1.905-15.758 1.551M7.088 20.961C7.498 20.961 7.828 20.631 7.828 20.223 7.828 19.815 7.498 19.485 7.088 19.485 6.681 19.485 6.35 19.815 6.35 20.223 6.35 20.631 6.681 20.961 7.088 20.961M9.502 20.54C9.911 20.54 10.243 20.21 10.243 19.802 10.243 19.395 9.911 19.064 9.502 19.064 9.094 19.064 8.764 19.395 8.764 19.802 8.764 20.21 9.094 20.54 9.502 20.54M11.857 19.668C12.266 19.668 12.598 19.338 12.598 18.929 12.598 18.523 12.266 18.192 11.857 18.192 11.448 18.192 11.118 18.523 11.118 18.929 11.118 19.338 11.449 19.668 11.857 19.668M14.125 18.163C14.536 18.163 14.865 17.832 14.865 17.424 14.865 17.018 14.536 16.687 14.125 16.687 13.716 16.687 13.387 17.017 13.387 17.424 13.387 17.832 13.716 18.163 14.125 18.163M15.859 16.171C16.267 16.171 16.598 15.841 16.598 15.432 16.598 15.025 16.267 14.695 15.859 14.695 15.451 14.695 15.119 15.025 15.119 15.432 15.119 15.84 15.451 16.171 15.859 16.171M18.224 16.368C18.633 16.368 18.964 16.038 18.964 15.631 18.964 15.222 18.633 14.893 18.224 14.893 17.816 14.893 17.485 15.222 17.485 15.631 17.485 16.038 17.816 16.368 18.224 16.368M20.544 15.464C20.952 15.464 21.284 15.133 21.284 14.725 21.284 14.318 20.952 13.987 20.544 13.987 20.134 13.987 19.804 14.317 19.804 14.725 19.804 15.133 20.134 15.464 20.544 15.464M22.701 13.9C23.11 13.9 23.441 13.569 23.441 13.162 23.441 12.754 23.11 12.424 22.701 12.424 22.293 12.424 21.962 12.754 21.962 13.162 21.962 13.569 22.293 13.9 22.701 13.9M24.455 11.843C24.865 11.843 25.197 11.512 25.197 11.104 25.197 10.697 24.865 10.367 24.455 10.367 24.047 10.367 23.715 10.697 23.715 11.104 23.715 11.512 24.047 11.843 24.455 11.843M25.56 9.529C25.969 9.529 26.299 9.198 26.299 8.791 26.299 8.383 25.969 8.053 25.56 8.053 25.151 8.053 24.822 8.383 24.822 8.791 24.822 9.199 25.151 9.529 25.56 9.529M26.173 6.892C26.581 6.892 26.91 6.562 26.91 6.155 26.91 5.747 26.58 5.416 26.173 5.416 25.763 5.416 25.432 5.747 25.432 6.155 25.432 6.562 25.763 6.892 26.173 6.892M17.019 13.849C17.426 13.849 17.759 13.519 17.759 13.111 17.759 12.704 17.427 12.373 17.019 12.373 16.612 12.373 16.281 12.704 16.281 13.111 16.281 13.519 16.612 13.849 17.019 13.849M17.633 11.21C18.043 11.21 18.373 10.879 18.373 10.472 18.373 10.065 18.043 9.734 17.633 9.734 17.225 9.734 16.894 10.065 16.894 10.472 16.894 10.879 17.225 11.21 17.633 11.21M16.426 8.606C17.137 8.424 17.565 7.702 17.382 6.993 17.198 6.283 16.476 5.857 15.764 6.04 15.053 6.222 14.626 6.944 14.808 7.653 14.991 8.362 15.715 8.789 16.426 8.606M-25.036-36.742C-25.036-20.365-11.638-7.035 4.744-7.035 21.125-7.035 34.524-20.365 34.524-36.742 34.524-53.084 21.125-66.45 4.744-66.45-11.637-66.45-25.036-53.084-25.036-36.742M18.633-2.466C18.226-2.466 17.894-2.135 17.894-1.727 17.894-1.32 18.226-.99 18.633-.99 19.043-.99 19.373-1.32 19.373-1.727 19.373-2.136 19.043-2.466 18.633-2.466" fill="#ffffff"/>
<path transform="matrix(1,0,0,-1,91.4812,46.020204)" d="M0 0C.5 .209 .877 .656 .985 1.199 1.78 1.023 2.677 .788 3.407 .502 4.097 .232 4.634-.135 5.027-.473 5.43-1.493 5.654-2.674 5.773-4.105 5.282-4.312 4.983-4.814 4.797-5.3 4.507-6.064 4.504-6.844 5.323-7.418 4.554-7.467 3.883-6.827 3.932-6.032 4.085-5.849 4.201-5.631 4.265-5.385 4.495-4.497 3.959-3.592 3.068-3.365 2.178-3.136 1.273-3.673 1.043-4.56 1.019-4.656 1.004-4.754 .996-4.851 .244-5.777-1.275-5.298-1.336-4.094 .06-4.371 .645-3.67 .888-2.729 1.091-1.938 1.011-1.15 .103-.669 .108-.418 .073-.196 0 0M-2.299-5.772C-2.885-5.608-3.479-5.457-4.075-5.318-3.6-5.111-3.182-4.775-2.878-4.344-2.819-4.868-2.616-5.362-2.299-5.772M1.753-6.366C1.899-6.46 2.062-6.533 2.241-6.578L2.342-6.6C2.417-6.928 2.546-7.244 2.726-7.533 2.101-7.269 1.471-7.019 .832-6.784 1.161-6.695 1.474-6.554 1.753-6.366M-13.528-3.001C-13.339-3.499-13.014-3.931-12.598-4.251-12.907-4.244-13.217-4.24-13.528-4.24-13.838-4.24-14.148-4.244-14.458-4.251-14.042-3.931-13.718-3.499-13.528-3.001M-29.782-7.533C-29.603-7.244-29.472-6.928-29.398-6.6L-29.296-6.578C-29.118-6.533-28.955-6.46-28.809-6.366-28.53-6.554-28.217-6.695-27.887-6.784-28.527-7.019-29.158-7.269-29.782-7.533M-22.98-5.318C-23.577-5.457-24.169-5.608-24.756-5.772-24.44-5.362-24.237-4.868-24.178-4.344-23.873-4.775-23.457-5.111-22.98-5.318M-19.03-3.637C-18.914-3.634-18.799-3.62-18.689-3.596-18.433-3.943-18.1-4.235-17.718-4.448-18.403-4.517-19.082-4.602-19.755-4.703-19.441-4.401-19.191-4.036-19.03-3.637M-8.035-3.637C-7.836-4.078-7.597-4.419-7.301-4.703-7.974-4.602-8.655-4.517-9.338-4.448-8.957-4.235-8.623-3.943-8.365-3.596-8.261-3.62-8.147-3.634-8.035-3.637" fill="#ef3952"/>
<path transform="matrix(1,0,0,-1,93.3992,57.189706)" d="M0 0 .994 .375 1.036 .204 1.235-.607 .457-1.039 .291-1.127 .211-.821ZM-30.892 0-31.102-.822-31.179-1.136-31.35-1.038-32.127-.607-31.92 .184-31.88 .356-31.608 .263ZM-13.079 3.197-15.446 2.317-17.812 3.197-15.446 4.077ZM-32.381 11.671C-31.653 11.957-30.753 12.193-29.959 12.369-29.851 11.825-29.474 11.378-28.974 11.169-29.046 10.973-29.082 10.751-29.076 10.5-29.985 10.019-30.065 9.23-29.861 8.441-29.619 7.499-29.033 6.798-27.639 7.075-27.697 5.871-29.219 5.393-29.97 6.319-29.977 6.416-29.992 6.514-30.017 6.61-30.246 7.498-31.153 8.033-32.042 7.804-32.931 7.577-33.468 6.673-33.239 5.785-33.176 5.539-33.059 5.32-32.906 5.137-32.877 4.648-33.125 4.163-33.583 3.911-33.81 3.786-34.057 3.736-34.297 3.751-33.478 4.325-33.48 5.105-33.771 5.869-33.956 6.357-34.257 6.857-34.747 7.064-34.627 8.495-34.404 9.677-34.005 10.693-33.61 11.033-33.074 11.399-32.381 11.671M-14.206 15.775C-11.52 16.172-8.058 15.911-5.411 14.446-5.159 13.74-4.985 12.995-4.897 12.227-5.19 12.085-5.439 11.843-5.629 11.479-6.657 11.494-7.109 10.842-7.313 10.052-7.555 9.11-7.382 8.215-6.024 7.786-6.319 7.311-6.898 7.059-7.468 7.205-8.036 7.352-8.42 7.848-8.451 8.402-8.323 8.637-8.25 8.905-8.25 9.191-8.25 10.107-8.993 10.851-9.913 10.851-10.831 10.851-11.576 10.108-11.576 9.191-11.576 9.043-11.557 8.9-11.519 8.764-11.695 8.246-12.186 7.874-12.764 7.874-13.352 7.874-13.849 8.261-14.014 8.793-12.595 8.873-12.203 9.697-12.203 10.669-12.203 11.485-12.478 12.228-13.478 12.468-13.633 13.131-14.02 13.493-14.517 13.666-14.189 13.934-13.979 14.341-13.979 14.799-13.979 15.086-14.062 15.355-14.206 15.582ZM-25.48 14.446C-22.835 15.911-19.372 16.171-16.686 15.775V15.582C-16.829 15.355-16.913 15.086-16.913 14.799-16.913 14.341-16.703 13.934-16.375 13.666-16.873 13.493-17.261 13.131-17.414 12.468-18.415 12.228-18.69 11.485-18.69 10.669-18.69 9.697-18.297 8.873-16.877 8.793-17.043 8.261-17.54 7.874-18.129 7.874-18.707 7.874-19.197 8.246-19.372 8.764-19.335 8.9-19.316 9.043-19.316 9.191-19.316 10.107-20.06 10.851-20.979 10.851-21.897 10.851-22.643 10.108-22.643 9.191-22.643 8.905-22.568 8.636-22.441 8.403-22.472 7.848-22.857 7.352-23.424 7.205-23.994 7.059-24.573 7.311-24.867 7.786-23.51 8.215-23.336 9.11-23.579 10.052-23.783 10.842-24.232 11.494-25.263 11.479-25.453 11.843-25.702 12.085-25.995 12.227-25.908 12.995-25.733 13.74-25.48 14.446" fill="#ef3952"/>
<path transform="matrix(1,0,0,-1,85.1989,74.0472)" d="M0 0 6.548 6.743C15.019 1.902 20.717-7.175 20.717-17.555 20.717-24.325 18.315-30.51 14.273-35.348L11.217-32.297C14.653-28.113 16.889-23.947 16.889-17.296 16.889-10.175 13.16-2.235 7.206 1.874L3.277-2.136C5.291-3.643 6.887-5.162 8.238-7.293L5.232-9.885C4.038-7.8 2.512-6.338 .531-4.996L-7.287-13.235-15.402-4.884C-19.61-7.813-22.083-12.002-22.197-17.211-22.334-24.125-17.847-28.947-11.549-31.042V-17.14H-1.942V-20.001H-7.829V-23.715H-2.018V-26.982H-7.829V-31.668C-3.525-31.891 1.057-29.404 3.85-26.317L6.727-29.218C3.051-33.472-2.255-35.631-7.829-35.667V-39.95H-11.549V-35.219C-20.045-33.11-26.178-25.686-26.064-16.822-25.988-10.736-22.748-5.759-18.031-2.21L-22.017 1.902C-28.19-3.141-31.507-9.279-31.788-17.28-32.003-24.349-28.34-30.015-26.034-32.408L-28.701-35.127C-32.849-30.3-35.285-24.357-35.285-17.555-35.285-7.249-29.586 1.826-21.189 6.667L-14.563-.235C-12.214 .664-9.769 1.146-7.25 1.146-4.743 1.11-2.563 .656-.232-.233ZM-11.731-3.186-7.277-7.723-3.103-3.321C-4.567-2.93-5.96-2.65-7.485-2.602-8.914-2.539-10.348-2.873-11.731-3.186M26.902-17.664C26.902-36.408 11.58-51.731-7.246-51.731-26.071-51.731-41.395-36.408-41.395-17.664-41.395 1.115-26.071 16.439-7.246 16.439 11.58 16.439 26.902 1.115 26.902-17.664M-38.045-17.664C-38.045-34.568-24.191-48.39-7.246-48.39 9.698-48.39 23.554-34.568 23.554-17.664 23.554-.725 9.697 13.06-7.246 13.06-24.191 13.06-38.045-.725-38.045-17.664M-4.272 20.055-7.246 21.16-10.218 20.055-7.246 18.948ZM1.879 17.914 4.712 18.212 2.375 19.838-.459 19.54ZM-2.502 18.866C-1.976 18.866-1.549 19.29-1.549 19.816-1.549 20.34-1.976 20.765-2.502 20.765-3.027 20.765-3.454 20.34-3.454 19.816-3.454 19.291-3.027 18.866-2.502 18.866M-21.135 16.4C-20.609 16.4-20.184 16.825-20.184 17.35-20.184 17.874-20.609 18.3-21.135 18.3-21.661 18.3-22.086 17.874-22.086 17.35-22.086 16.825-21.661 16.4-21.135 16.4M-11.99 18.866C-11.464 18.866-11.037 19.29-11.037 19.816-11.037 20.34-11.464 20.765-11.99 20.765-12.515 20.765-12.942 20.34-12.942 19.816-12.942 19.29-12.515 18.866-11.99 18.866M6.644 16.4C7.17 16.4 7.595 16.826 7.595 17.35 7.595 17.874 7.17 18.3 6.644 18.3 6.118 18.3 5.693 17.874 5.693 17.35 5.693 16.825 6.118 16.4 6.644 16.4M-16.369 17.914-14.034 19.54-16.866 19.838-19.203 18.212ZM-22.439 16.991-23.534 17.392-23.616 17.567C-23.704 17.526-23.777 17.508-23.837 17.503-24.127 17.479-24.11 17.811-23.967 17.878-18.886 20.267-13.235 21.597-7.246 21.597-1.256 21.597 4.394 20.267 9.475 17.878 9.622 17.81 9.644 17.474 9.346 17.503 9.287 17.509 9.21 17.527 9.124 17.567L9.042 17.392 7.947 16.991 8.268 15.734 8.17 15.518C8.748 15.247 8.346 14.843 8.109 14.953 3.444 17.149-1.744 18.359-7.246 18.359-12.747 18.359-17.935 17.149-22.6 14.953-22.72 14.898-22.861 14.948-22.931 15.098-22.999 15.244-22.936 15.337-22.841 15.419-22.787 15.459-22.721 15.49-22.661 15.518L-22.761 15.733ZM9.729 18.333C4.58 20.755-1.176 22.109-7.246 22.109-13.315 22.109-19.042 20.763-24.193 18.341-24.531 18.183-24.914 18.33-25.077 18.679-25.24 19.024-25.068 19.283-24.923 19.587-25.974 19.265-26.751 19.266-27.666 19.969-29.358 18.827-31.307 21.176-30.029 22.247-30.63 23.027-30.637 23.873-29.756 24.43-29.912 24.7-30.012 24.91-30.012 25.232-30.012 26.117-29.353 26.454-28.619 26.608-29.059 26.952-29.401 27.249-29.401 27.869-29.401 28.772-28.698 29.149-27.925 29.222-28.14 29.543-28.296 29.773-28.296 30.182-28.296 30.92-27.697 31.518-26.958 31.518-26.724 31.518-26.504 31.442-26.283 31.382-26.418 31.679-26.541 31.904-26.541 32.24-26.541 32.977-25.943 33.576-25.202 33.576-24.848 33.576-24.621 33.443-24.317 33.29-24.343 33.448-24.384 33.636-24.384 33.802-24.384 34.541-23.784 35.139-23.046 35.139-22.638 35.139-22.399 34.981-22.083 34.762-21.932 35.462-21.541 36.044-20.726 36.044-20.127 36.044-19.787 35.719-19.488 35.255-19.168 35.608-18.871 35.846-18.361 35.846-18.157 35.846-17.962 35.789-17.766 35.742-17.869 36.005-17.967 36.213-17.967 36.502-17.967 37.241-17.367 37.839-16.627 37.839-16.203 37.839-15.958 37.66-15.617 37.45-15.646 37.611-15.698 37.83-15.698 38.007-15.698 38.745-15.098 39.344-14.359 39.344-13.932 39.344-13.686 39.171-13.365 38.931-13.209 39.631-12.822 40.215-12.004 40.215-11.507 40.215-11.225 39.992-10.897 39.664-10.635 40.221-10.27 40.637-9.59 40.637-9.394 40.637-9.237 40.591-9.055 40.529-8.64 41.001-8.274 41.209-7.693 41.358V42.777H-8.821V43.607H-7.693V44.622H-6.799V43.607H-5.67V42.777H-6.799V41.358C-6.217 41.209-5.851 41.001-5.437 40.529-5.255 40.591-5.097 40.637-4.902 40.637-4.222 40.637-3.857 40.222-3.594 39.664-3.267 39.992-2.984 40.215-2.488 40.215-1.67 40.215-1.283 39.631-1.128 38.932-.806 39.171-.559 39.344-.133 39.344 .608 39.344 1.207 38.745 1.207 38.007 1.207 37.83 1.16 37.617 1.132 37.452 1.472 37.662 1.712 37.839 2.135 37.839 2.876 37.839 3.476 37.241 3.476 36.502 3.476 36.212 3.378 36.007 3.275 35.742 3.47 35.789 3.666 35.846 3.87 35.846 4.38 35.846 4.677 35.608 4.996 35.255 5.296 35.72 5.636 36.044 6.234 36.044 7.05 36.044 7.442 35.46 7.595 34.761 7.91 34.982 8.146 35.139 8.554 35.139 9.294 35.139 9.894 34.541 9.894 33.802 9.894 33.635 9.857 33.45 9.833 33.29 10.139 33.446 10.353 33.576 10.712 33.576 11.451 33.576 12.05 32.977 12.05 32.24 12.05 31.904 11.926 31.679 11.789 31.382 12.011 31.442 12.233 31.518 12.465 31.518 13.205 31.518 13.806 30.92 13.806 30.182 13.806 29.774 13.649 29.543 13.436 29.222 14.209 29.149 14.91 28.772 14.91 27.869 14.91 27.249 14.567 26.952 14.126 26.608 14.86 26.455 15.521 26.118 15.521 25.232 15.521 24.908 15.421 24.7 15.262 24.43 16.144 23.874 16.14 23.029 15.538 22.247 16.305 21.604 15.909 20.603 15.254 20.093 14.585 19.573 13.908 19.474 13.176 19.969 12.26 19.266 11.483 19.265 10.432 19.587L10.585 19.263C10.843 18.726 10.32 18.113 9.729 18.333M-25.865 22.614C-25.424 21.457-25.932 21.01-26.922 20.517-26.325 20.299-25.841 20.157-25.231 20.492-24.624 20.826-24.335 21.453-24.399 22.125-24.557 22.302-24.673 22.489-24.733 22.721-24.918 23.439-24.484 24.172-23.763 24.357-23.043 24.542-22.308 24.109-22.123 23.39-22.095 23.282-22.085 23.174-22.081 23.063-21.06 21.708-18.97 22.432-19.145 24.325-20.304 24.037-21.043 24.163-21.354 25.376-21.576 26.234-21.389 26.766-20.549 27.167-20.58 27.637-20.541 27.811-20.335 28.216-20.977 28.406-21.475 28.813-21.475 29.55-21.475 30.438-20.812 30.774-20.075 30.927-20.517 31.271-20.861 31.567-20.861 32.188-20.861 32.243-20.855 32.297-21.16 32.407-25.354 30.338-26.523 28.267-26.882 23.7-26.318 23.53-26.067 23.143-25.865 22.614M-8.397 37.008C-8.397 37.107-8.382 37.206-8.371 37.304-13.755 37.697-17.604 34.043-18.134 28.883-17.652 28.697-17.478 28.484-17.258 28.012-16.327 28.064-15.907 27.69-15.684 26.83-15.371 25.616-15.958 25.152-17.115 24.846-16.766 24.053-16.066 23.521-15.145 23.758-14.403 23.949-13.939 24.592-13.922 25.339-14.051 25.562-14.127 25.788-14.127 26.048-14.127 26.791-13.523 27.393-12.779 27.393-12.034 27.393-11.432 26.791-11.432 26.048-11.432 25.9-11.46 25.761-11.501 25.619-11.289 24.911-10.688 24.416-9.929 24.416-8.978 24.416-8.433 25.105-8.293 25.959-9.489 25.968-10.173 26.272-10.173 27.526-10.173 28.413-9.858 28.88-8.945 29.06-8.737 30.168-8.175 30.236-7.246 30.389-6.317 30.236-5.755 30.168-5.546 29.06-4.633 28.88-4.318 28.413-4.318 27.526-4.318 26.273-5.002 25.968-6.197 25.959-6.059 25.105-5.513 24.416-4.564 24.416-3.804 24.416-3.202 24.911-2.989 25.619-3.032 25.761-3.06 25.9-3.06 26.048-3.06 26.791-2.457 27.393-1.713 27.393-.968 27.393-.366 26.791-.366 26.048-.366 25.788-.44 25.562-.569 25.339-.552 24.592-.09 23.949 .654 23.758 1.573 23.521 2.274 24.053 2.624 24.846 1.467 25.152 .881 25.616 1.193 26.83 1.415 27.69 1.837 28.064 2.765 28.012 2.987 28.483 3.161 28.697 3.642 28.883 3.113 34.047-.739 37.697-6.124 37.303-6.112 37.205-6.095 37.107-6.095 37.008-6.095 36.746-6.176 36.534-6.322 36.32V35.019C-6.176 34.806-6.095 34.594-6.095 34.332-6.095 34.07-6.176 33.858-6.322 33.645L-6.295 32.303C-6.168 32.119-6.095 31.897-6.095 31.656-6.095 30.886-6.667 30.656-7.246 30.401-7.825 30.656-8.397 30.886-8.397 31.656-8.397 31.918-8.316 32.13-8.169 32.343V33.645C-8.315 33.858-8.397 34.07-8.397 34.332-8.397 34.594-8.315 34.806-8.169 35.019V36.32C-8.315 36.533-8.397 36.746-8.397 37.008M10.74 20.492C11.351 20.157 11.836 20.299 12.432 20.517 11.442 21.01 10.933 21.456 11.374 22.614 11.577 23.143 11.825 23.53 12.39 23.7 12.035 28.218 10.773 30.383 6.66 32.432L6.358 32.346C6.365 32.295 6.37 32.241 6.37 32.188 6.37 31.565 6.026 31.271 5.584 30.927 6.32 30.774 6.984 30.438 6.984 29.55 6.984 28.813 6.486 28.406 5.843 28.216 6.052 27.811 6.088 27.637 6.057 27.167 6.895 26.767 7.086 26.235 6.865 25.376 6.552 24.161 5.813 24.038 4.651 24.325 4.483 22.432 6.566 21.708 7.59 23.063 7.594 23.174 7.604 23.282 7.632 23.39 7.817 24.11 8.552 24.542 9.271 24.357 9.993 24.172 10.428 23.439 10.241 22.721 10.183 22.489 10.067 22.302 9.91 22.125 9.842 21.453 10.133 20.825 10.74 20.492M-9.59 38.563C-9.182 38.563-8.85 38.893-8.85 39.3-8.85 39.708-9.182 40.038-9.59 40.038-9.999 40.038-10.331 39.708-10.331 39.3-10.331 38.893-9.999 38.563-9.59 38.563M-7.246 36.27C-6.837 36.27-6.505 36.6-6.505 37.008-6.505 37.415-6.837 37.746-7.246 37.746-7.654 37.746-7.986 37.415-7.986 37.008-7.986 36.6-7.654 36.27-7.246 36.27M-7.246 33.594C-6.837 33.594-6.505 33.924-6.505 34.332-6.505 34.74-6.837 35.07-7.246 35.07-7.654 35.07-7.986 34.74-7.986 34.332-7.986 33.924-7.654 33.594-7.246 33.594M-7.246 30.919C-6.837 30.919-6.505 31.249-6.505 31.656-6.505 32.063-6.837 32.393-7.246 32.393-7.654 32.393-7.986 32.063-7.986 31.656-7.986 31.249-7.654 30.919-7.246 30.919M-12.004 38.142C-11.596 38.142-11.265 38.472-11.265 38.88-11.265 39.288-11.596 39.617-12.004 39.617-12.412 39.617-12.744 39.288-12.744 38.88-12.744 38.472-12.412 38.142-12.004 38.142M-14.359 37.27C-13.951 37.27-13.619 37.6-13.619 38.007-13.619 38.416-13.951 38.745-14.359 38.745-14.767 38.745-15.099 38.416-15.099 38.007-15.099 37.6-14.767 37.27-14.359 37.27M-16.627 35.764C-16.219 35.764-15.888 36.094-15.888 36.502-15.888 36.91-16.219 37.241-16.627 37.241-17.035 37.241-17.367 36.91-17.367 36.502-17.367 36.096-17.035 35.764-16.627 35.764M-18.361 33.773C-17.951 33.773-17.62 34.103-17.62 34.51-17.62 34.918-17.951 35.248-18.361 35.248-18.769 35.248-19.1 34.918-19.1 34.51-19.1 34.103-18.769 33.773-18.361 33.773M-20.726 33.97C-20.317 33.97-19.987 34.3-19.987 34.708-19.987 35.116-20.317 35.446-20.726 35.446-21.135 35.446-21.466 35.116-21.466 34.708-21.466 34.3-21.135 33.97-20.726 33.97M-23.046 33.065C-22.638 33.065-22.307 33.395-22.307 33.802-22.307 34.21-22.638 34.541-23.046 34.541-23.454 34.541-23.786 34.21-23.786 33.802-23.786 33.396-23.454 33.065-23.046 33.065M-25.202 31.501C-24.794 31.501-24.464 31.832-24.464 32.24-24.464 32.647-24.794 32.977-25.202 32.977-25.612 32.977-25.943 32.647-25.943 32.24-25.943 31.832-25.612 31.501-25.202 31.501M-26.958 29.445C-26.548 29.445-26.218 29.774-26.218 30.182-26.218 30.59-26.548 30.92-26.958 30.92-27.365 30.92-27.697 30.59-27.697 30.182-27.697 29.774-27.366 29.445-26.958 29.445M-28.061 27.13C-27.653 27.13-27.321 27.461-27.321 27.869-27.321 28.276-27.653 28.606-28.061 28.606-28.47 28.606-28.801 28.276-28.801 27.869-28.801 27.461-28.47 27.13-28.061 27.13M-28.673 24.494C-28.265 24.494-27.934 24.824-27.934 25.232-27.934 25.639-28.265 25.97-28.673 25.97-29.082 25.97-29.413 25.639-29.413 25.232-29.413 24.824-29.082 24.494-28.673 24.494M-19.521 31.45C-19.113 31.45-18.782 31.781-18.782 32.188-18.782 32.596-19.113 32.926-19.521 32.926-19.929 32.926-20.261 32.596-20.261 32.188-20.261 31.781-19.929 31.45-19.521 31.45M-20.135 28.812C-19.727 28.812-19.395 29.143-19.395 29.55-19.395 29.956-19.727 30.288-20.135 30.288-20.543 30.288-20.874 29.957-20.874 29.55-20.874 29.143-20.543 28.812-20.135 28.812M-7.246 26.508C-6.512 26.508-5.918 27.101-5.918 27.832-5.918 28.564-6.512 29.158-7.246 29.158-7.979 29.158-8.574 28.564-8.574 27.832-8.574 27.101-7.979 26.508-7.246 26.508M-18.264 25.117C-17.555 25.299-17.126 26.022-17.309 26.73-17.492 27.439-18.217 27.866-18.927 27.684-19.638 27.502-20.066 26.78-19.884 26.07-19.7 25.361-18.976 24.934-18.264 25.117M-27.748 20.629C-27.103 20.983-26.87 21.788-27.224 22.429-27.578 23.071-28.386 23.304-29.029 22.951-29.672 22.598-29.906 21.792-29.553 21.151-29.198 20.509-28.39 20.276-27.748 20.629M-4.902 40.038C-5.309 40.038-5.64 39.709-5.64 39.3-5.64 38.892-5.309 38.563-4.902 38.563-4.492 38.563-4.162 38.893-4.162 39.3-4.162 39.708-4.492 40.038-4.902 40.038M-2.488 39.617C-2.896 39.617-3.226 39.288-3.226 38.88-3.226 38.472-2.896 38.142-2.488 38.142-2.078 38.142-1.747 38.472-1.747 38.88-1.747 39.288-2.078 39.617-2.488 39.617M-.133 38.745C-.541 38.745-.872 38.416-.872 38.007-.872 37.6-.542 37.27-.133 37.27 .277 37.27 .608 37.6 .608 38.007 .608 38.416 .277 38.745-.133 38.745M2.135 37.241C1.727 37.241 1.397 36.91 1.397 36.502 1.397 36.094 1.727 35.764 2.135 35.764 2.546 35.764 2.876 36.096 2.876 36.502 2.876 36.91 2.546 37.241 2.135 37.241M3.87 35.248C3.461 35.248 3.129 34.918 3.129 34.51 3.129 34.103 3.461 33.773 3.87 33.773 4.277 33.773 4.608 34.103 4.608 34.51 4.608 34.918 4.277 35.248 3.87 35.248M6.234 35.446C5.826 35.446 5.495 35.116 5.495 34.708 5.495 34.3 5.826 33.97 6.234 33.97 6.644 33.97 6.975 34.3 6.975 34.708 6.975 35.116 6.644 35.446 6.234 35.446M8.554 34.541C8.144 34.541 7.815 34.21 7.815 33.802 7.815 33.395 8.144 33.065 8.554 33.065 8.963 33.065 9.294 33.396 9.294 33.802 9.294 34.21 8.963 34.541 8.554 34.541M10.712 32.977C10.303 32.977 9.972 32.647 9.972 32.24 9.972 31.832 10.303 31.501 10.712 31.501 11.12 31.501 11.451 31.832 11.451 32.24 11.451 32.647 11.12 32.977 10.712 32.977M12.465 30.92C12.057 30.92 11.725 30.59 11.725 30.182 11.725 29.774 12.057 29.445 12.465 29.445 12.875 29.445 13.207 29.774 13.207 30.182 13.207 30.59 12.875 30.92 12.465 30.92M13.57 28.606C13.161 28.606 12.832 28.276 12.832 27.869 12.832 27.461 13.161 27.13 13.57 27.13 13.979 27.13 14.309 27.461 14.309 27.869 14.309 28.276 13.979 28.606 13.57 28.606M14.183 25.97C13.773 25.97 13.442 25.639 13.442 25.232 13.442 24.824 13.773 24.494 14.183 24.494 14.591 24.494 14.921 24.824 14.921 25.232 14.921 25.639 14.591 25.97 14.183 25.97M5.03 32.926C4.622 32.926 4.291 32.596 4.291 32.188 4.291 31.781 4.622 31.45 5.03 31.45 5.437 31.45 5.769 31.781 5.769 32.188 5.769 32.596 5.437 32.926 5.03 32.926M5.643 30.288C5.235 30.288 4.904 29.956 4.904 29.55 4.904 29.143 5.235 28.812 5.643 28.812 6.054 28.812 6.383 29.143 6.383 29.55 6.383 29.957 6.054 30.288 5.643 30.288M4.436 27.684C3.725 27.866 3.001 27.439 2.818 26.73 2.636 26.022 3.064 25.299 3.774 25.117 4.486 24.934 5.208 25.361 5.392 26.07 5.575 26.78 5.147 27.502 4.436 27.684M14.538 22.951C13.896 23.304 13.086 23.07 12.734 22.429 12.379 21.788 12.614 20.983 13.257 20.629 13.899 20.276 14.707 20.509 15.062 21.151 15.415 21.792 15.181 22.598 14.538 22.951M-1.752 24.39C-1.865 24.393-1.979 24.407-2.083 24.431-2.34 24.084-2.674 23.792-3.056 23.579-2.372 23.51-1.691 23.425-1.019 23.324-1.315 23.608-1.554 23.949-1.715 24.321ZM-12.747 24.39C-12.908 23.991-13.159 23.626-13.473 23.324-12.8 23.425-12.121 23.51-11.435 23.579-11.817 23.792-12.151 24.084-12.407 24.431-12.517 24.407-12.632 24.393-12.747 24.39M-16.697 22.709C-17.174 22.916-17.591 23.252-17.896 23.683-17.954 23.159-18.158 22.665-18.473 22.255-17.887 22.419-17.295 22.57-16.697 22.709M-23.499 20.494C-22.876 20.758-22.244 21.008-21.605 21.243-21.935 21.332-22.248 21.473-22.527 21.661-22.673 21.567-22.836 21.494-23.014 21.449L-23.116 21.427C-23.19 21.099-23.321 20.783-23.499 20.494M-7.246 25.026C-7.435 24.528-7.759 24.096-8.175 23.776-7.866 23.783-7.556 23.787-7.246 23.787-6.935 23.787-6.625 23.783-6.316 23.776-6.732 24.096-7.057 24.528-7.246 25.026M8.036 21.661C7.756 21.473 7.443 21.332 7.114 21.243 7.753 21.008 8.384 20.758 9.008 20.494 8.829 20.783 8.699 21.099 8.624 21.427L8.523 21.449C8.344 21.494 8.181 21.567 8.036 21.661M3.983 22.255C3.666 22.665 3.463 23.159 3.404 23.683 3.1 23.252 2.682 22.916 2.207 22.709 2.804 22.57 3.397 22.419 3.983 22.255" fill="#febf1e"/>
<path transform="matrix(1,0,0,-1,80.927,53.992708)" d="M0 0-2.974-1.107-5.946 0-2.974 1.106ZM-.607 0-2.974 .88-5.34 0-2.974-.88ZM-12.097-2.141-14.931-1.842-12.594-.217-9.762-.514ZM10.915-3.655C10.39-3.655 9.965-3.229 9.965-2.704 9.965-2.18 10.39-1.755 10.915-1.755 11.442-1.755 11.867-2.18 11.867-2.704 11.867-3.229 11.442-3.655 10.915-3.655M10.915-3.443C11.325-3.443 11.655-3.113 11.655-2.704 11.655-2.297 11.325-1.967 10.915-1.967 10.508-1.967 10.176-2.297 10.176-2.704 10.176-3.112 10.508-3.443 10.915-3.443M-7.718-1.188C-8.243-1.188-8.67-.764-8.67-.239-8.67 .285-8.243 .711-7.718 .711-7.192 .711-6.765 .285-6.765-.239-6.765-.764-7.192-1.188-7.718-1.188M-7.718-.977C-7.309-.977-6.977-.647-6.977-.239-6.977 .168-7.309 .498-7.718 .498-8.125 .498-8.457 .168-8.457-.239-8.457-.647-8.125-.977-7.718-.977M-16.863-3.655C-17.389-3.655-17.814-3.229-17.814-2.704-17.814-2.18-17.389-1.755-16.863-1.755-16.337-1.755-15.912-2.18-15.912-2.704-15.912-3.229-16.337-3.655-16.863-3.655M-16.863-3.443C-16.454-3.443-16.123-3.112-16.123-2.704-16.123-2.297-16.454-1.967-16.863-1.967-17.271-1.967-17.602-2.297-17.602-2.704-17.602-3.112-17.271-3.443-16.863-3.443M1.77-.977C2.179-.977 2.512-.647 2.512-.239 2.512 .168 2.179 .498 1.77 .498 1.362 .498 1.03 .168 1.03-.239 1.03-.647 1.362-.977 1.77-.977M1.77-1.188C1.245-1.188 .818-.763 .818-.239 .818 .285 1.245 .711 1.77 .711 2.296 .711 2.723 .285 2.723-.239 2.723-.764 2.296-1.188 1.77-1.188M6.151-2.141 3.813-.514 6.646-.217 8.984-1.842ZM10.957 12.081C10.945 11.676 10.785 11.309 10.531 11.029 11.14 10.785 11.573 10.191 11.573 9.495L11.568 9.382C12.391 9.199 13.262 8.975 14.039 8.672 14.585 8.457 15.038 8.185 15.405 7.912 14.619 9.605 13.264 10.845 10.957 12.081M11.54 9.172C11.432 8.628 11.054 8.181 10.554 7.972 10.627 7.776 10.662 7.554 10.657 7.303 11.565 6.822 11.646 6.034 11.442 5.244 11.199 4.302 10.614 3.601 9.218 3.878 9.279 2.674 10.798 2.195 11.55 3.122 11.558 3.219 11.573 3.317 11.597 3.413 11.827 4.299 12.733 4.836 13.622 4.607 14.513 4.38 15.049 3.476 14.819 2.588 14.755 2.342 14.639 2.123 14.486 1.94 14.438 1.146 15.108 .505 15.877 .554 15.058 1.128 15.061 1.908 15.351 2.673 15.538 3.159 15.836 3.66 16.327 3.867 16.208 5.298 15.984 6.48 15.582 7.499 15.189 7.838 14.651 8.204 13.961 8.474 13.231 8.76 12.334 8.996 11.54 9.172M15.012 .437C14.405 .771 14.114 1.398 14.181 2.071 14.339 2.247 14.455 2.435 14.513 2.666 14.699 3.385 14.265 4.118 13.543 4.302 12.824 4.487 12.089 4.055 11.904 3.336 11.876 3.228 11.866 3.119 11.862 3.009 10.838 1.653 8.755 2.377 8.923 4.271 10.085 3.983 10.823 4.106 11.137 5.322 11.358 6.181 11.167 6.712 10.329 7.112 10.36 7.583 10.324 7.756 10.115 8.161 10.757 8.351 11.256 8.759 11.256 9.495 11.256 10.383 10.591 10.719 9.856 10.873 10.298 11.217 10.641 11.511 10.641 12.134 10.641 12.187 10.637 12.24 10.63 12.292L10.932 12.377C15.045 10.328 16.307 8.164 16.662 3.645 16.097 3.475 15.849 3.088 15.646 2.56 15.205 1.402 15.714 .955 16.703 .463 16.108 .244 15.623 .102 15.012 .437M-16.902 12.036C-19.211 10.838-20.569 9.612-21.358 7.907-20.938 8.222-20.483 8.476-19.986 8.672-19.242 8.963-18.324 9.204-17.515 9.383L-17.519 9.495C-17.519 10.191-17.088 10.785-16.478 11.029-16.722 11.298-16.88 11.648-16.902 12.036M-21.533 7.496C-21.932 6.48-22.155 5.298-22.275 3.867-21.785 3.66-21.484 3.16-21.298 2.672-21.007 1.908-21.006 1.128-21.824 .554-21.585 .539-21.338 .589-21.111 .714-20.653 .966-20.404 1.451-20.434 1.94-20.586 2.123-20.704 2.342-20.767 2.588-20.996 3.476-20.459 4.38-19.57 4.607-18.68 4.836-17.774 4.301-17.544 3.413-17.52 3.317-17.505 3.219-17.498 3.122-16.747 2.196-15.225 2.674-15.167 3.878-16.561 3.601-17.147 4.302-17.389 5.244-17.593 6.033-17.513 6.822-16.604 7.303-16.609 7.554-16.573 7.776-16.501 7.972-17.002 8.181-17.379 8.628-17.487 9.172-18.281 8.996-19.18 8.76-19.909 8.474-20.601 8.203-21.139 7.836-21.533 7.496M-21.593 2.56C-21.795 3.088-22.046 3.475-22.61 3.645-22.251 8.212-21.082 10.284-16.941 12.372-16.583 12.242-16.589 12.188-16.589 12.134-16.589 11.513-16.245 11.216-15.803 10.873-16.54 10.719-17.203 10.384-17.203 9.495-17.203 8.759-16.705 8.352-16.063 8.161-16.269 7.756-16.308 7.582-16.277 7.112-17.117 6.712-17.304 6.18-17.082 5.322-16.771 4.108-16.033 3.982-14.873 4.271-14.698 2.377-16.788 1.653-17.809 3.009-17.813 3.119-17.824 3.228-17.851 3.336-18.036 4.054-18.771 4.487-19.491 4.302-20.212 4.118-20.646 3.385-20.461 2.666-20.401 2.434-20.285 2.247-20.127 2.071-20.063 1.399-20.352 .771-20.959 .437-21.569 .102-22.053 .244-22.65 .463-21.661 .955-21.152 1.403-21.593 2.56M18.912 3.082C19.66 2.673 19.929 1.738 19.519 .994 19.108 .251 18.171-.02 17.426 .389 16.681 .799 16.408 1.733 16.82 2.476 17.229 3.221 18.167 3.491 18.912 3.082M18.81 2.896C18.167 3.25 17.358 3.016 17.005 2.374 16.651 1.734 16.886 .928 17.528 .574 18.171 .222 18.979 .454 19.334 1.096 19.687 1.737 19.453 2.544 18.81 2.896M-5.318 18.297C-5.844 18.297-6.271 18.721-6.271 19.246-6.271 19.771-5.844 20.195-5.318 20.195-4.793 20.195-4.366 19.771-4.366 19.246-4.366 18.721-4.793 18.297-5.318 18.297M-5.318 18.508C-4.911 18.508-4.578 18.838-4.578 19.246-4.578 19.654-4.911 19.984-5.318 19.984-5.727 19.984-6.059 19.654-6.059 19.246-6.059 18.838-5.727 18.508-5.318 18.508M-2.974 16.004C-3.499 16.004-3.926 16.428-3.926 16.953-3.926 17.478-3.499 17.903-2.974 17.903-2.448 17.903-2.021 17.478-2.021 16.953-2.021 16.428-2.448 16.004-2.974 16.004M-2.974 16.215C-2.565 16.215-2.233 16.545-2.233 16.953-2.233 17.361-2.565 17.692-2.974 17.692-3.383 17.692-3.714 17.361-3.714 16.953-3.714 16.545-3.383 16.215-2.974 16.215M-2.974 13.328C-3.499 13.328-3.926 13.753-3.926 14.278-3.926 14.802-3.499 15.228-2.974 15.228-2.448 15.228-2.021 14.802-2.021 14.278-2.021 13.753-2.448 13.328-2.974 13.328M-2.974 13.539C-2.565 13.539-2.233 13.87-2.233 14.278-2.233 14.685-2.565 15.016-2.974 15.016-3.382 15.016-3.714 14.685-3.714 14.278-3.714 13.87-3.383 13.539-2.974 13.539M-2.974 10.652C-3.499 10.652-3.926 11.078-3.926 11.602-3.926 12.125-3.499 12.551-2.974 12.551-2.448 12.551-2.021 12.125-2.021 11.602-2.021 11.078-2.448 10.652-2.974 10.652M-2.974 10.864C-2.565 10.864-2.233 11.195-2.233 11.602-2.233 12.009-2.565 12.339-2.974 12.339-3.383 12.339-3.714 12.009-3.714 11.602-3.714 11.195-3.383 10.864-2.974 10.864M-7.732 17.876C-8.257 17.876-8.684 18.301-8.684 18.825-8.684 19.35-8.257 19.774-7.732 19.774-7.207 19.774-6.781 19.35-6.781 18.825-6.781 18.301-7.207 17.876-7.732 17.876M-7.732 18.087C-7.324 18.087-6.993 18.418-6.993 18.825-6.993 19.233-7.324 19.563-7.732 19.563-8.14 19.563-8.472 19.233-8.472 18.825-8.472 18.418-8.14 18.087-7.732 18.087M-10.087 17.004C-10.613 17.004-11.038 17.429-11.038 17.952-11.038 18.477-10.613 18.902-10.087 18.902-9.561 18.902-9.136 18.477-9.136 17.952-9.136 17.429-9.562 17.004-10.087 17.004M-10.087 17.215C-9.679 17.215-9.348 17.546-9.348 17.952-9.348 18.361-9.679 18.691-10.087 18.691-10.495 18.691-10.827 18.361-10.827 17.952-10.827 17.546-10.495 17.215-10.087 17.215M-12.355 15.498C-12.88 15.498-13.307 15.924-13.307 16.447-13.307 16.972-12.88 17.397-12.355 17.397-11.83 17.397-11.405 16.972-11.405 16.447-11.405 15.924-11.83 15.498-12.355 15.498M-12.355 15.71C-11.947 15.71-11.616 16.04-11.616 16.447-11.616 16.855-11.947 17.186-12.355 17.186-12.764 17.186-13.096 16.855-13.096 16.447-13.096 16.041-12.764 15.71-12.355 15.71M-14.089 13.506C-14.614 13.506-15.04 13.932-15.04 14.455-15.04 14.981-14.614 15.405-14.089 15.405-13.562 15.405-13.136 14.981-13.136 14.455-13.136 13.931-13.562 13.506-14.089 13.506M-14.089 13.718C-13.68 13.718-13.348 14.048-13.348 14.455-13.348 14.864-13.68 15.194-14.089 15.194-14.497 15.194-14.828 14.864-14.828 14.455-14.828 14.048-14.497 13.718-14.089 13.718M-16.454 13.704C-16.98 13.704-17.406 14.129-17.406 14.654-17.406 15.178-16.98 15.602-16.454 15.602-15.928 15.602-15.503 15.178-15.503 14.654-15.503 14.129-15.928 13.704-16.454 13.704M-16.454 13.916C-16.045 13.916-15.715 14.245-15.715 14.654-15.715 15.061-16.045 15.391-16.454 15.391-16.863 15.391-17.194 15.061-17.194 14.654-17.194 14.245-16.863 13.916-16.454 13.916M-18.774 12.798C-19.299 12.798-19.726 13.224-19.726 13.748-19.726 14.273-19.299 14.698-18.774 14.698-18.248 14.698-17.823 14.273-17.823 13.748-17.823 13.224-18.248 12.798-18.774 12.798M-18.774 13.01C-18.366 13.01-18.035 13.34-18.035 13.748-18.035 14.156-18.366 14.487-18.774 14.487-19.182 14.487-19.514 14.156-19.514 13.748-19.514 13.341-19.182 13.01-18.774 13.01M-20.93 11.236C-21.457 11.236-21.883 11.66-21.883 12.185-21.883 12.709-21.457 13.135-20.93 13.135-20.406 13.135-19.98 12.709-19.98 12.185-19.98 11.661-20.406 11.236-20.93 11.236M-20.93 11.447C-20.523 11.447-20.192 11.777-20.192 12.185-20.192 12.592-20.523 12.923-20.93 12.923-21.34 12.923-21.671 12.592-21.671 12.185-21.671 11.777-21.34 11.447-20.93 11.447M-22.686 9.178C-23.211 9.178-23.637 9.604-23.637 10.127-23.637 10.651-23.211 11.077-22.686 11.077-22.159 11.077-21.734 10.652-21.734 10.127-21.734 9.603-22.159 9.178-22.686 9.178M-22.686 9.39C-22.276 9.39-21.946 9.72-21.946 10.127-21.946 10.535-22.276 10.866-22.686 10.866-23.094 10.866-23.425 10.535-23.425 10.127-23.425 9.72-23.094 9.39-22.686 9.39M-23.789 6.864C-24.315 6.864-24.741 7.289-24.741 7.814-24.741 8.339-24.315 8.764-23.789 8.764-23.264 8.764-22.837 8.339-22.837 7.814-22.837 7.289-23.263 6.864-23.789 6.864M-23.789 7.076C-23.381 7.076-23.049 7.406-23.049 7.814-23.049 8.221-23.381 8.552-23.789 8.552-24.199 8.552-24.529 8.221-24.529 7.814-24.529 7.406-24.199 7.076-23.789 7.076M-24.401 4.228C-24.927 4.228-25.353 4.652-25.353 5.178-25.353 5.701-24.927 6.126-24.401 6.126-23.876 6.126-23.451 5.701-23.451 5.178-23.451 4.652-23.876 4.228-24.401 4.228M-24.401 4.439C-23.993 4.439-23.662 4.77-23.662 5.178-23.662 5.585-23.993 5.915-24.401 5.915-24.81 5.915-25.141 5.585-25.141 5.178-25.141 4.77-24.81 4.439-24.401 4.439M-15.25 11.184C-15.774 11.184-16.201 11.61-16.201 12.134-16.201 12.658-15.774 13.083-15.25 13.083-14.723 13.083-14.298 12.658-14.298 12.134-14.298 11.61-14.723 11.184-15.25 11.184M-15.25 11.396C-14.841 11.396-14.51 11.727-14.51 12.134-14.51 12.542-14.841 12.872-15.25 12.872-15.657 12.872-15.989 12.542-15.989 12.134-15.989 11.727-15.657 11.396-15.25 11.396M-15.864 8.546C-16.389 8.546-16.814 8.972-16.814 9.495-16.814 10.02-16.389 10.445-15.864 10.445-15.338 10.445-14.911 10.02-14.911 9.495-14.911 8.971-15.338 8.546-15.864 8.546M-15.864 8.757C-15.455 8.757-15.123 9.088-15.123 9.495-15.123 9.902-15.455 10.233-15.864 10.233-16.271 10.233-16.602 9.902-16.602 9.495-16.602 9.088-16.271 8.757-15.864 8.757M-2.974 6.241C-3.824 6.241-4.514 6.93-4.514 7.778-4.514 8.626-3.824 9.315-2.974 9.315-2.123 9.315-1.433 8.626-1.433 7.778-1.433 6.93-2.123 6.241-2.974 6.241M-2.974 6.453C-2.24 6.453-1.646 7.046-1.646 7.778-1.646 8.51-2.24 9.104-2.974 9.104-3.707 9.104-4.302 8.51-4.302 7.778-4.302 7.046-3.707 6.453-2.974 6.453M-13.94 4.857C-14.765 4.646-15.605 5.14-15.817 5.963-16.028 6.785-15.532 7.623-14.708 7.834-13.885 8.046-13.045 7.55-12.832 6.728-12.62 5.906-13.118 5.069-13.94 4.857M-13.993 5.063C-13.283 5.245-12.854 5.967-13.038 6.676-13.22 7.385-13.945 7.812-14.655 7.629-15.366 7.447-15.794 6.725-15.612 6.016-15.428 5.306-14.704 4.88-13.993 5.063M-23.373 .389C-24.119-.02-25.055 .251-25.467 .994-25.876 1.738-25.604 2.673-24.859 3.082-24.113 3.491-23.177 3.221-22.767 2.476-22.356 1.733-22.627 .799-23.373 .389M-23.476 .574C-22.831 .928-22.599 1.733-22.953 2.374-23.306 3.016-24.114 3.25-24.758 2.896-25.4 2.544-25.634 1.737-25.281 1.096-24.926 .454-24.119 .222-23.476 .574M-.63 20.195C-.104 20.195 .323 19.771 .323 19.246 .323 18.721-.104 18.297-.63 18.297-1.155 18.297-1.58 18.721-1.58 19.246-1.58 19.771-1.155 20.195-.63 20.195M-.63 19.984C-1.037 19.984-1.368 19.654-1.368 19.246-1.368 18.838-1.037 18.508-.63 18.508-.22 18.508 .11 18.838 .11 19.246 .11 19.654-.22 19.984-.63 19.984M1.784 19.774C2.31 19.774 2.737 19.35 2.737 18.825 2.737 18.301 2.31 17.876 1.784 17.876 1.259 17.876 .835 18.301 .835 18.825 .835 19.349 1.259 19.774 1.784 19.774M1.784 19.563C1.376 19.563 1.046 19.233 1.046 18.825 1.046 18.418 1.376 18.087 1.784 18.087 2.193 18.087 2.525 18.418 2.525 18.825 2.525 19.233 2.193 19.563 1.784 19.563M4.139 18.902C4.665 18.902 5.091 18.477 5.091 17.952 5.091 17.429 4.665 17.004 4.139 17.004 3.613 17.004 3.189 17.429 3.189 17.952 3.189 18.477 3.613 18.902 4.139 18.902M4.139 18.691C3.731 18.691 3.4 18.361 3.4 17.952 3.4 17.546 3.73 17.215 4.139 17.215 4.548 17.215 4.88 17.546 4.88 17.952 4.88 18.361 4.548 18.691 4.139 18.691M6.407 17.397C6.934 17.397 7.359 16.972 7.359 16.447 7.359 15.924 6.934 15.498 6.407 15.498 5.882 15.498 5.456 15.924 5.456 16.447 5.456 16.972 5.882 17.397 6.407 17.397M6.407 17.186C5.999 17.186 5.669 16.855 5.669 16.447 5.669 16.04 5.999 15.71 6.407 15.71 6.818 15.71 7.148 16.041 7.148 16.447 7.148 16.855 6.818 17.186 6.407 17.186M8.142 15.405C8.666 15.405 9.092 14.981 9.092 14.455 9.092 13.932 8.665 13.506 8.142 13.506 7.615 13.506 7.189 13.931 7.189 14.455 7.189 14.981 7.615 15.405 8.142 15.405M8.142 15.194C7.733 15.194 7.401 14.863 7.401 14.455 7.401 14.048 7.733 13.718 8.142 13.718 8.549 13.718 8.88 14.048 8.88 14.455 8.88 14.864 8.549 15.194 8.142 15.194M10.506 15.602C11.032 15.602 11.459 15.178 11.459 14.654 11.459 14.129 11.032 13.704 10.506 13.704 9.981 13.704 9.555 14.129 9.555 14.654 9.555 15.178 9.981 15.602 10.506 15.602M10.506 15.391C10.098 15.391 9.767 15.061 9.767 14.654 9.767 14.245 10.098 13.916 10.506 13.916 10.915 13.916 11.247 14.245 11.247 14.654 11.247 15.061 10.915 15.391 10.506 15.391M12.826 14.698C13.352 14.698 13.779 14.273 13.779 13.748 13.779 13.224 13.352 12.798 12.826 12.798 12.299 12.798 11.875 13.224 11.875 13.748 11.875 14.273 12.299 14.698 12.826 14.698M12.826 14.487C12.416 14.487 12.086 14.156 12.086 13.748 12.086 13.34 12.416 13.01 12.826 13.01 13.235 13.01 13.566 13.341 13.566 13.748 13.566 14.156 13.235 14.487 12.826 14.487M14.984 13.135C15.51 13.135 15.936 12.709 15.936 12.185 15.936 11.661 15.51 11.236 14.984 11.236 14.456 11.236 14.031 11.66 14.031 12.185 14.031 12.709 14.456 13.135 14.984 13.135M14.984 12.923C14.575 12.923 14.244 12.592 14.244 12.185 14.244 11.777 14.575 11.447 14.984 11.447 15.392 11.447 15.723 11.777 15.723 12.185 15.723 12.592 15.392 12.923 14.984 12.923M16.737 11.077C17.265 11.077 17.689 10.652 17.689 10.127 17.689 9.603 17.265 9.178 16.737 9.178 16.213 9.178 15.785 9.603 15.785 10.127 15.785 10.652 16.213 11.077 16.737 11.077M16.737 10.866C16.329 10.866 15.997 10.535 15.997 10.127 15.997 9.72 16.329 9.39 16.737 9.39 17.147 9.39 17.479 9.72 17.479 10.127 17.479 10.535 17.147 10.866 16.737 10.866M17.842 8.764C18.367 8.764 18.793 8.339 18.793 7.814 18.793 7.289 18.368 6.864 17.842 6.864 17.316 6.864 16.891 7.289 16.891 7.814 16.891 8.339 17.316 8.764 17.842 8.764M17.842 8.552C17.433 8.552 17.104 8.222 17.104 7.814 17.104 7.406 17.433 7.076 17.842 7.076 18.251 7.076 18.581 7.406 18.581 7.814 18.581 8.221 18.251 8.552 17.842 8.552M18.455 6.126C18.979 6.126 19.405 5.701 19.405 5.178 19.405 4.653 18.98 4.228 18.455 4.228 17.927 4.228 17.503 4.652 17.503 5.178 17.503 5.701 17.929 6.126 18.455 6.126M18.455 5.915C18.045 5.915 17.714 5.585 17.714 5.178 17.714 4.77 18.045 4.439 18.455 4.439 18.862 4.439 19.192 4.77 19.192 5.178 19.192 5.585 18.863 5.915 18.455 5.915M9.301 13.083C9.825 13.083 10.254 12.658 10.254 12.134 10.254 11.61 9.825 11.184 9.301 11.184 8.776 11.184 8.349 11.61 8.349 12.134 8.349 12.658 8.776 13.083 9.301 13.083M9.301 12.872C8.894 12.872 8.563 12.542 8.563 12.134 8.563 11.727 8.894 11.396 9.301 11.396 9.709 11.396 10.041 11.727 10.041 12.134 10.041 12.542 9.708 12.872 9.301 12.872M9.915 10.445C10.442 10.445 10.867 10.02 10.867 9.495 10.867 8.972 10.442 8.546 9.915 8.546 9.391 8.546 8.963 8.971 8.963 9.495 8.963 10.02 9.391 10.445 9.915 10.445M9.915 10.233C9.507 10.233 9.176 9.902 9.176 9.495 9.176 9.088 9.507 8.757 9.915 8.757 10.325 8.757 10.655 9.088 10.655 9.495 10.655 9.902 10.325 10.233 9.915 10.233M8.761 7.834C9.585 7.623 10.082 6.786 9.869 5.963 9.657 5.14 8.819 4.646 7.993 4.857 7.169 5.069 6.673 5.906 6.885 6.728 7.095 7.551 7.937 8.046 8.761 7.834M8.708 7.629C7.997 7.812 7.273 7.385 7.09 6.676 6.908 5.967 7.336 5.245 8.046 5.063 8.758 4.88 9.48 5.306 9.664 6.016 9.847 6.725 9.419 7.447 8.708 7.629M8.255 2.201C7.938 2.611 7.735 3.104 7.676 3.628 7.372 3.197 6.954 2.861 6.479 2.654 7.076 2.516 7.669 2.364 8.255 2.201M8.87 2.008 8.722 1.737C7.777 2.017 6.815 2.262 5.842 2.474L5.843 2.782C6.656 2.949 7.358 3.506 7.687 4.297L7.99 4.219C7.897 3.369 8.242 2.545 8.87 2.008M2.519 4.336C2.407 4.338 2.293 4.353 2.189 4.377 1.932 4.03 1.597 3.738 1.216 3.524 1.899 3.455 2.58 3.371 3.253 3.269 2.957 3.554 2.718 3.894 2.557 4.266ZM.582 3.266 .546 3.573C1.203 3.786 1.673 4.177 2.057 4.742 2.227 4.69 2.375 4.651 2.556 4.651L2.746 4.658C2.975 4.018 3.33 3.521 3.912 3.152L3.801 2.864C2.741 3.039 1.666 3.173 .582 3.266M-8.476 4.336C-8.637 3.936-8.887 3.571-9.201 3.269-8.528 3.371-7.849 3.455-7.163 3.524-7.546 3.738-7.879 4.03-8.135 4.377-8.245 4.352-8.36 4.338-8.476 4.336M-9.747 2.864-9.858 3.152C-9.278 3.522-8.922 4.018-8.694 4.658L-8.504 4.651C-8.322 4.651-8.174 4.69-8.003 4.741-7.62 4.177-7.15 3.786-6.494 3.573L-6.53 3.266C-7.615 3.173-8.688 3.039-9.747 2.864M-12.426 2.654C-12.902 2.861-13.319 3.197-13.624 3.628-13.682 3.104-13.886 2.611-14.201 2.201-13.615 2.364-13.023 2.516-12.426 2.654M-11.792 2.782-11.789 2.474C-12.762 2.262-13.723 2.017-14.67 1.737L-14.817 2.009C-14.189 2.545-13.844 3.369-13.938 4.219L-13.635 4.297C-13.306 3.506-12.603 2.949-11.792 2.782M-19.227 .439C-18.604 .703-17.973 .953-17.333 1.189-17.663 1.277-17.976 1.419-18.255 1.606-18.401 1.512-18.564 1.439-18.742 1.394L-18.844 1.372C-18.918 1.044-19.049 .728-19.227 .439M-19.654-.09-19.834 .161C-19.426 .599-19.219 1.071-19.111 1.653-18.729 1.703-18.587 1.748-18.255 1.995-17.775 1.644-17.3 1.441-16.702 1.401L-16.66 1.096C-17.677 .738-18.676 .343-19.654-.09M-2.974 4.971C-3.164 4.473-3.488 4.042-3.903 3.722-3.594 3.728-3.284 3.732-2.974 3.732-2.663 3.732-2.353 3.728-2.044 3.722-2.46 4.042-2.785 4.473-2.974 4.971M-3.13 5.622H-2.818C-2.695 4.767-2.146 4.049-1.391 3.688L-1.466 3.389C-1.965 3.407-2.468 3.417-2.974 3.417-3.478 3.417-3.981 3.407-4.482 3.389L-4.556 3.688C-3.801 4.049-3.253 4.767-3.13 5.622M12.307 1.606C12.028 1.419 11.715 1.277 11.386 1.188 12.025 .953 12.656 .703 13.28 .439 13.101 .728 12.971 1.045 12.896 1.372L12.795 1.394C12.616 1.439 12.453 1.512 12.307 1.606M12.214 1.927 12.308 1.995C12.492 1.858 12.643 1.758 12.872 1.7 12.967 1.676 13.066 1.666 13.163 1.653 13.271 1.072 13.478 .599 13.887 .163L13.707-.089C12.728 .343 11.729 .738 10.712 1.096L10.754 1.401C11.286 1.437 11.796 1.622 12.214 1.927M-4.441 16.953C-8.533 17.187-11.59 14.827-12.894 11.549-10.325 12.878-7.024 13.202-4.214 12.792V13.494C-4.357 13.72-4.441 13.989-4.441 14.278-4.441 14.566-4.357 14.835-4.214 15.06V16.17C-4.357 16.396-4.441 16.666-4.441 16.953M-13.008 11.249C-13.261 10.543-13.436 9.798-13.522 9.03-13.23 8.888-12.981 8.646-12.791 8.282-11.76 8.297-11.311 7.645-11.106 6.855-10.864 5.913-11.038 5.018-12.395 4.589-12.101 4.114-11.522 3.862-10.952 4.008-10.385 4.155-9.999 4.651-9.969 5.206-10.096 5.439-10.171 5.708-10.171 5.994-10.171 6.911-9.425 7.654-8.507 7.654-7.587 7.654-6.843 6.91-6.843 5.994-6.843 5.846-6.863 5.703-6.9 5.567-6.725 5.049-6.234 4.677-5.657 4.677-5.068 4.677-4.571 5.064-4.405 5.596-5.825 5.676-6.217 6.5-6.217 7.472-6.217 8.288-5.943 9.031-4.942 9.271-4.789 9.934-4.401 10.296-3.903 10.469-4.231 10.737-4.441 11.144-4.441 11.602-4.441 11.889-4.357 12.158-4.214 12.385V12.578C-6.9 12.974-10.362 12.714-13.008 11.249M-4.125 16.953C-4.125 16.692-4.043 16.479-3.897 16.266V14.965C-4.043 14.751-4.125 14.54-4.125 14.278-4.125 14.015-4.043 13.803-3.897 13.59V12.288C-4.044 12.075-4.125 11.864-4.125 11.602-4.125 10.832-3.553 10.601-2.974 10.346-2.395 10.601-1.823 10.832-1.823 11.602-1.823 11.842-1.896 12.064-2.023 12.248L-2.05 13.59C-1.904 13.804-1.823 14.015-1.823 14.278-1.823 14.54-1.904 14.751-2.05 14.965V16.266C-1.904 16.479-1.823 16.691-1.823 16.953-1.823 17.053-1.84 17.15-1.852 17.249 3.533 17.642 7.385 13.992 7.914 8.829 7.433 8.642 7.259 8.428 7.037 7.957 6.109 8.009 5.687 7.635 5.465 6.776 5.152 5.561 5.739 5.098 6.895 4.792 6.546 3.999 5.845 3.467 4.926 3.704 4.182 3.894 3.72 4.538 3.703 5.285 3.832 5.508 3.906 5.733 3.906 5.994 3.906 6.736 3.304 7.338 2.559 7.338 1.815 7.338 1.212 6.736 1.212 5.994 1.212 5.845 1.24 5.706 1.283 5.565 1.069 4.857 .468 4.362-.292 4.362-1.241 4.362-1.787 5.051-1.925 5.905-.73 5.913-.047 6.218-.047 7.472-.047 8.358-.362 8.826-1.274 9.005-1.483 10.114-2.045 10.181-2.974 10.335-3.903 10.181-4.465 10.114-4.673 9.005-5.586 8.826-5.901 8.358-5.901 7.472-5.901 6.217-5.217 5.913-4.021 5.905-4.161 5.051-4.706 4.362-5.657 4.362-6.416 4.362-7.017 4.857-7.23 5.564-7.188 5.706-7.16 5.845-7.16 5.994-7.16 6.736-7.762 7.338-8.507 7.338-9.251 7.338-9.855 6.736-9.855 5.994-9.855 5.734-9.779 5.508-9.65 5.285-9.667 4.538-10.131 3.894-10.873 3.704-11.794 3.467-12.494 3.999-12.843 4.792-11.686 5.098-11.099 5.561-11.413 6.776-11.635 7.636-12.055 8.009-12.986 7.957-13.206 8.429-13.381 8.642-13.862 8.829-13.332 13.988-9.483 17.642-4.099 17.25-4.11 17.152-4.125 17.052-4.125 16.953M-1.734 12.385C-1.59 12.158-1.506 11.889-1.506 11.602-1.506 11.144-1.717 10.737-2.045 10.469-1.547 10.296-1.16 9.934-1.005 9.271-.005 9.031 .269 8.288 .269 7.472 .269 6.5-.123 5.676-1.542 5.596-1.377 5.064-.88 4.677-.292 4.677 .286 4.677 .777 5.049 .953 5.567 .916 5.703 .896 5.846 .896 5.994 .896 6.911 1.641 7.654 2.559 7.654 3.48 7.654 4.222 6.91 4.222 5.994 4.222 5.708 4.149 5.439 4.021 5.205 4.052 4.651 4.437 4.155 5.004 4.008 5.574 3.862 6.153 4.114 6.448 4.589 5.091 5.018 4.917 5.913 5.159 6.855 5.363 7.645 5.815 8.297 6.843 8.282 7.033 8.646 7.282 8.888 7.576 9.03 7.487 9.798 7.313 10.543 7.061 11.249 4.414 12.714 .953 12.974-1.734 12.578ZM6.946 11.551C5.641 14.828 2.585 17.187-1.506 16.953-1.506 16.666-1.59 16.396-1.734 16.17V15.06C-1.59 14.834-1.506 14.566-1.506 14.278-1.506 13.99-1.59 13.721-1.734 13.494V12.791C1.084 13.187 4.376 12.891 6.946 11.551M-18.167-3.064-18.489-4.322-18.389-4.536C-18.449-4.564-18.515-4.595-18.569-4.636-18.664-4.718-18.727-4.811-18.66-4.957-18.589-5.106-18.448-5.157-18.328-5.102-13.663-2.906-8.475-1.695-2.974-1.695 2.528-1.695 7.716-2.906 12.381-5.102 12.617-5.211 13.02-4.807 12.442-4.536L12.54-4.321 12.219-3.064 13.314-2.663 13.396-2.487C13.482-2.528 13.559-2.546 13.618-2.551 13.916-2.581 13.894-2.245 13.747-2.176 8.666 .212 3.016 1.542-2.974 1.542-8.963 1.542-14.614 .212-19.695-2.176-19.839-2.244-19.855-2.575-19.565-2.551-19.505-2.547-19.432-2.529-19.344-2.487L-19.263-2.663ZM-18.873-4.48-19.899-3.911-19.648-2.887C-20.031-2.841-20.224-2.379-20.044-2.079-20.473-2.151-20.899-1.922-21.092-1.509-21.179-1.326-21.204-1.131-21.178-.944-21.959-1.101-22.767-.924-23.407-.471-25.212-1.554-27.346 1.031-26.184 2.237-26.697 3.009-26.567 3.964-25.901 4.477-26.001 4.69-26.056 4.927-26.056 5.178-26.056 5.872-25.627 6.466-25.019 6.709-25.283 7.001-25.445 7.389-25.445 7.814-25.445 8.592-24.905 9.242-24.181 9.418-24.283 9.633-24.341 9.873-24.341 10.127-24.341 11.04-23.6 11.779-22.686 11.779L-22.533 11.771C-22.567 11.903-22.586 12.042-22.586 12.185-22.586 13.097-21.846 13.836-20.93 13.836-20.756 13.836-20.587 13.809-20.429 13.758-20.423 14.666-19.683 15.399-18.774 15.399-18.498 15.399-18.239 15.331-18.011 15.213-17.782 15.85-17.171 16.305-16.454 16.305-15.938 16.305-15.478 16.068-15.175 15.699-14.884 15.953-14.505 16.107-14.089 16.107L-13.973 16.103C-13.998 16.214-14.011 16.329-14.011 16.447-14.011 17.36-13.27 18.099-12.355 18.099-12.138 18.099-11.931 18.057-11.742 17.981-11.728 18.88-10.992 19.604-10.087 19.604-9.796 19.604-9.523 19.528-9.286 19.396-9.053 20.026-8.446 20.476-7.732 20.476-7.349 20.476-6.996 20.346-6.716 20.128-6.422 20.59-5.907 20.898-5.318 20.898-5.166 20.898-5.02 20.876-4.882 20.838-4.612 21.122-4.279 21.345-3.906 21.487L-3.737 21.545V22.407H-4.865V23.868H-3.737V24.882H-2.212V23.868H-1.081V22.407H-2.212V21.545L-2.042 21.487C-1.669 21.345-1.336 21.122-1.066 20.838-.927 20.876-.782 20.898-.63 20.898-.041 20.898 .475 20.59 .768 20.128 1.049 20.346 1.401 20.476 1.784 20.476 2.499 20.476 3.105 20.026 3.338 19.396 3.574 19.528 3.848 19.604 4.139 19.604 5.045 19.604 5.779 18.88 5.794 17.981 5.983 18.057 6.189 18.099 6.407 18.099 7.323 18.099 8.062 17.36 8.062 16.447 8.062 16.329 8.05 16.214 8.026 16.103L8.142 16.107C8.557 16.107 8.937 15.953 9.227 15.699 9.531 16.068 9.99 16.305 10.506 16.305 11.223 16.305 11.834 15.85 12.064 15.213 12.291 15.332 12.55 15.399 12.826 15.399 13.737 15.399 14.476 14.666 14.482 13.759 14.639 13.809 14.809 13.836 14.984 13.836 15.898 13.836 16.639 13.097 16.639 12.185 16.639 12.042 16.62 11.903 16.585 11.771L16.737 11.779C17.651 11.779 18.392 11.04 18.392 10.127 18.392 9.873 18.335 9.633 18.233 9.418 18.959 9.243 19.497 8.592 19.497 7.814 19.497 7.389 19.336 7.001 19.072 6.709 19.68 6.466 20.11 5.872 20.11 5.178 20.11 4.927 20.053 4.69 19.952 4.477 20.62 3.964 20.749 3.009 20.237 2.237 20.972 1.473 20.333 .268 19.72-.21 19.114-.682 18.278-.962 17.459-.471 16.819-.924 16.01-1.101 15.23-.944 15.324-1.6 14.742-2.175 14.096-2.077 14.278-2.377 14.085-2.84 13.702-2.887L13.951-3.911 12.926-4.481C13.059-4.648 13.095-4.883 12.999-5.09 12.87-5.365 12.555-5.53 12.249-5.387 7.623-3.211 2.48-2.011-2.974-2.011-8.427-2.011-13.57-3.211-18.194-5.387-18.502-5.53-18.816-5.364-18.946-5.09-19.042-4.883-19.007-4.648-18.873-4.48M-18.419-3.197-19.136-2.934-19.407-2.841-19.448-3.013-19.654-3.804-18.878-4.235-18.707-4.333-18.63-4.019ZM14.001-1.722C14.591-1.941 15.114-1.329 14.857-.791L14.704-.467C15.755-.79 16.532-.788 17.448-.086 18.18-.58 18.857-.482 19.526 .038 20.18 .548 20.577 1.549 19.81 2.193 20.412 2.975 20.416 3.82 19.534 4.376 19.693 4.645 19.793 4.853 19.793 5.178 19.793 6.063 19.132 6.4 18.398 6.554 18.839 6.898 19.182 7.194 19.182 7.814 19.182 8.717 18.48 9.095 17.708 9.168 17.921 9.488 18.078 9.719 18.078 10.127 18.078 10.866 17.477 11.463 16.737 11.463 16.505 11.463 16.283 11.388 16.061 11.327 16.197 11.624 16.322 11.849 16.322 12.185 16.322 12.923 15.723 13.521 14.984 13.521 14.625 13.521 14.411 13.392 14.104 13.235 14.129 13.395 14.166 13.581 14.166 13.748 14.166 14.487 13.566 15.084 12.826 15.084 12.418 15.084 12.182 14.927 11.867 14.707 11.714 15.405 11.322 15.989 10.506 15.989 9.907 15.989 9.567 15.665 9.268 15.201 8.949 15.554 8.652 15.792 8.142 15.792 7.938 15.792 7.742 15.734 7.547 15.688 7.65 15.953 7.748 16.158 7.748 16.447 7.748 17.186 7.148 17.785 6.407 17.785 5.984 17.785 5.744 17.608 5.404 17.398 5.432 17.563 5.479 17.775 5.479 17.952 5.479 18.691 4.88 19.289 4.139 19.289 3.712 19.289 3.466 19.117 3.144 18.877 2.989 19.577 2.602 20.161 1.784 20.161 1.287 20.161 1.005 19.937 .678 19.61 .415 20.167 .05 20.582-.63 20.582-.825 20.582-.983 20.536-1.165 20.475-1.579 20.947-1.946 21.154-2.527 21.303V22.722H-1.398V23.553H-2.527V24.567H-3.421V23.553H-4.549V22.722H-3.421V21.303C-4.003 21.154-4.368 20.947-4.783 20.475-4.965 20.536-5.122 20.582-5.318 20.582-5.998 20.582-6.363 20.167-6.625 19.61-6.953 19.937-7.235 20.161-7.732 20.161-8.55 20.161-8.937 19.576-9.093 18.877-9.414 19.117-9.66 19.289-10.087 19.289-10.826 19.289-11.427 18.691-11.427 17.952-11.427 17.775-11.374 17.557-11.345 17.395-11.686 17.605-11.931 17.785-12.355 17.785-13.095 17.785-13.695 17.186-13.695 16.447-13.695 16.159-13.597 15.951-13.494 15.688-13.69 15.734-13.885 15.792-14.089 15.792-14.599 15.792-14.896 15.554-15.216 15.2-15.515 15.665-15.855 15.989-16.454 15.989-17.269 15.989-17.66 15.407-17.811 14.707-18.127 14.927-18.366 15.084-18.774 15.084-19.512 15.084-20.113 14.487-20.113 13.748-20.113 13.582-20.071 13.393-20.045 13.235-20.349 13.388-20.576 13.521-20.93 13.521-21.671 13.521-22.269 12.923-22.269 12.185-22.269 11.849-22.146 11.625-22.011 11.327-22.232 11.388-22.452 11.463-22.686 11.463-23.425 11.463-24.025 10.866-24.025 10.127-24.025 9.719-23.868 9.488-23.653 9.168-24.426 9.095-25.129 8.718-25.129 7.814-25.129 7.195-24.787 6.898-24.347 6.554-25.081 6.4-25.74 6.063-25.74 5.178-25.74 4.855-25.64 4.645-25.484 4.375-26.365 3.818-26.358 2.973-25.757 2.193-27.035 1.122-25.086-1.227-23.394-.086-22.48-.788-21.702-.79-20.651-.467-20.796-.771-20.968-1.031-20.805-1.375-20.642-1.724-20.259-1.871-19.921-1.713-14.77 .709-9.043 2.054-2.974 2.054 3.096 2.054 8.852 .701 14.001-1.722M12.472-3.197 12.683-4.018 12.764-4.324 12.929-4.236 13.707-3.804 13.508-2.993 13.466-2.822ZM-5.43-23.854-3.018-26.311-.772-23.942C-1.576-23.786-2.403-23.7-3.253-23.674-3.803-23.649-4.603-23.717-5.43-23.854M-7.459-23.241C-6.076-22.928-4.642-22.593-3.213-22.657-1.688-22.705-.296-22.984 1.169-23.376L-3.005-27.778ZM4.272-20.055 4.04-20.287C1.708-19.398-.471-18.945-2.978-18.909-5.497-18.909-7.942-19.391-10.291-20.29L-16.917-13.387C-25.315-18.229-31.013-27.303-31.013-37.609-31.013-44.411-28.577-50.354-24.429-55.182L-21.762-52.463C-24.068-50.07-27.731-44.404-27.516-37.334-27.235-29.333-23.918-23.196-17.745-18.153L-13.759-22.264C-18.476-25.813-21.716-30.79-21.793-36.876-21.907-45.741-15.773-53.164-7.277-55.274V-60.004H-3.557V-55.721C2.017-55.686 7.323-53.527 10.999-49.273L8.122-46.372C5.329-49.459 .747-51.946-3.557-51.723V-47.037H2.254V-43.77H-3.557V-40.056H2.33V-37.194H-7.277V-51.096C-13.575-49.001-18.062-44.179-17.925-37.265-17.811-32.057-15.338-27.868-11.13-24.939L-3.015-33.29 4.803-25.05C6.784-26.393 8.31-27.854 9.503-29.939L12.51-27.348C11.159-25.217 9.563-23.698 7.549-22.191L11.477-18.18C17.431-22.29 21.161-30.229 21.161-37.35 21.161-44.002 18.925-48.168 15.489-52.351L18.545-55.403C22.587-50.565 24.989-44.379 24.989-37.609 24.989-27.229 19.291-18.153 10.82-13.312ZM-8.297-46.82-16.897-38.074C-16.695-42.98-13.695-47.597-8.297-49.667ZM21.741-52.657C18.735-57.741 14.173-61.767 8.738-64.173L6.04-61.421 1.001-56.286C-.149-56.536-1.331-56.686-2.538-56.725V-61.021H-8.297V-56.065C-16.95-53.725-22.925-45.647-22.813-36.863-22.794-35.402-22.596-33.977-22.238-32.609L-25.078-29.733C-25.932-32.108-26.402-34.657-26.497-37.367-26.663-42.804-24.272-48.7-20.317-52.445L-24.468-56.676C-29.356-51.192-32.033-45.029-32.033-37.609-32.033-26.78-26.08-17.331-16.728-12.113L-10.021-19.1C-7.81-18.303-5.285-17.892-2.97-17.892-.475-17.927 1.793-18.375 3.812-19.108L10.631-12.041C20.066-17.261 26.009-26.716 26.009-37.609 26.009-43.152 24.524-48.164 21.741-52.657M.627-30.931 17.291-48.078C19.183-44.958 20.141-41.755 20.141-37.35 20.141-29.646 15.805-22.624 11.6-19.511L9.085-22.078C11.084-23.664 12.525-25.377 13.828-27.557L9.198-31.547C8.094-29.386 6.936-27.826 4.943-26.383ZM-33.774-37.719C-33.774-20.779-19.919-6.995-2.974-6.995 13.969-6.995 27.826-20.779 27.826-37.719 27.826-54.623 13.97-68.444-2.974-68.444-19.919-68.444-33.774-54.623-33.774-37.719M-32.754-37.719C-32.754-54.061-19.355-67.427-2.974-67.427 13.407-67.427 26.806-54.061 26.806-37.719 26.806-21.342 13.407-8.012-2.974-8.012-19.356-8.012-32.754-21.342-32.754-37.719M31.174-37.719C31.174-18.939 15.852-3.616-2.974-3.616-21.799-3.616-37.123-18.939-37.123-37.719-37.123-56.463-21.799-71.786-2.974-71.786 15.852-71.786 31.174-56.463 31.174-37.719M32.194-37.719C32.194-57.024 16.415-72.803-2.974-72.803-22.363-72.803-38.142-57.024-38.142-37.719-38.142-18.379-22.363-2.599-2.974-2.599 16.415-2.599 32.194-18.379 32.194-37.719" fill="#0356a1"/>
</g>
</g>
</g>
</svg>
