<svg xmlns="http://www.w3.org/2000/svg" xmlns:xlink="http://www.w3.org/1999/xlink" version="1.1" width="155.906pt" height="155.906pt" viewBox="0 0 155.906 155.906">
<defs>
<clipPath id="clip_188">
<path transform="matrix(1,0,0,-1,0,155.906)" d="M0 155.906H155.906V0H0Z"/>
</clipPath>
</defs>
<g>
<g id="layer_1" data-name="bg orange">
</g>
<g id="layer_1" data-name="BOXES">
</g>
<g id="layer_1" data-name="LOGOS">
<g clip-path="url(#clip_188)">
<path transform="matrix(1,0,0,-1,65.1964,76.91791)" d="M0 0C.019 .355 .029 .703 .029 1.046 .029 3.993-.597 6.797-1.722 9.331-2.097 10.176-1.519 12.702-1.529 13.384L-1.541 14.273C-1.6 18.394-2.452 21.043-4.799 24.396-6.698 27.104-8.327 28.538-11.247 30.074L-11.963 30.456C-12.267 30.619-12.604 30.672-12.927 30.628-13.017 30.716-13.109 30.803-13.205 30.892L-14.035 31.661C-14.565 32.151-15.358 32.225-15.969 31.84-16.277 31.646-17.631 30.295-17.631 30.295-17.93 31.058-18.763 31.475-19.559 31.244L-19.64 31.221C-19.865 31.155-20.18 31.037-20.497 30.834-20.817 31.037-21.133 31.155-21.358 31.221L-21.435 31.243C-22.227 31.476-23.06 31.064-23.363 30.306-23.363 30.306-24.703 31.647-25.012 31.841-25.623 32.225-26.416 32.151-26.946 31.66L-27.776 30.891C-27.871 30.803-27.963 30.715-28.053 30.628-28.375 30.671-28.711 30.618-29.014 30.457L-29.726 30.079C-32.653 28.537-34.282 27.103-36.182 24.395-38.528 21.043-39.38 18.394-39.438 14.273L-39.451 13.384C-39.46 12.702-38.803 10.187-39.176 9.35-40.306 6.811-40.935 4.001-40.935 1.046-40.935 .697-40.926 .349-40.909 .003-43.259-.401-45.047-2.348-45.047-4.681-45.047-6.551-43.924-8.195-42.147-8.983L-30.678-22.698V-34.156L-10.161-34.137V-22.695L1.21-8.987C2.967-8.215 4.117-6.539 4.117-4.681 4.117-2.353 2.339-.41 0 0" fill="#ffffff"/>
<path transform="matrix(1,0,0,-1,44.174,75.95231)" d="M0 0H.03V.014Z" fill="#ea0729"/>
<path transform="matrix(1,0,0,-1,42.0224,50.415109)" d="M0 0C-.019 .861 .096 1.384 .132 1.524L.145 1.579-2.045 3.187-2.086 3.088C-3.552-.476-2.633-4.343-2.524-4.772L-2.502-4.858-2.418-4.832C-.795-4.334 .521-4.319 .864-4.328L.992-4.331 .944-4.212C.199-2.368 .019-.904 0 0" fill="#586770"/>
<path transform="matrix(1,0,0,-1,39.3749,46.45701)" d="M0 0-.829-.769C-2.287-2.12-3.062-3.262-3.688-4.982-3.743-5.133-3.796-5.295-3.849-5.457L-3.926-5.684C-4.444-7.329-4.563-8.365-4.439-10.119L-4.4-10.624-3.973-10.353C-3.407-9.994-3.059-9.844-2.444-9.59-1.832-9.338-1.49-9.236-.907-9.09L-.62-9.017-.687-8.726C-.951-7.593-1.03-6.889-1.038-5.588-1.051-3.725-.831-2.693-.334-1.081Z" fill="#586770"/>
<path transform="matrix(1,0,0,-1,36.9733,47.897607)" d="M0 0-.715-.381C-3.417-1.803-4.848-3.062-6.601-5.561-8.763-8.651-9.511-10.977-9.566-14.78L-9.578-15.668-9.025-14.974C-8.053-13.755-7.429-13.104-6.244-12.073-5.092-11.073-4.387-10.591-3.146-9.827L-2.977-9.723-3.005-9.528C-3.198-8.155-3.175-7.147-2.921-5.809L-2.92-5.808C-2.488-3.331-.762-.974-.244-.311Z" fill="#586770"/>
<path transform="matrix(1,0,0,-1,49.5026,47.228105)" d="M0 0-2.191-1.609-2.177-1.663C-2.141-1.803-2.027-2.326-2.045-3.187-2.065-4.09-2.244-5.553-2.99-7.399L-3.037-7.516-2.827-7.514C-2.359-7.514-1.11-7.563 .372-8.019L.456-8.045 .478-7.96C.588-7.531 1.508-3.668 .041-.099Z" fill="#586770"/>
<path transform="matrix(1,0,0,-1,53.9664,51.952905)" d="M0 0C-.059 .182-.116 .353-.175 .515-.798 2.232-1.573 3.374-3.033 4.727L-3.862 5.496-3.528 4.415C-3.032 2.807-2.812 1.775-2.824-.092-2.832-1.391-2.91-2.095-3.175-3.23L-3.243-3.521-2.956-3.594C-2.374-3.74-2.031-3.842-1.418-4.094-.806-4.346-.46-4.495 .111-4.857L.539-5.128 .577-4.622C.702-2.869 .582-1.834 .064-.186Z" fill="#586770"/>
<path transform="matrix(1,0,0,-1,46.6909,49.611307)" d="M0 0C0 .445-.032 .647-.111 .717-.148 .756-.195 .76-.228 .76-.244 .76-.263 .758-.285 .756L-.312 .754C-.421 .744-.587 .718-.79 1.017L-.791 1.025-.788 1.031C-.694 1.112-.62 1.202-.568 1.301-.368 1.679-.505 2.162-.551 2.301L-.577 2.377-.654 2.355C-.835 2.302-1.278 2.141-1.477 1.764L-1.499 1.705C-1.808 1.861-2.109 1.862-2.423 1.705L-2.449 1.775C-2.642 2.141-3.085 2.302-3.267 2.355L-3.345 2.377-3.37 2.301C-3.43 2.122-3.548 1.668-3.354 1.302-3.341 1.277-3.326 1.253-3.31 1.229-3.263 1.158-3.204 1.092-3.133 1.031L-3.13 1.026-3.132 1.018C-3.194 .926-3.254 .865-3.309 .824-3.311 .823-3.312 .821-3.314 .82-3.322 .815-3.33 .81-3.337 .805-3.341 .802-3.345 .8-3.349 .798-3.354 .795-3.359 .792-3.364 .79-3.369 .787-3.375 .784-3.38 .782-3.404 .771-3.427 .763-3.449 .758-3.45 .758-3.451 .758-3.452 .758-3.459 .756-3.465 .755-3.472 .754-3.474 .754-3.475 .754-3.477 .754-3.482 .753-3.488 .752-3.494 .751-3.537 .748-3.576 .752-3.61 .755L-3.636 .757C-3.659 .759-3.677 .761-3.693 .761-3.696 .761-3.699 .761-3.702 .761H-3.703C-3.734 .76-3.776 .753-3.81 .718-3.883 .654-3.916 .475-3.921 .095-3.921 .094-3.921 .092-3.921 .091-3.921 .062-3.921 .032-3.921 .001V0C-3.921-1.399-3.565-3.7-2.969-5.129-2.647-5.905-2.308-6.299-1.961-6.299-1.617-6.299-1.281-5.913-.961-5.151-.359-3.723 0-1.41 0 0" fill="#586770"/>
<path transform="matrix(1,0,0,-1,62.0719,62.677804)" d="M0 0C-.054 3.803-.803 6.129-2.966 9.22-4.718 11.718-6.148 12.977-8.85 14.399L-9.566 14.781-9.322 14.469C-8.804 13.805-7.079 11.449-6.645 8.97-6.39 7.632-6.367 6.625-6.561 5.254L-6.589 5.057-6.419 4.953C-5.177 4.187-4.471 3.706-3.322 2.707-2.139 1.679-1.515 1.028-.541-.195L.013-.887Z" fill="#586770"/>
<path transform="matrix(1,0,0,-1,59.9044,84.6266)" d="M0 0H4.314L-6.866-13.569-8.118-11.366Z" fill="#fcd700"/>
<path transform="matrix(1,0,0,-1,49.9303,84.510608)" d="M0 0 5.393-.116-1.392-13.453-3.201-11.273Z" fill="#fcd700"/>
<path transform="matrix(1,0,0,-1,39.2372,84.6266)" d="M0 0H5.448V-9.44L3.962-10.674Z" fill="#fcd700"/>
<path transform="matrix(1,0,0,-1,29.6111,84.65681)" d="M0 0 4.268 .146 9.244-9.457C9.244-9.457 8.063-11.36 8.063-11.498 8.063-11.636 0 0 0 0" fill="#fcd700"/>
<path transform="matrix(1,0,0,-1,64.0747,83.970409)" d="M0 0H-38.685C-40.173 0-41.384 1.046-41.384 2.331-41.384 3.613-40.173 4.656-38.685 4.656H0C1.487 4.656 2.697 3.613 2.697 2.331 2.697 1.046 1.487 0 0 0" fill="#149bd7"/>
<path transform="matrix(1,0,0,-1,45.09,78.55241)" d="M0 0H3.926C3.857 .646 3.817 1.253 3.785 1.859H0Z" fill="#f96c0f"/>
<path transform="matrix(1,0,0,-1,62.6528,76.69311)" d="M0 0H-12.917C-12.882-.772-12.82-1.407-12.765-1.856L-.168-1.863C-.07-1.241-.017-.623 0 0" fill="#f96c0f"/>
<path transform="matrix(1,0,0,-1,62.6761,75.77971)" d="M0 0C-.036 5.81-2.872 10.957-7.206 14.208-12.294 10.828-13.049 4.134-12.972 .002Z" fill="#f96c0f"/>
<path transform="matrix(1,0,0,-1,54.7262,61.035905)" d="M0 0C0 0-6.134-3.631-5.89-14.744L-9.644-14.742V3.047C-6.083 2.975-2.756 1.856 0 0" fill="#f96c0f"/>
<path transform="matrix(1,0,0,-1,39.7541,78.556407)" d="M0 0-12.741 .009C-12.835 .629-12.894 1.243-12.922 1.875L.224 1.863C.178 1.258 .107 .645 0 .004Z" fill="#f96c0f"/>
<path transform="matrix(1,0,0,-1,40.6355,78.5593)" d="M0 0C.082 .456 .169 1.094 .217 1.866H3.609V0Z" fill="#f96c0f"/>
<path transform="matrix(1,0,0,-1,44.2451,75.77781)" d="M0 0H-3.344C-3.245 3.852-4.282 10.069-9.799 14.565-7.015 16.521-3.645 17.695 .004 17.789Z" fill="#f96c0f"/>
<path transform="matrix(1,0,0,-1,33.771,61.706308)" d="M0 0C.126-.081 6.611-4.422 6.261-14.071L-6.951-14.066C-6.907-8.343-4.201-3.256-.002-.007Z" fill="#f96c0f"/>
<path transform="matrix(1,0,0,-1,36.3791,98.62921)" d="M0 0-11.794 14.231-6.299 14.518 1.295 2.787Z" fill="#ea0729"/>
<path transform="matrix(1,0,0,-1,40.9805,97.96371)" d="M0 0-6.795 13.738-1.88 13.852 2.544 2.598Z" fill="#ea0729"/>
<path transform="matrix(1,0,0,-1,47.0213,96.5372)" d="M0 0-2.336 2.529-2.147 12.436 3.24 12.009Z" fill="#ea0729"/>
<path transform="matrix(1,0,0,-1,51.7628,96.3952)" d="M0 0-1.461 2.317 3.646 12.284 8.582 12Z" fill="#ea0729"/>
<path transform="matrix(1,0,0,-1,25.8201,80.18001)" d="M0 0H-.856L.421-3.025H1.032L2.323 0H1.469L.729-1.839ZM3.933-1.893H3.275L3.6-.933ZM4.144-2.499 4.338-3.025H5.18L4.037 0H3.181L2.017-3.025H2.854L3.062-2.499ZM6.34 0H5.553V-3.025H7.278V-2.36H6.34ZM9.398-.665V0H7.675V-3.025H9.398V-2.36H8.462V-1.839H9.347V-1.166H8.462V-.665ZM10.013-3.025H10.8V-1.166L12.249-3.025H13.034V0H12.249V-1.849L10.8 0H10.013ZM15.85-.077C15.615 .028 15.377 .082 15.127 .082 14.703 .082 14.274-.102 13.974-.407 13.683-.71 13.527-1.102 13.527-1.506 13.527-1.971 13.679-2.36 14.014-2.661 14.329-2.943 14.731-3.099 15.153-3.099 15.399-3.099 15.587-3.043 15.85-2.963V-2.015C15.681-2.221 15.428-2.35 15.167-2.35 14.678-2.35 14.347-1.995 14.347-1.516 14.347-1.052 14.675-.685 15.16-.685 15.428-.685 15.684-.797 15.85-1.013ZM17.253 0H16.468V-3.025H17.253ZM19.539-1.893H18.888L19.212-.933ZM19.749-2.499 19.945-3.025H20.781L19.65 0H18.788L17.627-3.025H18.458L18.662-2.499ZM23.465-.603H23.515C23.725-.603 23.973-.618 23.973-.894 23.973-1.152 23.758-1.187 23.548-1.187H23.465ZM23.465-1.77H23.544C23.796-1.77 24.186-1.737 24.186-2.102 24.186-2.437 23.788-2.427 23.558-2.427H23.465ZM23.886-3.025C24.442-3.025 24.978-2.819 24.978-2.187 24.978-1.757 24.801-1.469 24.36-1.417 24.6-1.279 24.698-1.057 24.698-.782 24.698-.209 24.332 0 23.796 0H22.678V-3.025ZM27.162-1.893H26.511L26.832-.933ZM27.376-2.499 27.572-3.025H28.413L27.273 0H26.412L25.243-3.025H26.08L26.283-2.499ZM30.758-.169C30.498-.02 30.12 .082 29.82 .082 29.207 .082 28.772-.317 28.772-.933 28.772-1.516 29.098-1.648 29.586-1.786 29.758-1.839 30.073-1.914 30.073-2.131 30.073-2.352 29.874-2.447 29.688-2.447 29.415-2.447 29.187-2.293 28.991-2.124L28.656-2.765C28.959-2.976 29.335-3.099 29.712-3.099 30.018-3.099 30.341-3.02 30.574-2.819 30.813-2.615 30.886-2.313 30.886-2.008 30.886-1.506 30.558-1.308 30.14-1.166L29.939-1.122C29.805-1.072 29.586-1.005 29.586-.836 29.586-.657 29.78-.581 29.928-.581 30.12-.581 30.304-.655 30.45-.776ZM32.192-1.25 32.186 0H31.397V-3.025H32.186V-1.712L33.201-3.025H34.22L32.907-1.439 34.116 0H33.133ZM36.29-.665V0H34.569V-3.025H36.29V-2.36H35.356V-1.839H36.24V-1.166H35.356V-.665ZM38.115-.665H38.761V0H36.673V-.665H37.325V-3.025H38.115Z" fill="#ffffff"/>
<path transform="matrix(1,0,0,-1,67.6897,81.63341)" d="M0 0C0 1.743-1.543 3.161-3.439 3.161H-4.261C-4.141 4.077-4.083 4.915-4.083 5.72-4.083 16.125-12.547 24.591-22.95 24.591-33.349 24.591-41.811 16.125-41.811 5.72-41.811 4.847-41.752 3.982-41.636 3.147L-42.473 3.161C-44.372 3.161-45.917 1.743-45.917 0-45.917-1.329-45.032-2.492-43.651-2.966L-31.566-17.417V-27.639H-30.51V-24.105L-29.043-21.617-27.396-24.401V-27.596H-26.326V-24.29L-24.75-21.458-23.267-24.423V-27.639H-22.201V-24.239L-20.806-21.42-19.292-24.087V-27.596H-18.238V-24.088L-16.746-21.547-15.293-23.871V-27.619H-14.26V-17.417L-2.272-2.967C-.912-2.517 0-1.328 0 0M-16.59-12.742-11.857-3.253H-3.916L-14.686-16.202ZM-19.191-15.716-22.234-12.115V-3.253H-13.045ZM-16.104-20.561-15.306-19.246V-21.89ZM-18.425-16.666-17.063-13.948-15.318-17.184-16.723-19.541ZM-20.232-20.265-18.992-17.793-17.355-20.551-18.763-22.944ZM-20.88-19.164-22.201-16.777-22.183-13.789-19.69-16.749ZM-24.16-20.382-22.767-17.858-21.407-20.318-22.769-23.078ZM-25.99-16.731-23.267-13.731V-16.596L-24.724-19.221ZM-26.534-15.691-32.765-3.253H-23.301V-12.114ZM-28.435-20.623-26.673-17.687-25.311-20.354-26.896-23.186ZM-30.435-17.13-28.768-13.537-27.239-16.572-29.015-19.605ZM-30.468-19.193-29.642-20.591-30.468-22.011ZM-42.054-3.253H-33.955L-29.416-12.286-31.24-16.175ZM-33.912 19.821C-33.291 19.391-27.443 15.081-27.739 5.94L-40.785 5.945C-40.718 11.42-38.217 16.471-33.912 19.821M-27.802 4.857C-27.852 4.264-27.918 3.712-28.006 3.161L-40.603 3.17C-40.687 3.72-40.742 4.277-40.767 4.868ZM-23.525 23.559-23.53 5.94H-26.7C-26.645 8.737-27.187 15.532-33.107 20.416-30.29 22.368-26.981 23.453-23.525 23.559M-26.759 4.857H-23.53V3.158H-26.955C-26.889 3.543-26.808 4.123-26.759 4.857M-13.116 20.599C-13.941 20.037-19.132 16.086-18.939 5.938L-22.524 5.94V23.559C-19.16 23.475-15.912 22.453-13.116 20.599M-18.895 4.857C-18.865 4.252-18.823 3.709-18.767 3.161L-22.516 3.166V4.857ZM-5.099 5.938-17.904 5.94C-17.964 9.754-17.291 16.551-12.223 19.959-7.753 16.583-5.16 11.48-5.099 5.938M-5.123 4.857C-5.139 4.295-5.188 3.739-5.271 3.161H-17.727C-17.776 3.604-17.834 4.181-17.866 4.857ZM-.918-.01C-.918-1.296-2.128-2.341-3.615-2.341H-42.3C-42.487-2.341-42.669-2.325-42.844-2.294-44.073-2.076-45.001-1.135-45.001-.01-45.001 1.272-43.79 2.315-42.302 2.315H-3.617C-3.431 2.315-3.249 2.298-3.073 2.267-1.845 2.05-.918 1.111-.918-.01" fill="#586770"/>
<path transform="matrix(1,0,0,-1,82.6905,51.93171)" d="M0 0H-1.378L-4.468-9.21H-4.508L-7.445 0H-8.889L-5.28-10.642H-3.731Z" fill="#ffffff"/>
<path transform="matrix(1,0,0,-1,89.5109,57.856409)" d="M0 0C.013-.409-.026-.909-.137-1.504-.242-2.098-.514-2.631-.965-3.1-1.416-3.568-2.144-3.818-3.157-3.835-3.777-3.848-4.293-3.697-4.717-3.402-5.136-3.107-5.353-2.609-5.376-1.92-5.353-1.155-5.093-.589-4.582-.213-4.084 .152-3.445 .395-2.685 .498-1.932 .615-1.16 .664-.377 .652H0ZM.12-4.717H1.409C1.364-4.366 1.329-3.996 1.322-3.642 1.31-3.291 1.305-2.906 1.305-2.487V2.208C1.317 3.59 1.022 4.604 .429 5.236-.172 5.865-1.122 6.183-2.429 6.177-2.918 6.175-3.456 6.101-4.041 5.964-4.625 5.828-5.13 5.657-5.556 5.447V4.178C-5.064 4.488-4.566 4.709-4.041 4.852-3.52 4.988-2.978 5.055-2.429 5.055-1.55 5.048-.923 4.822-.549 4.369-.176 3.905 .009 3.227 0 2.312V1.771H-.254C-1.21 1.794-2.179 1.73-3.175 1.6-4.178 1.457-5.026 1.125-5.725 .594-6.417 .063-6.778-.79-6.813-1.955-6.82-2.304-6.744-2.693-6.577-3.162-6.402-3.635-6.067-4.039-5.554-4.403-5.051-4.757-4.293-4.953-3.304-4.965-2.63-4.965-1.971-4.797-1.337-4.46-.71-4.133-.233-3.642 .079-3.013H.12Z" fill="#ffffff"/>
<path transform="matrix(1,0,0,-1,0,155.906)" d="M92.904 93.332H94.218V108.982H92.904Z" fill="#ffffff"/>
<path transform="matrix(1,0,0,-1,97.169,56.503404)" d="M0 0C0 .6 .128 1.172 .377 1.74 .627 2.304 .989 2.76 1.456 3.135 1.915 3.499 2.475 3.687 3.13 3.695 3.781 3.687 4.304 3.506 4.71 3.155 5.104 2.8 5.384 2.344 5.573 1.791 5.755 1.227 5.848 .63 5.848 0ZM6.484-4.4C6.152-4.606 5.694-4.787 5.126-4.943 4.546-5.107 4.009-5.186 3.504-5.193 2.351-5.164 1.479-4.77 .889-3.999 .298-3.238 0-2.275 0-1.123H7.283V-.456C7.283 .513 7.143 1.388 6.849 2.183 6.559 2.976 6.103 3.611 5.478 4.094 4.854 4.564 4.042 4.808 3.047 4.824 1.678 4.797 .597 4.272-.211 3.259-1.009 2.245-1.427 .91-1.442-.743-1.459-2.379-1.093-3.705-.345-4.732 .407-5.756 1.655-6.286 3.404-6.318 3.908-6.318 4.42-6.264 4.968-6.167 5.513-6.07 6.019-5.922 6.484-5.734Z" fill="#ffffff"/>
<path transform="matrix(1,0,0,-1,105.9109,62.573808)" d="M0 0H1.316V5.887C1.309 6.489 1.397 7.092 1.596 7.684 1.791 8.268 2.117 8.759 2.585 9.163 3.043 9.55 3.672 9.75 4.468 9.772 5.365 9.758 6.018 9.463 6.405 8.871 6.804 8.286 6.995 7.485 6.988 6.469V0H8.311V6.804C8.314 8.001 8.039 8.974 7.468 9.72 6.908 10.484 5.972 10.867 4.676 10.894 3.586 10.867 2.792 10.63 2.282 10.176 1.782 9.738 1.425 9.252 1.233 8.746H1.188V10.642H-.079C-.042 10.211-.019 9.792-.012 9.374-.007 8.962 .002 8.551 0 8.142Z" fill="#ffffff"/>
<path transform="matrix(1,0,0,-1,123.5131,52.090204)" d="M0 0C-.19 .067-.505 .151-.948 .246-1.385 .342-1.929 .394-2.569 .411-4.163 .384-5.441-.136-6.378-1.147-7.322-2.161-7.802-3.499-7.817-5.156-7.817-6.162-7.639-7.089-7.269-7.926-6.894-8.76-6.333-9.439-5.574-9.946-4.823-10.454-3.88-10.719-2.74-10.732-2.234-10.734-1.767-10.719-1.33-10.657-.885-10.61-.445-10.506 0-10.362L-.125-9.131C-.52-9.285-.919-9.396-1.31-9.473-1.709-9.562-2.107-9.601-2.524-9.601-3.736-9.572-4.675-9.131-5.359-8.296-6.032-7.451-6.374-6.408-6.392-5.156-6.378-3.838-6.032-2.775-5.346-1.965-4.658-1.155-3.673-.736-2.384-.711-2.024-.718-1.641-.771-1.241-.875-.847-.966-.465-1.096-.105-1.259Z" fill="#ffffff"/>
<path transform="matrix(1,0,0,-1,0,155.906)" d="M124.735 93.332H126.052V103.974H124.735ZM124.735 106.822H126.052V108.561H124.735Z" fill="#ffffff"/>
<path transform="matrix(1,0,0,-1,134.3373,57.856409)" d="M0 0C.017-.409-.025-.909-.126-1.504-.236-2.098-.507-2.631-.954-3.1-1.403-3.568-2.139-3.818-3.15-3.835-3.771-3.848-4.292-3.697-4.709-3.402-5.133-3.107-5.349-2.609-5.363-1.92-5.349-1.155-5.075-.589-4.578-.213-4.064 .152-3.437 .395-2.68 .498-1.921 .615-1.152 .664-.378 .652H0ZM.124-4.717H1.419C1.372-4.366 1.336-3.996 1.33-3.642 1.316-3.291 1.313-2.906 1.316-2.487V2.208C1.33 3.59 1.032 4.604 .431 5.236-.164 5.865-1.11 6.183-2.426 6.177-2.912 6.175-3.444 6.101-4.029 5.964-4.611 5.828-5.124 5.657-5.553 5.447V4.178C-5.057 4.488-4.55 4.709-4.029 4.852-3.514 4.988-2.971 5.055-2.426 5.055-1.536 5.048-.915 4.822-.545 4.369-.168 3.905 .003 3.227 0 2.312V1.771H-.253C-1.201 1.794-2.178 1.73-3.175 1.6-4.165 1.457-5.017 1.125-5.709 .594-6.403 .063-6.764-.79-6.799-1.955-6.812-2.304-6.733-2.693-6.563-3.162-6.393-3.635-6.056-4.039-5.553-4.403-5.045-4.757-4.292-4.953-3.299-4.965-2.621-4.965-1.963-4.797-1.337-4.46-.697-4.133-.228-3.642 .087-3.013H.124Z" fill="#ffffff"/>
<path transform="matrix(1,0,0,-1,75.1801,106.6629)" d="M0 0C0 .225 .023 .445 .079 .656 .141 .865 .24 1.04 .387 1.182 .531 1.323 .733 1.4 .993 1.402 1.237 1.4 1.433 1.32 1.582 1.182 1.726 1.033 1.831 .842 1.895 .634 1.957 .421 1.988 .213 1.988 0 1.988-.209 1.957-.427 1.895-.637 1.831-.845 1.726-1.031 1.582-1.172 1.433-1.323 1.237-1.391 .993-1.4 .733-1.391 .531-1.323 .387-1.182 .24-1.046 .141-.865 .079-.645 .023-.446 0-.221 0 0M2.401 3.261H1.988V1.114H1.975C1.956 1.171 1.903 1.254 1.824 1.35 1.742 1.459 1.629 1.551 1.477 1.625 1.33 1.712 1.143 1.752 .927 1.754 .436 1.752 .079 1.585-.136 1.258-.354 .941-.459 .52-.453 0-.453-.333-.407-.63-.303-.885-.201-1.162-.042-1.368 .161-1.522 .368-1.678 .62-1.755 .927-1.755 1.169-1.755 1.372-1.71 1.541-1.611 1.717-1.507 1.861-1.358 1.975-1.14H1.988V-1.683H2.401Z" fill="#ffffff"/>
<path transform="matrix(1,0,0,-1,78.7778,106.42511)" d="M0 0C0 .188 .038 .369 .124 .547 .198 .723 .31 .877 .458 .989 .605 1.101 .783 1.16 .992 1.164 1.194 1.16 1.355 1.101 1.485 .991 1.613 .882 1.702 .733 1.762 .57 1.821 .384 1.846 .203 1.846 0ZM2.048-1.39C1.944-1.46 1.799-1.506 1.618-1.559 1.435-1.613 1.265-1.632 1.108-1.638 .746-1.629 .467-1.502 .283-1.268 .097-1.026 0-.721 0-.362H2.294V-.147C2.294 .158 2.258 .436 2.163 .693 2.073 .944 1.925 1.139 1.727 1.291 1.537 1.437 1.28 1.514 .966 1.516 .53 1.514 .192 1.348-.067 1.02-.322 .708-.446 .288-.459-.238-.461-.754-.346-1.164-.106-1.489 .131-1.819 .523-1.983 1.073-1.993 1.232-1.993 1.396-1.968 1.576-1.947 1.742-1.92 1.894-1.864 2.048-1.814Z" fill="#ffffff"/>
<path transform="matrix(1,0,0,-1,81.5551,108.266307)" d="M0 0C.15-.049 .3-.102 .461-.122 .62-.142 .786-.152 .944-.152 1.115-.152 1.293-.126 1.477-.065 1.653-.008 1.802 .102 1.925 .236 2.045 .374 2.11 .563 2.111 .803 2.108 1.071 2.022 1.286 1.864 1.435 1.691 1.578 1.505 1.705 1.284 1.804 1.07 1.891 .881 1.992 .72 2.076 .554 2.175 .468 2.307 .461 2.444 .467 2.664 .528 2.808 .659 2.892 .794 2.974 .972 3.018 1.188 3.006 1.309 3.006 1.435 2.99 1.562 2.969 1.691 2.934 1.82 2.899 1.933 2.847L1.973 3.208C1.82 3.266 1.663 3.301 1.507 3.327 1.366 3.356 1.234 3.358 1.14 3.358 .85 3.358 .599 3.293 .39 3.157 .17 3.018 .057 2.775 .046 2.444 .057 2.21 .147 2.024 .295 1.888 .46 1.757 .645 1.65 .855 1.564 1.063 1.472 1.253 1.373 1.41 1.258 1.566 1.144 1.653 .991 1.662 .803 1.653 .6 1.579 .464 1.44 .356 1.293 .255 1.121 .203 .911 .203 .754 .203 .599 .228 .448 .26 .3 .297 .17 .352 .044 .416Z" fill="#ffffff"/>
<path transform="matrix(1,0,0,-1,86.5033,106.6629)" d="M0 0C0 .225 .029 .445 .088 .656 .14 .865 .244 1.04 .383 1.182 .527 1.323 .734 1.4 .992 1.402 1.238 1.4 1.43 1.32 1.582 1.182 1.728 1.033 1.832 .842 1.899 .634 1.959 .421 1.991 .213 1.985 0 1.991-.209 1.959-.427 1.899-.637 1.832-.845 1.728-1.031 1.582-1.172 1.43-1.323 1.238-1.391 .992-1.4 .734-1.391 .527-1.323 .383-1.182 .244-1.046 .14-.865 .088-.645 .029-.446 0-.221 0 0M2.402 3.261H1.985V1.114H1.973C1.959 1.171 1.905 1.254 1.832 1.35 1.742 1.459 1.63 1.551 1.48 1.625 1.331 1.712 1.145 1.752 .93 1.754 .443 1.752 .088 1.585-.135 1.258-.353 .941-.455 .52-.453 0-.453-.333-.4-.63-.297-.885-.2-1.162-.044-1.368 .159-1.522 .37-1.678 .62-1.755 .93-1.755 1.17-1.755 1.376-1.71 1.547-1.611 1.72-1.507 1.86-1.358 1.973-1.14H1.985V-1.683H2.402Z" fill="#ffffff"/>
<path transform="matrix(1,0,0,-1,90.1001,106.42511)" d="M0 0C.007 .188 .039 .369 .121 .547 .2 .723 .311 .877 .461 .989 .606 1.101 .788 1.16 .992 1.164 1.196 1.16 1.363 1.101 1.487 .991 1.613 .882 1.706 .733 1.763 .57 1.823 .384 1.843 .203 1.843 0ZM2.048-1.39C1.945-1.46 1.799-1.506 1.618-1.559 1.436-1.613 1.265-1.632 1.107-1.638 .749-1.629 .475-1.502 .284-1.268 .096-1.026 .007-.721 0-.362H2.299V-.147C2.299 .158 2.258 .436 2.166 .693 2.073 .944 1.922 1.139 1.729 1.291 1.538 1.437 1.28 1.514 .967 1.516 .53 1.514 .19 1.348-.059 1.02-.317 .708-.448 .288-.451-.238-.459-.754-.342-1.164-.107-1.489 .133-1.819 .525-1.983 1.072-1.993 1.235-1.993 1.397-1.968 1.573-1.947 1.742-1.92 1.898-1.864 2.048-1.814Z" fill="#ffffff"/>
<path transform="matrix(1,0,0,-1,96.3378,103.751209)" d="M0 0-1.037-.866-.792-1.16-.043-.503V-4.594H.41V0Z" fill="#ffffff"/>
<path transform="matrix(1,0,0,-1,99.8907,106.2514)" d="M0 0C-.318 0-.559 .089-.728 .292-.89 .47-.975 .73-.975 1.07-.975 1.385-.884 1.64-.71 1.846-.534 2.044-.276 2.148 .063 2.15 .281 2.15 .468 2.104 .616 1.989 .77 1.878 .871 1.739 .943 1.573 1.016 1.392 1.05 1.209 1.05 1.013 1.05 .708 .95 .468 .77 .28 .586 .089 .339 0 0 0M.073 2.544C-.398 2.542-.769 2.403-1.025 2.133-1.292 1.858-1.424 1.491-1.426 1.036-1.416 .658-1.349 .363-1.193 .16-1.044-.055-.856-.196-.64-.275-.419-.363-.202-.402 0-.392 .218-.402 .421-.355 .607-.263 .807-.171 .955-.023 1.079 .168H1.092C1.101-.154 1.05-.451 .95-.744 .859-1.041 .697-1.277 .465-1.465 .237-1.653-.071-1.745-.47-1.745-.601-1.745-.737-1.72-.878-1.7-1.005-1.676-1.129-1.641-1.229-1.594L-1.262-2.03C-1.14-2.06-1.015-2.08-.893-2.1-.774-2.126-.645-2.139-.521-2.139-.016-2.126 .398-2.017 .703-1.797 1.001-1.574 1.228-1.271 1.357-.895 1.489-.516 1.552-.097 1.552 .374 1.552 .736 1.514 1.09 1.437 1.414 1.357 1.739 1.211 2.009 .998 2.23 .782 2.438 .472 2.542 .073 2.544" fill="#ffffff"/>
<path transform="matrix(1,0,0,-1,102.6897,104.8123)" d="M0 0C.019 .238 .112 .427 .295 .54 .463 .664 .688 .711 .935 .711 1.083 .711 1.219 .694 1.366 .637 1.499 .588 1.615 .508 1.705 .402 1.801 .3 1.852 .161 1.856 0 1.852-.161 1.799-.297 1.705-.413 1.609-.54 1.496-.646 1.357-.736 1.216-.827 1.072-.905 .935-.972 .8-.911 .666-.84 .526-.765 .382-.669 .265-.562 .158-.448 .064-.322 .013-.176 0 0M2.007-2.31C2.002-2.515 1.949-2.686 1.849-2.817 1.744-2.946 1.609-3.033 1.449-3.098 1.291-3.157 1.119-3.184 .935-3.184 .758-3.184 .582-3.142 .416-3.08 .258-3.015 .122-2.914 .025-2.795-.089-2.668-.139-2.52-.141-2.352-.139-2.141-.089-1.979 .022-1.851 .122-1.714 .253-1.615 .416-1.536 .582-1.455 .754-1.385 .935-1.311 1.083-1.385 1.232-1.455 1.396-1.536 1.562-1.615 1.701-1.714 1.82-1.841 1.94-1.97 2.002-2.118 2.007-2.31M-.449 .034C-.442-.265-.346-.503-.168-.689 .013-.882 .219-1.031 .46-1.133 .158-1.244-.095-1.385-.29-1.566-.491-1.742-.59-2.007-.599-2.352-.59-2.626-.516-2.864-.358-3.038-.208-3.226-.02-3.352 .214-3.446 .441-3.533 .688-3.581 .935-3.578 1.184-3.581 1.427-3.539 1.655-3.462 1.89-3.377 2.079-3.245 2.23-3.073 2.377-2.891 2.452-2.651 2.463-2.352 2.452-1.997 2.351-1.734 2.153-1.563 1.947-1.385 1.682-1.244 1.368-1.137 1.516-1.06 1.662-.966 1.801-.855 1.947-.736 2.066-.609 2.16-.468 2.255-.317 2.302-.154 2.302 .034 2.302 .289 2.236 .493 2.111 .647 1.982 .805 1.814 .924 1.605 .999 1.407 1.066 1.177 1.105 .935 1.105 .739 1.105 .533 1.066 .324 1.001 .114 .929-.067 .815-.215 .664-.366 .496-.442 .295-.449 .034" fill="#ffffff"/>
<path transform="matrix(1,0,0,-1,107.3563,105.8311)" d="M0 0C.317-.002 .554-.106 .723-.287 .89-.473 .964-.73 .964-1.078 .964-1.397 .886-1.65 .708-1.846 .527-2.054 .277-2.153-.064-2.165-.291-2.161-.471-2.1-.614-1.994-.769-1.883-.875-1.744-.945-1.568-1.017-1.4-1.049-1.214-1.049-1.023-1.049-.716-.951-.473-.775-.287-.591-.106-.336-.012 0 0M-.078-2.559C.402-2.546 .77-2.413 1.028-2.138 1.288-1.862 1.419-1.496 1.427-1.04 1.419-.661 1.335-.369 1.188-.158 1.039 .05 .86 .192 .641 .275 .42 .355 .2 .397 0 .395-.214 .397-.424 .35-.613 .254-.802 .164-.955 .018-1.081-.171H-1.096C-1.098 .139-1.054 .449-.955 .741-.864 1.029-.697 1.272-.463 1.457-.238 1.641 .066 1.73 .463 1.73 .602 1.73 .735 1.718 .874 1.696 1.005 1.665 1.122 1.635 1.224 1.589L1.267 2.025C1.144 2.064 1.015 2.08 .893 2.099 .777 2.122 .651 2.124 .525 2.124 .004 2.122-.404 2.012-.702 1.787-1.012 1.569-1.222 1.262-1.357 .892-1.485 .516-1.554 .099-1.549-.369-1.554-.745-1.52-1.09-1.438-1.424-1.357-1.752-1.215-2.014-.994-2.227-.789-2.443-.48-2.546-.078-2.559" fill="#ffffff"/>
<path transform="matrix(1,0,0,-1,82.5522,76.71811)" d="M0 0C.012-.699-.077-1.395-.26-2.066-.444-2.748-.766-3.303-1.222-3.749-1.678-4.192-2.32-4.429-3.148-4.445-3.928-4.429-4.543-4.183-5.01-3.719-5.471-3.25-5.804-2.691-6.004-2.009-6.208-1.335-6.304-.661-6.304 0-6.304 .669-6.21 1.341-6.019 2.017-5.824 2.699-5.497 3.264-5.033 3.732-4.571 4.188-3.945 4.431-3.148 4.451-2.32 4.431-1.678 4.205-1.222 3.759-.766 3.308-.444 2.749-.26 2.076-.077 1.403 .012 .714 0 0M-7.612-5.32H-6.304V-3.627H-6.262C-5.903-4.301-5.456-4.8-4.902-5.114-4.357-5.416-3.703-5.572-2.934-5.565-1.969-5.556-1.154-5.312-.505-4.829 .143-4.344 .626-3.682 .947-2.832 1.276-2.007 1.437-1.053 1.437 0 1.454 1.653 1.113 2.986 .42 4.004-.273 5.018-1.393 5.541-2.934 5.58-3.638 5.558-4.219 5.424-4.691 5.164-5.157 4.899-5.521 4.612-5.776 4.294-6.039 3.97-6.195 3.719-6.262 3.531H-6.304V10.335H-7.612Z" fill="#ffffff"/>
<path transform="matrix(1,0,0,-1,91.5145,77.31511)" d="M0 0C.012-.409-.033-.914-.132-1.511-.241-2.109-.515-2.636-.963-3.11-1.414-3.565-2.141-3.816-3.154-3.848-3.776-3.853-4.297-3.709-4.709-3.414-5.134-3.112-5.347-2.617-5.367-1.928-5.347-1.158-5.085-.585-4.579-.219-4.074 .149-3.447 .387-2.686 .501-1.922 .602-1.154 .654-.378 .649H0ZM.123-4.723H1.415C1.366-4.364 1.333-4.004 1.32-3.655 1.308-3.295 1.303-2.914 1.303-2.49V2.208C1.319 3.585 1.027 4.596 .428 5.234-.158 5.875-1.118 6.185-2.419 6.177-2.919 6.165-3.449 6.088-4.034 5.954-4.621 5.811-5.124 5.649-5.556 5.446V4.17C-5.058 4.482-4.559 4.708-4.034 4.847-3.516 4.983-2.98 5.048-2.419 5.048-1.537 5.048-.915 4.818-.545 4.361-.171 3.905 .004 3.221 0 2.312V1.772H-.254C-1.199 1.791-2.175 1.727-3.176 1.593-4.175 1.45-5.025 1.123-5.718 .588-6.407 .052-6.773-.805-6.805-1.97-6.813-2.302-6.74-2.706-6.57-3.177-6.398-3.635-6.059-4.044-5.556-4.408-5.053-4.76-4.297-4.951-3.296-4.968-2.622-4.968-1.963-4.795-1.338-4.47-.705-4.141-.236-3.655 .076-3.008H.123Z" fill="#ffffff"/>
<path transform="matrix(1,0,0,-1,93.8681,81.785)" d="M0 0C.466-.181 .952-.318 1.457-.391 1.956-.468 2.463-.505 2.981-.505 3.534-.505 4.087-.411 4.66-.219 5.22-.025 5.699 .292 6.088 .731 6.475 1.184 6.676 1.779 6.692 2.522 6.667 3.372 6.387 4.055 5.877 4.532 5.353 5.01 4.757 5.404 4.076 5.694 3.387 5.987 2.788 6.288 2.27 6.581 1.757 6.878 1.487 7.257 1.457 7.743 1.467 8.412 1.678 8.876 2.094 9.14 2.505 9.398 3.065 9.53 3.749 9.518 4.129 9.518 4.527 9.473 4.949 9.384 5.372 9.297 5.752 9.178 6.114 9.014L6.237 10.169C5.747 10.345 5.264 10.461 4.778 10.536 4.29 10.608 3.902 10.647 3.603 10.647 2.691 10.655 1.896 10.43 1.212 9.976 .533 9.533 .178 8.786 .144 7.743 .169 6.992 .434 6.393 .942 5.974 1.447 5.556 2.032 5.206 2.699 4.923 3.368 4.638 3.956 4.322 4.456 3.967 4.96 3.62 5.226 3.139 5.253 2.522 5.235 1.908 5 1.442 4.542 1.115 4.093 .788 3.542 .627 2.897 .622 2.374 .627 1.888 .684 1.42 .803 .952 .932 .515 1.085 .123 1.286Z" fill="#ffffff"/>
<path transform="matrix(1,0,0,-1,101.8087,82.0379)" d="M0 0H1.317V5.471L6.575 0H8.389L2.563 5.932 7.762 10.638H6.072L1.317 6.284V15.655H0Z" fill="#ffffff"/>
<path transform="matrix(1,0,0,-1,111.7336,75.96461)" d="M0 0C.005 .593 .125 1.179 .384 1.737 .627 2.3 .986 2.766 1.458 3.127 1.918 3.496 2.488 3.68 3.131 3.697 3.782 3.68 4.307 3.508 4.703 3.147 5.107 2.798 5.397 2.349 5.573 1.789 5.764 1.224 5.848 .626 5.846 0ZM6.491-4.403C6.15-4.611 5.7-4.789 5.127-4.946 4.557-5.105 4.01-5.188 3.501-5.198 2.359-5.167 1.482-4.775 .891-4.004 .3-3.241 .005-2.275 0-1.125H7.282V-.458C7.285 .503 7.144 1.383 6.857 2.178 6.564 2.979 6.106 3.611 5.484 4.091 4.854 4.564 4.04 4.805 3.048 4.827 1.682 4.795 .6 4.269-.204 3.258-1.015 2.243-1.415 .905-1.44-.754-1.459-2.384-1.09-3.706-.339-4.736 .406-5.758 1.658-6.288 3.405-6.326 3.905-6.326 4.436-6.267 4.973-6.169 5.521-6.073 6.024-5.922 6.491-5.739Z" fill="#ffffff"/>
<path transform="matrix(1,0,0,-1,124.9561,71.40031)" d="M0 0H-2.421V3.035L-3.738 2.572V0H-5.818V-1.113H-3.738V-7.335C-3.742-8.001-3.712-8.591-3.623-9.116-3.536-9.654-3.323-10.078-2.981-10.395-2.633-10.71-2.076-10.881-1.319-10.883-.979-10.883-.674-10.853-.384-10.786-.097-10.726 .126-10.665 .292-10.588L.215-9.51C.022-9.587-.164-9.643-.354-9.696-.538-9.735-.759-9.763-.999-9.763-1.525-9.748-1.896-9.582-2.111-9.238-2.324-8.908-2.428-8.502-2.421-8.009V-1.113H0Z" fill="#ffffff"/>
<path transform="matrix(1,0,0,-1,81.7594,89.9819)" d="M0 0C-.179 .072-.485 .154-.909 .237-1.326 .335-1.856 .391-2.471 .401-4.007 .367-5.226-.126-6.134-1.095-7.038-2.064-7.501-3.355-7.526-4.956-7.526-5.919-7.348-6.807-6.986-7.612-6.626-8.425-6.089-9.069-5.355-9.557-4.636-10.043-3.73-10.3-2.629-10.31-2.154-10.313-1.702-10.3-1.279-10.246-.858-10.199-.429-10.089 0-9.954L-.122-8.772C-.502-8.913-.88-9.03-1.261-9.102-1.638-9.193-2.03-9.232-2.426-9.232-3.588-9.201-4.503-8.784-5.152-7.969-5.799-7.154-6.131-6.152-6.141-4.956-6.134-3.69-5.799-2.671-5.145-1.888-4.472-1.11-3.521-.704-2.291-.679-1.945-.679-1.574-.736-1.192-.833-.816-.922-.449-1.048-.103-1.199Z" fill="#ffffff"/>
<path transform="matrix(1,0,0,-1,0,155.906)" d="M83.944 55.849H85.195V70.895H83.944Z" fill="#ffffff"/>
<path transform="matrix(1,0,0,-1,96.4028,89.82101)" d="M0 0H-1.261V-5.659C-1.251-6.242-1.345-6.824-1.531-7.389-1.717-7.951-2.035-8.427-2.47-8.807-2.928-9.186-3.523-9.379-4.284-9.394-5.153-9.386-5.778-9.089-6.157-8.529-6.541-7.967-6.724-7.196-6.716-6.221V0H-7.981V-6.539C-7.995-7.694-7.725-8.633-7.186-9.359-6.644-10.076-5.741-10.451-4.489-10.471-3.441-10.444-2.68-10.216-2.193-9.782-1.707-9.361-1.367-8.903-1.174-8.41H-1.139V-10.236H.083C.048-9.822 .025-9.419 .013-9.017 0-8.618 0-8.211 0-7.828Z" fill="#ffffff"/>
<path transform="matrix(1,0,0,-1,106.7933,94.93811)" d="M0 0C.01-.674-.073-1.346-.245-1.992-.417-2.638-.731-3.179-1.17-3.607-1.616-4.036-2.231-4.262-3.031-4.276-3.772-4.257-4.369-4.023-4.81-3.581-5.253-3.124-5.583-2.594-5.774-1.943-5.964-1.286-6.062-.641-6.062 0-6.062 .637-5.969 1.286-5.784 1.936-5.6 2.587-5.283 3.135-4.837 3.583-4.394 4.026-3.789 4.26-3.031 4.277-2.231 4.26-1.616 4.034-1.17 3.598-.731 3.177-.417 2.639-.245 1.993-.073 1.346 .01 .672 0 0M-7.318-5.119H-6.062V-3.494H-6.022C-5.676-4.141-5.249-4.619-4.718-4.914-4.193-5.213-3.559-5.357-2.829-5.354-1.891-5.347-1.108-5.109-.486-4.648 .139-4.177 .607-3.54 .919-2.74 1.228-1.935 1.384-1.018 1.384 0 1.397 1.586 1.074 2.862 .411 3.846-.258 4.825-1.334 5.323-2.829 5.36-3.494 5.337-4.058 5.204-4.506 4.956-4.961 4.708-5.309 4.438-5.559 4.123-5.801 3.819-5.957 3.576-6.022 3.393H-6.062V9.927H-7.318Z" fill="#ffffff"/>
</g>
</g>
</g>
</svg>
