<svg xmlns="http://www.w3.org/2000/svg" xmlns:xlink="http://www.w3.org/1999/xlink" version="1.1" width="155.906pt" height="155.906pt" viewBox="0 0 155.906 155.906">
<defs>
<clipPath id="clip_189">
<path transform="matrix(1,0,0,-1,0,155.906)" d="M0 155.906H155.906V0H0Z"/>
</clipPath>
</defs>
<g>
<g id="layer_1" data-name="bg orange">
</g>
<g id="layer_1" data-name="BOXES">
</g>
<g id="layer_1" data-name="LOGOS">
<path transform="matrix(1,0,0,-1,77.8379,47.679307)" d="M0 0-4.098-2.852-2.651 1.927-6.63 4.943-1.639 5.044 0 9.76 1.639 5.044 6.629 4.943 2.652 1.927 4.098-2.852Z" fill="#010100"/>
<path transform="matrix(1,0,0,-1,77.8379,47.162607)" d="M0 0 3.339-2.323 2.161 1.57 5.402 4.027 1.335 4.11 0 7.952-1.335 4.11-5.402 4.027-2.161 1.57-3.338-2.323Z" fill="#fbe803"/>
<g clip-path="url(#clip_189)">
<path transform="matrix(1,0,0,-1,76.658,74.52241)" d="M0 0C.218-.402-.187-.516-1.216-.343-7.462 .494-12.954 4.317-15.892 9.961-18.741 15.435-18.666 21.812-16.202 27.384-15.639 28.656-15.234 29.116-14.862 28.712ZM1.251 10.128-10.688 33.354C-10.892 33.75-10.872 34.166-10.381 34.537-3.59 39.673 5.768 39.743 12.628 34.745 13.272 34.276 13.24 33.404 12.967 32.874ZM2.764 0 17.361 28.847C17.729 29.255 18.14 28.798 18.714 27.531 21.229 21.982 21.362 15.606 18.564 10.106 15.677 4.435 10.22 .561 3.982-.332 2.955-.515 2.549-.403 2.764 0M22.495 18.92C22.495 30.66 12.977 40.178 1.238 40.178-10.504 40.178-20.021 30.66-20.021 18.92-20.021 7.179-10.504-2.339 1.238-2.339 12.977-2.339 22.495 7.179 22.495 18.92" fill-rule="evenodd"/>
<path transform="matrix(1,0,0,-1,99.1537,55.602609)" stroke-width=".25" stroke-linecap="butt" stroke-miterlimit="4" stroke-linejoin="miter" fill="none" stroke="#1d1e1c" d="M0 0C0-11.741-9.518-21.258-21.259-21.258-32.999-21.258-42.517-11.741-42.517 0-42.517 11.741-32.999 21.259-21.259 21.259-9.518 21.259 0 11.741 0 0Z"/>
<path transform="matrix(1,0,0,-1,0,155.906)" d="M114.483 73.801H41.422006V75.242008H114.483Z"/>
<path transform="matrix(1,0,0,-1,64.4328,91.17801)" d="M0 0C.414 .004 3.99 0 3.99 0L5.538 5.894H-1.732C-1.732 5.894-4.448 5.974-6.002 4.82L-6.362 4.533C-7.447 3.596-8.524 2.029-9.174-.582-10.946-7.701-14.821-22.508-14.821-22.508-14.821-22.508-15.193-24.452-17.595-24.452H-21.112L-22.681-30.375-14.94-30.381C-14.94-30.381-11.33-30.607-9.249-27.38-8.551-26.297-8.3-24.929-7.784-22.976-5.656-14.925-5.656-14.833-5.656-14.833L-2.513-2.895C-2.513-2.895-2.289-1.969-1.96-1.219-1.96-1.219-1.622-.015 0 0" fill="#e10b17" fill-rule="evenodd"/>
<path transform="matrix(1,0,0,-1,76.2866,119.2359)" d="M0 0 2.798 2.619 2.923 3.195H-.236L-.369 2.585H1.767L-1.083-.081-1.204-.639H2.134L2.273 0Z" fill="#1d1e1c"/>
<path transform="matrix(1,0,0,-1,81.774,119.0634)" d="M0 0 .08-.812H.906L.39 3.023H-.495L-2.732-.812H-1.912L-1.466 0ZM-.058 .559H-1.165L-.231 2.286Z" fill="#1d1e1c" fill-rule="evenodd"/>
<path transform="matrix(1,0,0,-1,84.0022,116.04091)" d="M0 0-.836-3.834H-.077L.526-1.071 1.665-3.834H2.479L3.315 0H2.555L1.97-2.683 .844 0Z" fill="#1d1e1c"/>
<path transform="matrix(1,0,0,-1,87.3858,119.87501)" d="M0 0H2.986L3.121 .616H.918L1.158 1.715H3.049L3.185 2.337H1.288L1.482 3.229H3.642L3.774 3.834H.836Z" fill="#1d1e1c"/>
<path transform="matrix(1,0,0,-1,93.7056,116.662609)" d="M0 0H1.257L1.392 .622H-1.911L-2.047 0H-.79L-1.491-3.212H-.701Z" fill="#1d1e1c"/>
<path transform="matrix(1,0,0,-1,97.4402,116.662609)" d="M0 0H1.256L1.392 .622H-1.911L-2.046 0H-.79L-1.492-3.212H-.701Z" fill="#1d1e1c"/>
<path transform="matrix(1,0,0,-1,99.6046,116.04091)" d="M0 0-.836-3.834H-.046L.79 0Z" fill="#1d1e1c"/>
<path transform="matrix(1,0,0,-1,111.4989,95.073009)" d="M0 0H.405C.83 0 .955-.158 .972-.702 .979-.893 .976-.935 1.039-1.013H1.516C1.463-.9 1.451-.848 1.436-.615L1.422-.409C1.406-.169 1.364-.057 1.261 .041 1.166 .127 1.079 .154 .864 .168 1.071 .206 1.135 .229 1.253 .308 1.41 .408 1.504 .593 1.504 .792 1.504 1.013 1.387 1.241 1.207 1.361 1.067 1.455 .918 1.485 .625 1.485H-.491V-1.013H0ZM0 .364V1.099H.53C.853 1.099 1.017 .975 1.017 .731 1.017 .506 .838 .364 .556 .364Z" fill="#1d1e1c" fill-rule="evenodd"/>
<path transform="matrix(1,0,0,-1,89.0206,105.95261)" d="M0 0H1.353 2.375L2.622 .859 3.37 3.535C3.37 3.535 3.719 4.799 4.052 6.162 4.385 7.526 3.461 7.866 3.037 7.924 2.536 7.994 1.924 7.842 1.458 7.625 .993 7.409 .944 7.931 .944 7.931H-1.445L-1.833 6.659-3.613 .693-6.034-8.335H-3.307L-2.864-6.506-1.185-.238C-1.185-.238 .07 4.557 .328 5.431 .349 5.502 .377 5.565 .403 5.62 .403 5.62 .585 6.081 1.043 6.013 1.465 5.95 1.485 5.664 1.436 5.415 1.385 5.165 1.342 5.032 1.342 5.032 1.342 5.032 .295 1.274 .178 .743Z" fill="#1d1e1c" fill-rule="evenodd"/>
<path transform="matrix(1,0,0,-1,87.2041,91.17801)" d="M0 0H2.669L2.118-2.114C2.118-2.114 1.852-2.117 1.009-2.121 .016-2.127-.191-3.195-.191-3.195-.191-3.195-.436-4.221-.96-6.285-1.104-6.85-.752-6.844-.752-6.844H-.126L-.811-9.011H-1.608L-3.587-16.093-5.482-23.11H-8.142L-7.128-19.053-5.665-13.567C-5.665-13.567-5.015-11.405-4.674-10.126L-4.329-8.988H-5.119L-5.117-8.952-4.904-8.012-4.604-6.903H-4.304C-3.779-6.903-3.697-6.505-3.697-6.505L-2.612-2.341C-2.612-2.341-2.033-.006 0 0" fill="#1d1e1c" fill-rule="evenodd"/>
<path transform="matrix(1,0,0,-1,100.232,114.1259)" d="M0 0C0 0 .105 .064 .231 .149 .338 .221 .479 .258 .573 .227 .775 .161 .806-.189 .806-.189H3.266L3.599 1.008 4.314 3.635 4.963 6.112 6.425 11.698 7.839 17.168 9.335 22.953H6.772C6.772 22.953 6.759 22.924 6.642 22.504 6.478 21.922 5.545 18.382 5.545 18.382L4.863 15.921C4.863 15.921 4.777 15.581 4.497 15.655 4.233 15.725 3.278 16.09 2.622 16.078 2.001 16.066 1.317 15.867 .856 14.857 .402 13.859-.175 11.399-.175 11.399L-1.322 7.026-2.518 2.487C-2.518 2.487-2.85 1.079-2.585 .526-2.394 .127-1.811-.657-.378-.181-.378-.181-.203-.133 0 0M3.89 14.359C4.147 14.354 4.334 14.173 4.258 13.875L1.38 2.623C1.304 2.325 1.123 2.033 .737 2.028 .457 2.024 .302 2.195 .37 2.512L3.248 13.764C3.324 14.062 3.464 14.39 3.89 14.359" fill="#1d1e1c" fill-rule="evenodd"/>
<path transform="matrix(1,0,0,-1,110.1323,97.98781)" d="M0 0 2.774 .028C3.656 .037 4.192-.671 3.971-1.552L.697-14.65C.476-15.531-.416-16.253-1.298-16.262L-4.072-16.289C-4.954-16.299-5.49-15.591-5.269-14.71L-1.964-1.608C-1.744-.727-1.124-.024 0 0M.964-1.764C1.223-1.761 1.407-1.95 1.331-2.248L-1.547-13.5C-1.68-14.005-1.9-14.106-2.189-14.095-2.47-14.083-2.632-13.909-2.556-13.611L.321-2.359C.397-2.061 .562-1.78 .964-1.764" fill="#1d1e1c" fill-rule="evenodd"/>
<path transform="matrix(1,0,0,-1,71.9869,98.4962)" d="M0 0C0 0 .944-.479 0 0-.972 .494-2.103 .119-2.103 .119-2.53-.027-3.3-.429-3.599-1.71-3.898-2.99-6.027-11.02-6.027-11.02L-6.623-13.287C-6.623-13.287-7.48-15.874-4.996-15.841-3.805-15.825-3.799-15.841-3.799-15.841L-4.151-17.43C-4.151-17.43-4.224-18.191-5.694-18.135H-7.722L-8.354-20.43H-4.364C-4.364-20.43-2.257-20.604-1.538-17.669L-.707-14.711 1.887-4.835 3.184 .269H.624C.624 .269 .538-.314 0 0M-.312-1.271C-.011-1.24 .166-1.457 .085-1.755L-3.02-13.008C-3.103-13.306-3.32-13.584-3.714-13.603-4.016-13.617-4.192-13.417-4.11-13.119L-1.005-1.866C-.923-1.568-.724-1.303-.312-1.271" fill="#1d1e1c" fill-rule="evenodd"/>
<path transform="matrix(1,0,0,-1,77.6995,106.94861)" d="M0 0C0 0-1.048-3.507-1.265-4.182-1.483-4.856-1.749-5.136-2.21-5.086-2.838-5.019-2.644-4.354-2.644-4.354-2.644-4.354-1.786-1.339-1.387-.2-.987 .938 .206 .992 .206 .992H.287ZM2.505 8.924C.411 9.024-.288 8.924-.288 8.924-.288 8.924-1.798 8.72-2.171 7.006L-2.806 4.311H-.288L-.071 5.183C.127 5.896 .165 6.021 .26 6.341 .33 6.576 .567 6.786 .902 6.741 1.275 6.691 1.518 6.456 1.353 5.709 1.055 4.346 .755 3.381 .755 3.381 .755 3.381 .585 2.537-.908 2.351-1.993 2.215-3.542 1.579-3.966 .023-4.443-1.723-5.396-5.264-5.396-5.264-5.396-5.264-5.891-7.179-4.233-7.325-4.233-7.325-3.188-7.553-2.3-7.159-2.3-7.159-2.049-7.012-1.947-7.35H.327L3.981 6.108C3.981 6.108 4.6 8.825 2.505 8.924" fill="#1d1e1c"/>
<path transform="matrix(1,0,0,-1,64.5311,99.768108)" d="M0 0 .164-.002C.42-.018 .624-.22 .543-.515L-.868-5.684C-.948-5.98-1.136-6.248-1.548-6.248L-1.703-6.239C-1.981-6.239-2.17-6.015-2.089-5.719L-.679-.55C-.597-.255-.436-.01 0 0M-.251-13.041C-.251-13.041-.685-14.539-2.172-14.539H-5.043C-5.043-14.539-7.073-14.641-6.411-12.08-5.749-9.519-3.188-.074-3.188-.074-3.188-.074-3.039 .591-2.496 1.142-2.151 1.492-1.717 1.727-.631 1.727H1.615C1.615 1.727 3.525 1.688 2.997-.573 2.468-2.835 1.002-8.153 1.002-8.153H-2.621L-3.654-11.513C-3.654-11.513-3.918-12.276-3.11-12.314-2.548-12.341-2.449-12.061-2.222-11.347-1.992-10.624-1.722-9.552-1.722-9.552L.616-9.557-.228-12.968Z" fill="#1d1e1c" fill-rule="evenodd"/>
<path transform="matrix(1,0,0,-1,96.8475,99.768108)" d="M0 0 .165-.002C.42-.018 .624-.22 .544-.515L-.868-5.684C-.948-5.98-1.136-6.248-1.547-6.248L-1.703-6.239C-1.98-6.239-2.169-6.015-2.089-5.719L-.678-.55C-.597-.255-.437-.01 0 0M-.25-13.041C-.25-13.041-.685-14.539-2.171-14.539H-5.042C-5.042-14.539-7.072-14.641-6.411-12.08-5.749-9.519-3.187-.074-3.187-.074-3.187-.074-3.038 .591-2.495 1.142-2.151 1.492-1.716 1.727-.63 1.727H1.615C1.615 1.727 3.526 1.688 2.997-.573 2.468-2.835 1.001-8.153 1.001-8.153H-2.621L-3.655-11.513C-3.655-11.513-3.918-12.276-3.111-12.314-2.548-12.341-2.449-12.061-2.222-11.347-1.991-10.624-1.722-9.552-1.722-9.552L.617-9.557-.228-12.968Z" fill="#1d1e1c" fill-rule="evenodd"/>
<path transform="matrix(1,0,0,-1,111.955,93.1685)" d="M0 0C-.967 0-1.753-.786-1.753-1.753-1.753-2.719-.967-3.505 0-3.505 .966-3.505 1.753-2.719 1.753-1.753 1.753-.786 .966 0 0 0M0-3.88C-1.173-3.88-2.128-2.926-2.128-1.753-2.128-.579-1.173 .375 0 .375 1.173 .375 2.128-.579 2.128-1.753 2.128-2.926 1.173-3.88 0-3.88" fill="#1d1e1c"/>
</g>
</g>
</g>
</svg>
