<svg xmlns="http://www.w3.org/2000/svg" xmlns:xlink="http://www.w3.org/1999/xlink" version="1.1" width="155.906pt" height="155.906pt" viewBox="0 0 155.906 155.906">
<defs>
<clipPath id="clip_191">
<path transform="matrix(1,0,0,-1,0,155.906)" d="M0 155.906H155.906V0H0Z"/>
</clipPath>
</defs>
<g>
<g id="layer_1" data-name="bg orange">
</g>
<g id="layer_1" data-name="BOXES">
</g>
<g id="layer_1" data-name="LOGOS">
<g clip-path="url(#clip_191)">
<path transform="matrix(1,0,0,-1,117.8972,41.177705)" d="M0 0V-3.142C0-10.554-.053-16.209-.293-21.517-.346-22.635-.399-23.647-.47-24.606-.755-29.009-1.207-32.843-1.846-36.323-2.042-37.353-2.246-38.382-2.485-39.376-4.9-49.762-9.525-57.777-17.469-65.34-17.904-65.749-18.348-66.166-18.809-66.574-19.289-67.018-19.83-67.488-20.496-68.057-20.691-68.234-20.895-68.403-21.1-68.562L-21.144-68.607C-25.777-72.477-31.441-76.338-38.453-80.413L-39.944-81.283-41.436-80.413C-48.448-76.338-54.103-72.468-58.727-68.616-58.931-68.447-59.162-68.252-59.393-68.057-59.997-67.533-60.556-67.053-61.071-66.583-61.506-66.192-61.967-65.775-62.429-65.331-70.364-57.769-74.98-49.762-77.403-39.376-77.634-38.382-77.856-37.353-78.043-36.323-78.691-32.843-79.134-29-79.427-24.588-79.489-23.638-79.543-22.635-79.596-21.508-79.836-16.209-79.889-10.545-79.889-3.133V0 4.767 7.731H0V4.758Z" fill="#00803f"/>
<path transform="matrix(1,0,0,-1,110.2279,76.240108)" d="M0 0C-7.075 1.651-14.549 2.761-22.253 3.275-21.907 5.335-21.366 7.359-20.629 9.329-19.91 11.255-19.022 13.084-17.975 14.815-11.3 14.149-4.829 13.022 1.296 11.46 1.047 7.332 .639 3.533 0 0M-2.663-9.684C-5.113-15.969-8.939-21.464-14.815-26.852-20.665-17.806-23.328-8.45-22.626 .311-14.913-.195-7.518-1.305-.604-2.929-1.145-5.299-1.82-7.545-2.663-9.684M-30.793-26.736V.621C-29.044 .612-27.304 .559-25.591 .479-26.301-8.575-23.718-18.144-17.975-27.411-22.174-27.002-26.452-26.781-30.793-26.736M-30.793 15.498C-27.579 15.472-24.393 15.33-21.25 15.09-22.085 13.572-22.804 12.001-23.416 10.368-24.26 8.113-24.872 5.796-25.245 3.435-27.082 3.524-28.929 3.577-30.793 3.586ZM-33.766 3.595C-35.622 3.586-37.459 3.533-39.296 3.444-39.678 5.805-40.282 8.113-41.125 10.377-41.738 12.01-42.465 13.581-43.291 15.099-40.157 15.339-36.98 15.481-33.766 15.507ZM-33.766-26.736C-38.098-26.772-42.368-27.002-46.566-27.411-40.823-18.144-38.24-8.575-38.95 .479-37.237 .559-35.506 .604-33.766 .621ZM-49.726-26.86C-55.612-21.472-59.437-15.969-61.896-9.684-62.731-7.545-63.405-5.299-63.947-2.929-57.023-1.296-49.629-.195-41.906 .311-41.214-8.45-43.868-17.806-49.726-26.86M-65.846 11.451C-59.713 13.013-53.25 14.14-46.557 14.806-45.51 13.075-44.622 11.247-43.903 9.32-43.167 7.35-42.625 5.326-42.27 3.267-49.984 2.761-57.467 1.651-64.541-.009-65.198 3.524-65.598 7.332-65.846 11.451M4.696 39.82H-69.246V35.053 31.92C-69.246 25.192-69.21 19.164-68.953 13.679-68.909 12.649-68.855 11.646-68.784 10.661-68.518 6.586-68.101 2.814-67.444-.728-67.258-1.713-67.053-2.69-66.832-3.639-64.657-12.978-60.529-20.665-52.691-28.13-52.274-28.529-51.848-28.929-51.404-29.319-50.88-29.799-50.339-30.269-49.78-30.748-49.576-30.926-49.362-31.103-49.149-31.281-44.622-35.062-39.075-38.835-32.275-42.794-25.467-38.835-19.91-35.053-15.383-31.272-15.179-31.095-14.975-30.926-14.771-30.748-14.211-30.269-13.661-29.799-13.137-29.31-12.702-28.92-12.267-28.52-11.859-28.13-4.021-20.665 .107-12.969 2.281-3.631 2.503-2.672 2.707-1.704 2.894-.719 3.551 2.814 3.968 6.586 4.234 10.661 4.305 11.646 4.358 12.658 4.403 13.679 4.66 19.164 4.696 25.192 4.696 31.92V35.053Z"/>
<path transform="matrix(1,0,0,-1,111.5239,64.78931)" d="M0 0C-.249-4.119-.657-7.927-1.296-11.46-8.371-9.809-15.845-8.699-23.549-8.184-23.203-6.125-22.662-4.101-21.925-2.13-21.206-.204-20.318 1.624-19.271 3.355-12.587 2.698-6.125 1.562 0 0" fill="#ffffff"/>
<path transform="matrix(1,0,0,-1,109.6243,79.16051)" d="M0 0C-.55-2.37-1.225-4.625-2.059-6.764-4.509-13.049-8.335-18.543-14.211-23.931-20.061-14.886-22.724-5.53-22.023 3.231-14.309 2.734-6.915 1.624 0 0" fill="#00803f"/>
<path transform="matrix(1,0,0,-1,92.2529,103.6508)" d="M0 0C-4.199 .408-8.486 .63-12.818 .675V28.032C-11.069 28.023-9.329 27.97-7.616 27.89-8.326 18.836-5.734 9.267 0 0" fill="#fc8231"/>
<path transform="matrix(1,0,0,-1,88.9774,61.149904)" d="M0 0C-.834-1.518-1.553-3.089-2.166-4.722-3.009-6.977-3.622-9.294-3.994-11.655-5.832-11.566-7.678-11.513-9.542-11.504V.408C-6.32 .382-3.133 .24 0 0" fill="#fc8231"/>
<path transform="matrix(1,0,0,-1,76.4615,60.741609)" d="M0 0V-11.912C-1.855-11.921-3.693-11.974-5.53-12.063-5.912-9.702-6.515-7.394-7.359-5.131-7.971-3.497-8.699-1.926-9.525-.408-6.391-.169-3.204-.027 0 0" fill="#fc8231"/>
<path transform="matrix(1,0,0,-1,76.4615,75.618709)" d="M0 0V-27.358C-4.332-27.393-8.601-27.624-12.8-28.032-7.057-18.765-4.474-9.196-5.184-.142-3.462-.062-1.74-.018 0 0" fill="#fc8231"/>
<path transform="matrix(1,0,0,-1,60.5015,103.10051)" d="M0 0C-5.885 5.388-9.711 10.892-12.17 17.176-13.004 19.315-13.679 21.561-14.22 23.931-7.297 25.564 .098 26.665 7.82 27.171 8.513 18.41 5.859 9.054 0 0" fill="#ffffff"/>
<path transform="matrix(1,0,0,-1,67.9489,72.9735)" d="M0 0C-7.714-.506-15.197-1.616-22.271-3.275-22.919 .257-23.319 4.065-23.567 8.184-17.434 9.746-10.971 10.874-4.278 11.54-3.231 9.809-2.343 7.98-1.624 6.054-.888 4.092-.346 2.068 0 0" fill="#00803f"/>
<path transform="matrix(1,0,0,-1,51.7048,39.384607)" d="M0 0H-2.148C-2.849-.959-3.196-1.456-3.897-2.45-4.58-1.491-4.918-.994-5.601 0H-7.749V-3.125C-5.805-3.062-4.829-3.027-2.867-2.974-4.625-8.424-6.151-13.954-7.589-19.493-7.554-20.673-7.536-21.25-7.483-22.396-4.625-21.685-3.16-21.357-.178-20.798-.204-19.75-.213-19.209-.222-18.117-2.104-18.419-3.045-18.587-4.882-18.943-3.364-13.563-1.802-8.193-.035-2.894-.027-1.722-.018-1.154 0 0" fill="#ffffff"/>
<path transform="matrix(1,0,0,-1,56.9065,52.761606)" d="M0 0C.515 3.835 .79 6.098 1.331 9.906 1.82 6.125 2.059 3.906 2.601 .24 1.553 .142 1.039 .098 0 0M3.249 13.377H-.479C-1.651 6.578-2.645-.266-3.613-7.092-2.521-6.897-1.971-6.808-.861-6.64-.675-5.104-.577-4.323-.364-2.716 .976-2.556 1.642-2.485 3-2.352 3.24-3.87 3.364-4.607 3.631-6.027 4.776-5.894 5.335-5.832 6.444-5.717 5.228 .621 4.252 6.995 3.249 13.377" fill="#ffffff"/>
<path transform="matrix(1,0,0,-1,67.8513,55.717508)" d="M0 0C-.018 5.441 .027 10.883 .062 16.333H-2.707C-2.743 10.022-2.787 3.71-2.716-2.592-.142-2.361 1.074-2.29 3.648-2.175V.186C2.184 .124 1.447 .089 0 0" fill="#ffffff"/>
<path transform="matrix(1,0,0,-1,78.3522,45.101106)" d="M0 0V2.477C0 2.849-.249 3.151-.559 3.151H-1.988C-2.29 3.151-2.548 2.849-2.548 2.477-2.556-1.58-2.565-5.637-2.574-9.702-2.574-10.048-2.326-10.323-2.015-10.323-1.438-10.315-1.145-10.315-.568-10.315-.257-10.315-.009-10.039-.009-9.684V-5.734H-1.154V-3.311C.417-3.311 1.207-3.311 2.778-3.329 2.787-6.16 2.787-7.501 2.796-10.039 2.796-11.841 1.917-12.658 .133-12.649-1.012-12.649-1.589-12.649-2.734-12.667-4.509-12.693-5.388-11.886-5.388-10.075-5.388-5.779-5.361-1.473-5.335 2.823-5.326 4.784-4.438 5.725-2.69 5.725H.124C1.873 5.725 2.752 4.784 2.752 2.823 2.761 1.704 2.761 1.207 2.761-.009 1.678-.009 1.118 0 0 0" fill="#ffffff"/>
<path transform="matrix(1,0,0,-1,83.4207,39.384607)" d="M0 0C.036-6.16 .08-12.321 .071-18.481 1.181-18.525 1.731-18.552 2.832-18.605 2.858-12.401 2.805-6.205 2.769 0Z" fill="#ffffff"/>
<path transform="matrix(1,0,0,-1,93.966,48.092508)" d="M0 0C0-.408-.249-.719-.55-.71-1.394-.666-1.82-.648-2.672-.612-2.681 2.059-2.69 3.471-2.707 6.063-1.855 6.054-1.438 6.045-.586 6.036-.284 6.036-.036 5.708-.027 5.317-.009 3.275-.009 2.139 0 0M1.03-3.373C2.228-3.169 2.814-2.228 2.805-.444 2.787 1.997 2.778 3.284 2.752 5.628 2.725 7.705 1.846 8.708 .089 8.708H-5.486C-5.441 2.459-5.388-3.79-5.441-10.048-4.35-10.128-3.817-10.173-2.707-10.27-2.672-7.616-2.663-6.214-2.663-3.231-2.299-3.249-2.113-3.258-1.749-3.284-.826-6.329-.391-7.776 .515-10.59 1.74-10.732 2.352-10.803 3.568-10.971 2.583-8.033 2.068-6.524 1.03-3.373" fill="#ffffff"/>
<path transform="matrix(1,0,0,-1,98.9902,39.384607)" d="M0 0C.098-6.631 .178-13.27 .089-19.901 1.207-20.07 1.758-20.159 2.858-20.336 2.965-13.554 2.876-6.773 2.778 .009 1.669 0 1.11 0 0 0" fill="#ffffff"/>
<path transform="matrix(1,0,0,-1,111.9144,52.770509)" d="M0 0C-.027-2.37-.044-3.524-.115-5.743-.178-7.962-1.047-8.797-2.716-8.415-3.728-8.184-4.234-8.078-5.255-7.865-6.941-7.518-7.776-6.4-7.758-4.35-7.749-3.267-7.74-2.716-7.74-1.598-6.649-1.74-6.098-1.82-5.015-1.971-5.024-2.965-5.024-3.453-5.042-4.412-5.051-4.82-4.811-5.184-4.518-5.237-4.039-5.326-3.799-5.37-3.329-5.459-3.036-5.512-2.787-5.228-2.778-4.811-2.743-2.929-2.734-1.962-2.716 .027-2.716 .47-2.956 .861-3.249 .897-4.057 .994-4.465 1.047-5.282 1.136-6.906 1.323-7.74 2.494-7.758 4.82-7.776 6.986-7.785 8.069-7.82 10.128-7.847 12.33-6.995 13.395-5.264 13.395H-2.565C-.834 13.395 .027 12.241 .036 9.871V6.702C-1.065 6.782-1.616 6.817-2.716 6.888-2.725 8.033-2.725 8.504-2.734 9.56-2.734 9.995-2.983 10.368-3.293 10.377-3.781 10.394-4.03 10.394-4.518 10.412-4.82 10.421-5.068 10.075-5.06 9.649-5.042 7.811-5.033 6.835-5.024 4.891-5.024 4.438-4.776 4.048-4.474 4.021-3.666 3.95-3.267 3.915-2.459 3.835-.79 3.675 .027 2.352 0 0" fill="#ffffff"/>
<path transform="matrix(1,0,0,-1,72.9819,107.26361)" d="M0 0V-3.79H-.755V-1.092H-1.713V-.435H-.755V0Z" fill="#ffffff"/>
<path transform="matrix(1,0,0,-1,75.565,109.118808)" d="M0 0H-.32C-.701 0-.95 .284-.95 .657-.95 1.039-.692 1.278-.364 1.278H-.009C.328 1.278 .63 1.056 .63 .621 .639 .195 .311 0 0 0M-.178 1.944C-1.092 1.944-1.704 1.465-1.704 .621-1.704-.169-1.145-.639-.328-.639-.009-.639 .408-.55 .675-.249 .648-.932 .399-1.376-.036-1.376H-.408C-.639-1.376-.87-1.234-.941-1.003H-1.713C-1.598-1.607-1.145-2.033-.249-2.033 1.11-2.033 1.429-.95 1.429 .027 1.438 1.296 .87 1.944-.178 1.944" fill="#ffffff"/>
<path transform="matrix(1,0,0,-1,79.5594,109.5182)" d="M0 0H-1.26V.098L-.497 1.589H0ZM.728 0V2.246H-.861L-2.015 .08V-.648H0V-1.545H.737V-.648H1.26V0H.728Z" fill="#ffffff"/>
<path transform="matrix(1,0,0,-1,83.3763,109.5182)" d="M0 0H-1.26V.098L-.497 1.589H0V0ZM.728 0V2.246H-.861L-2.015 .08V-.648H0V-1.545H.737V-.648H1.26V0H.728Z" fill="#ffffff"/>
</g>
</g>
</g>
</svg>
